<svg width="142" height="230" viewBox="0 0 142 230" fill="none" xmlns="http://www.w3.org/2000/svg">
<path d="M141.8 100.7C142 106.3 141.9 111.8 141.8 117.4C141.4 115.9 141 114.3 140.4 112.8C140 111.9 139.6 111 139.2 110C139.3 111.3 139.4 112.6 139.3 113.8C139.2 115 138.9 116.1 138.6 117.3C138.1 116.1 137.6 114.9 137.2 113.7C136.6 112 136 110.3 135.3 108.6C134.2 106 132.9 103.4 131.4 101C130 98.7998 128.5 96.5998 126.7 94.6998C124.3 91.9998 121.4 89.4998 118.2 87.8998C115.7 86.6998 113 85.8998 110.2 85.6998C107.9 85.4998 105.5 85.5998 103.3 86.0998C101 86.5998 98.8 87.2998 96.6 88.2998C95.1 88.9998 93.7 89.7998 92.2 90.5998C92.4 89.5998 92.5 88.5998 92.8 87.6998C93.2 86.1998 93.9 84.7998 94.9 83.6998C95.7 82.7998 96.8 82.0998 97.9 81.4998C100 80.3998 102.3 79.8998 104.7 79.5998C107.8 79.1998 110.9 79.2998 114 79.5998C116.8 79.8998 119.5 80.5998 122.1 81.4998C124.3 82.2998 126.4 83.2998 128.4 84.6998C130.6 86.1998 132.6 88.1998 133.6 90.4998C134.2 91.8998 134.4 93.3998 134.6 94.9998C134.7 94.3998 134.8 93.8998 134.9 93.2998C135.1 91.4998 134.7 89.6998 134.2 87.9998C133.7 86.2998 132.9 84.6998 132.1 83.0998C131 81.0998 129.6 79.0998 128.1 77.2998C126.6 75.4998 124.9 73.8998 123 72.4998C121.4 71.1998 119.7 70.1998 117.8 69.1998C115.4 67.9998 112.7 67.0998 110 66.8998C108.2 66.7998 106.5 66.9998 104.7 67.2998C106.1 66.4998 107.5 65.5998 109 64.7998C110.3 64.0998 111.6 63.3998 112.9 62.8998C115.6 61.8998 118.5 61.5998 121.4 61.6998C124.6 61.7998 127.8 62.1998 130.8 63.1998C133.2 63.8998 135.5 64.9998 137.7 65.9998C138.5 69.8998 139.2 73.8998 139.7 77.7998C140.9 85.4998 141.6 93.0998 141.8 100.7Z" fill="#fff"/>
<path d="M137.9 133.2C138 136.5 137.9 139.8 137 143C136.6 144.4 136.1 145.7 135.9 147.1C135.8 147.9 135.8 148.7 135.9 149.4C136 150 136.1 150.5 136.2 151.1C135.8 150.6 135.4 150.1 135.1 149.5C134.4 147.9 134.9 145.9 135 144C135 141.9 134.4 139.9 133.8 137.9C133.4 136.4 133 134.8 132.3 133.4C131.9 132.6 131.5 131.8 131.1 131.1C131.7 133.8 132.3 136.5 132.6 139.2C133 142.9 132.8 146.7 132.1 150.4C131.5 153.4 130.6 156.3 129 158.8C127.9 160.6 126.5 162.1 125.1 163.7C123 166.1 121 168.7 119.6 171.5C118.2 174.2 117.3 177.1 116.7 180.1C116.2 182.5 115.9 185 115.8 187.4C115.7 189 115.7 190.7 115.9 192.3C116 193.7 116.3 195.1 116.6 196.5C115.5 194.2 114.4 192 113.6 189.6C112.4 186.1 111.7 182.5 111.6 178.8C111.5 174.5 112.2 170.2 113.8 166.3C115.3 162.6 117.7 159.3 119 155.6C120 152.7 120.5 149.5 120.8 146.4C121.3 142 121.5 137.6 121.3 133.2C121.2 131.2 121 129.3 120.8 127.3C121.1 127.4 121.4 127.6 121.8 127.6C122.2 127.6 122.5 127.5 122.8 127.3C123.2 127 123.3 126.3 123.4 125.6C123.7 122.5 124 120 124 117.3C124 114.6 123.6 111.9 122.9 109.2C122.1 105.9 120.7 102.7 118.8 99.9C117.3 97.7 115.4 95.9 113.4 94C116.5 95.3 119.6 96.6 122.4 98.3C125.7 100.4 128.6 103.1 130.8 106.2C133.7 110.3 135.5 115 136.6 119.9C137.3 124.3 137.8 128.8 137.9 133.2Z" fill="#fff"/>
<path d="M137.3 63.5999C137.4 63.8999 137.4 64.1 137.5 64.3C136.4 63.4 135.3 62.3999 134.1 61.5999C132.6 60.5999 131 59.7999 129.4 59.0999C126.7 57.8999 124 56.9999 121.2 56.5999C117.8 55.9999 114.3 56.1999 110.8 56.6999C107 57.2999 103.4 58.2 99.9999 59.8C96.9999 61.2 94.0999 62.9999 91.6999 65.0999C88.8999 67.5999 86.6999 70.6999 84.6999 74.0999C82.8999 77.1999 81.1999 80.6 79.6999 83.9C78.6999 86.2 77.6999 88.3999 76.6999 90.6999C76.3999 88.8999 76.5 86.9999 76.8 85.1999C77.2 81.8999 78.1 78.6999 79.3 75.5999C80.9 71.5 82.8999 67.5 85.4999 63.9C88.1999 60.2 91.5 56.9 94.9 54C99.1 50.4 103.5 47.1 108.2 44.2C111.3 42.3 114.5 40.6 117.7 39C120.5 37.6 123.5 36.4 126.4 35.2C126.5 35.3 126.5 35.4999 126.6 35.5999C129.2 40.2999 131.6 45.0999 133.4 50.0999C135 54.3999 136.3 58.9999 137.3 63.5999Z" fill="#fff"/>
<path d="M118.7 23.6999L118.8 23.7999C117.6 24.2999 116.5 24.8999 115.4 25.4999C113.9 26.2999 112.6 27.2999 111.2 28.2999C108.2 30.5999 105.3 32.9999 102.6 35.4999C97.3 40.5999 92.8001 46.4999 88.4001 52.5999C83.7001 59.1999 79.1001 66.0999 76.5001 73.5999C74.7001 78.8999 73.8001 84.5999 72.5001 90.0999C71.8001 93.2999 70.9001 96.3999 70.0001 99.4999C69.0001 93.8999 68 88.3999 66.7 82.8999C65.4 77.2999 63.9 71.7999 61.7 66.4999C58 57.4999 52.6001 49.1999 46.4001 41.7999C43.6001 38.3999 40.6001 35.1999 37.4001 32.1999C35.1001 29.8999 32.6001 27.6999 29.9001 25.8999C28.0001 24.5999 25.9 23.4999 23.8 22.3999C23.9 22.2999 24 22.1999 24.1 22.0999C27 18.6999 30.1 15.4999 33.6 12.6999C36.5 10.2999 39.6001 8.1999 42.9001 6.4999C43.0001 6.4999 43.1 6.3999 43.2 6.3999C44.4 8.4999 45.6001 10.4999 46.8001 12.6999C48.5001 15.6999 50.1 18.6999 51.7 21.7999C54.9 28.0999 57.8 34.4999 60.6 40.9999C63.3 47.2999 66.0001 53.6999 67.9001 60.2999C69.3001 65.2999 70.3 70.4999 71.2 75.6999C71.9 72.4999 72.6001 69.2999 73.4001 66.1999C75.2001 58.8999 77.5001 51.6999 80.0001 44.5999C81.8001 39.5999 83.6001 34.4999 85.9001 29.6999C87.5001 26.3999 89.2 23.0999 91.1 19.8999C92.4 17.5999 93.8001 15.3999 95.5001 13.3999C96.5001 12.2999 97.5001 11.2999 98.8001 10.4999C99.8001 9.8999 100.9 9.3999 101.9 8.7999C105.1 10.6999 108.1 13.0999 110.9 15.5999C113.6 18.0999 116.3 20.7999 118.7 23.6999Z" fill="#fff"/>
<path d="M115.2 115.4C115.3 115.9 115.4 116.5 115.4 117C115.4 117.7 115.1 118.4 114.7 119.1C114.7 118.6 114.5 118.2 114.3 117.8C113.9 117 113.4 116.3 112.7 115.8C112.1 115.4 111.5 115 110.9 114.7C110.6 114.5 110.2 114.4 109.8 114.3C109.6 114.2 109.3 114.2 109.1 114.3C108.8 114.4 108.5 114.7 108.2 114.9C107.5 115.5 106.8 115.7 106 115.8C104.8 116 103.7 116.2 102.5 116.3C101.3 116.4 100.1 116.4 98.9 116.4C97.6 116.4 96.2 116.3 94.9 116.3C94.1 116.3 93.4 116.2 92.6 116.2C93.3 116.7 94 117.1 94.7 117.6C95.4 118.2 96 118.8 96.6 119.5C97.4 120.5 98.2 121.6 98.4 122.9C98.5 123.5 98.5 124 98.5 124.6C98.1 123.8 97.6 122.9 97 122.3C95.8 120.9 93.9 120.1 92.2 119.1C89.4 117.6 86.9 115.7 84.5 113.8C82.9 112.6 81.4 111.4 79.9 109.9C79.3 109.3 78.8 108.6 78.5 107.9C78 106.8 78.2001 105.4 78.3001 104.1C78.5001 102.6 78.7 101.1 79.4 99.8C80.1 98.4 81.4001 97.3 82.8001 96.6C83.8001 96.1 84.9 95.8 85.9 95.6C87.2 95.3 88.5001 95.2 89.8001 95C89.1001 96.8 89.6 98.7 91.1 99.8C92.6 101 94.6 101 96.1 99.9C97.7 98.8 98.2 96.9 97.5 95.1C99.1 95.4 100.7 95.6 102.2 96.1C103.5 96.5 104.7 97.2 105.9 97.9C107.1 98.6 108.2 99.4 109 100.5C109.4 101.1 109.8 101.7 110.2 102.4C109.7 102.2 109.3 102.1 108.8 102.1C108.2 102.1 107.6 102.3 107.2 102.7C106.8 103.2 106.6 103.9 106.8 104.5C107 105.1 107.7 105.5 108.3 105.9C109.6 106.7 110.6 107.7 111.5 108.8C112.4 109.9 113.1 111.1 113.7 112.4C114.6 113.2 114.9 114.3 115.2 115.4Z" fill="#fff"/>
<path d="M110.2 160.4C110.2 163.1 110.1 165.9 109.6 168.6C109.1 171.2 108.2 173.8 106.7 175.9C105.5 177.6 103.9 179 102.5 180.5C101 182.1 99.6 183.8 98.5 185.6C97.1 187.9 96.2 190.4 95.4 193C94.6 195.9 93.9 198.9 93.8 201.8C93.7 204 93.9 206.3 93.9 208.6C93.9 210 93.9 211.5 94.3 212.8C94.5 213.6 94.9 214.3 95.2 215.1C94.5 214.5 93.9 213.8 93.3 213.1C91.7 211 91 208.3 90.4 205.6C89.6 201.8 89.2 198 89.5 194.2C89.8 190.5 90.9 186.8 92.4 183.3C93.3 181.2 94.4 179.2 95.9 177.5C96.3 177 96.8 176.5 97.3 176.1C97.3 173.3 97.3 170.5 97.3 167.8C97.3 164.8 97.3 161.7 97.3 158.7C98.2 158.2 99.1 157.7 99.7 157.1C100.8 156 101.4 154.5 101.6 152.8C101.9 150.8 101.8 148.7 101.2 146.9C100.5 144.9 99.1 143.2 97.4 141.8C95.4 140.2 93.1 139.1 90.6 138.4C88.8 137.9 87 137.6 85.1 137.5C83.3 137.4 81.5 137.5 79.7 137.6C81.9 136.5 84 135.5 86.3 134.6C88.2 133.8 90.1 133.2 92 132.4C92.8 132.1 93.6 131.7 94.5 131.4C95.3 131.1 96.2 130.9 97 130.9C98.1 131 99.2 131.7 100.1 132.4C100.7 132.9 101.2 133.4 101.6 133.9C102.7 135.2 103.7 136.5 104.7 138C106.2 140.2 107.4 142.6 108.3 145.1C109.1 147.4 109.6 149.8 109.9 152.2C110.1 154.9 110.2 157.7 110.2 160.4Z" fill="#fff"/>
<path d="M95.4 145.2C95.4 145.5 95.3 145.8 95.1 146.1C94.8 146.5 94.2 146.8 93.6 147C91.9 147.7 90.2 148.1 88.5 148.4C86.5 148.8 84.5 149 82.5 149.2C81 149.3 79.4 149.4 77.9 149.8C76.5 150.2 75.2 150.8 73.8 151C72.8 151.1 71.7 151 70.6 151C70 151 69.5 151.1 68.9 151.2C67.4 151.4 65.8 151.6 64.4 151.2C63 150.8 61.8 149.8 60.4 149.3C59 148.8 57.5 148.8 56 148.9C54.4 148.9 52.8 148.9 51.3 149.2C50.1 149.5 48.9 150 47.7 150.4C48.1 150.1 48.5 149.8 48.9 149.5C49.7 148.9 50.6 148.5 51.5 148.1C53.4 147.3 55.4 146.8 57.5 146.6C59 146.5 60.5 146.6 62 146.9C64.1 147.3 66.2 147.9 68.4 148C68.6 148 68.8 148 69 148V147.9H70.8C71.1 147.8 71.5 147.8 71.8 147.7C73.5 147.4 75.2 146.7 77 146.6C78.7 146.4 80.3 146.7 82.1 146.7C83.7 146.7 85.3 146.6 86.6 146.3C87.2 146.2 87.8 146 88.6 145.6C89.1 145.3 89.8 144.9 89.6 144.5C89.5 144.3 89.3 144.2 89.1 144.1C88.1 143.5 87.3 143.2 86.3 143C85.6 142.8 84.9 142.7 84.2 142.5C85.2 142.2 86.2 141.9 87.2 141.9C88.4 141.8 89.7001 141.9 90.8 142.2C91.6 142.4 92.4 142.8 93.3 143.3C94.3 143.7 95.3 144.4 95.4 145.2Z" fill="#fff"/>
<path d="M83.2001 126C83.2001 126.9 83.0001 127.8 82.6001 128.8C82.2001 129.8 81.5001 130.9 80.6001 131.1C80.2001 131.2 79.7001 131.1 79.6001 130.7C79.5001 130.5 79.5001 130.1 79.5001 129.8C79.4001 129.4 79.1002 129 78.8002 128.7C78.3002 128.3 77.6001 128 77.0001 128.1C76.6001 128.2 76.1001 128.4 75.7001 128.7C75.1001 129.1 74.5001 129.4 74.0001 129.8C73.3001 130.2 72.5001 130.6 71.7001 130.9C71.4001 131 71.0001 131.1 70.7001 131.2C70.7001 136.7 70.7001 142.3 70.7001 147.8H68.9001C68.9001 142.3 68.9002 136.7 68.8002 131.2C68.4002 131.2 67.9001 131.1 67.5001 130.9C67.0001 130.7 66.6001 130.5 66.2001 130.2C65.7001 129.9 65.2001 129.5 64.6001 129C63.5001 128.1 62.3001 127.1 61.4001 127.7C61.1001 127.9 60.9002 128.2 60.8002 128.6C60.7002 129.1 60.8001 129.6 60.9001 130.1C61.0001 130.6 61.0001 131.1 60.7001 131.5C60.5001 131.7 60.3001 131.8 60.0001 131.8C59.6001 131.8 59.3001 131.4 59.0001 131.1C58.5001 130.4 58.2001 129.7 58.0001 129C57.7001 128 57.5001 126.9 57.4001 125.8C57.3001 124.3 57.3002 122.7 57.8002 121.3C58.0002 120.8 58.2001 120.3 58.4001 119.9C58.8001 119.2 59.4001 118.7 60.0001 118.1C62.3001 115.9 64.7001 113.7 66.9001 112C69.0001 110.4 71.7001 110.5 73.5001 112.4C73.7001 112.6 73.9001 112.8 74.1001 113C75.4001 114.3 76.6001 115.6 77.9001 116.9C79.5001 118.5 81.1001 120.1 82.1001 122.1C82.8001 123.4 83.2001 124.7 83.2001 126Z" fill="#fff"/>
<path d="M81.8 1.29987C81 1.19987 80.5 1.59987 80.1 1.99987C79.7 2.49987 79.4 3.09987 79.2 3.69987C78.4 5.49987 77.8 7.29987 77.3 9.19987C76.1 13.5999 75.4 17.9999 74.9 22.5999C74.4 26.3999 74 30.1999 72.2 36.8999C72.4 35.1999 72 33.2999 71.6 31.4999C70.9 27.9999 70.4 24.5999 69.6 21.0999C68.8 17.3999 67.7 13.6999 66.9 9.99987C66.5 7.79987 66.1 5.59987 65.6 3.39987C65.4 2.49987 65.2 1.69987 65 0.899873C65.6 0.899873 66.2 0.799873 66.8 0.799873C71.1 0.499873 75.5 0.399874 79.7 1.09987C80.4 0.999874 81.1 1.19987 81.8 1.29987Z" fill="#fff"/>
<path d="M80.4 155.6C81.2 155.4 82 155.2 82.8 154.9C82.2 155.8 81.4 156.7 80.5 157.4C79.2 158.6 77.6 159.5 75.9 160.2C73.9 161 71.8 161.4 69.7 161.4C67.3 161.4 64.9 160.7 62.7 159.6C61.3 158.9 60 157.9 58.8 156.8C58 156.1 57.4 155.2 56.8 154.4C58.2 154.9 59.6 155.3 61.1 155.7C63.2 156.2 65.4 156.5 67.6 156.7C70.1 156.9 72.5 156.8 75 156.6C76.8 156.3 78.6 156 80.4 155.6Z" fill="#fff"/>
<path d="M80.8 188.2C81.4 190.1 81.4 192.1 81.3 194.1C81.2 196.6 81.1 199 80.4 201.4C79.8 203.4 78.7 205.3 77.4 206.9C76.5 208 75.5999 208.9 74.5999 209.9C75.0999 208.1 75.4999 206.5 75.6999 204.9C75.8999 203.3 76 201.7 76 200C76 197.9 75.8999 195.9 75.5999 193.8C75.2999 192.3 74.8999 190.8 73.5999 189.6C72.9999 189 72.1999 188.5 71.5999 188.8C71.2999 188.9 71 189.2 70.8 189.5C70.3 190.3 70 191.1 69.8 191.9C69.5 193.2 69.4 194.4 69.4 195.7C69.3 198 69.1999 200.3 69.1999 202.7C69.1999 206.5 69.4 210.3 69.9 214.2C70.4 218.2 71.0999 222.2 72.6999 225.8C73.3999 227.2 74.2 228.5 75 229.8C74 228.8 72.9 227.9 71.9 227C70.9 226.1 70 225.3 69 224.4C67.1 222.5 65.4 220.4 64 218.1C62.6 215.7 61.6 213 60.9 210.3C60.1 206.8 59.7999 203.2 60.0999 199.6C60.3999 196.5 60.9999 193.5 62.1999 190.7C62.7999 189.4 63.3999 188.1 63.6999 186.7C64.1999 184.3 63.5999 181.8 63.0999 179.3C62.5999 176.8 62.3 174.4 61.9 172C61.4 169.4 60.7999 166.8 60.1999 164.3C61.9999 164.8 63.8999 165.3 65.6999 165.6C67.4999 165.9 69.4 166 71.3 166.1C72.7 166.2 74.1 166.2 75.4 166C76.7 165.8 77.9999 165.4 79.1999 164.9C78.7999 165.6 78.4 166.3 77.9 167C77.6 167.5 77.2 168 77 168.6C76.8 169.4 76.9 170.2 77 171.1C77.2 173.1 77.1 175 77 177C76.9 179.4 77 181.8 77 184.2C77.3 184.3 77.7 184.5 78 184.7C78.3 184.9 78.6 185.1 78.9 185.4C79.9 186 80.4 187 80.8 188.2Z" fill="#fff"/>
<path d="M64.1001 82.7998C64.1001 85.1998 63.7001 87.4998 63.2001 89.8998C62.5001 86.6998 61.9001 83.4998 60.9001 80.3998C59.9001 77.0998 58.5001 73.7998 56.5001 70.9998C53.6001 66.8998 49.2001 63.8998 44.6001 61.6998C40.9001 59.9998 37.0001 58.8998 33.1001 58.0998C29.4001 57.3998 25.5001 56.9998 21.7001 57.2998C18.8001 57.4998 15.9001 57.9998 13.2001 58.9998C11.6001 59.5998 10.0001 60.2998 8.40015 61.0998C7.30015 61.6998 6.2001 62.1998 5.1001 62.7998C6.0001 59.6998 6.90015 56.5998 7.90015 53.4998C8.90015 50.1998 10.1001 46.9998 11.4001 43.8998C12.8001 40.5998 14.3001 37.4998 15.9001 34.2998C18.0001 35.0998 20.2001 35.8998 22.3001 36.7998C24.8001 37.9998 27.2001 39.2998 29.5001 40.7998C33.7001 43.2998 37.7001 46.0998 41.5001 48.9998C47.2001 53.4998 52.6002 58.5998 56.8002 64.4998C59.0002 67.5998 61.0001 70.9998 62.4001 74.5998C63.3001 77.1998 64.1001 79.9998 64.1001 82.7998Z" fill="#fff"/>
<path d="M62.2001 104C62.4001 105.3 62.5001 106.7 62.0001 107.8C61.7001 108.5 61.1001 109.2 60.6001 109.8C59.2001 111.3 57.6001 112.5 56.0001 113.7C53.5001 115.6 51.1002 117.5 48.3002 119C46.6002 119.9 44.8001 120.7 43.5001 122.2C42.9001 122.9 42.5001 123.7 42.0001 124.5C42.0001 123.9 42.0001 123.4 42.1001 122.8C42.4001 121.6 43.1001 120.4 43.9001 119.4C44.5001 118.7 45.1002 118.1 45.8002 117.5C46.5002 117 47.2001 116.5 47.9001 116.1C47.1001 116.2 46.3001 116.2 45.6001 116.2C44.3001 116.3 42.9001 116.3 41.6001 116.3C40.4001 116.3 39.1001 116.3 38.0001 116.2C36.8001 116.1 35.7001 115.9 34.5001 115.7C33.7001 115.6 33.0001 115.4 32.3001 114.8C32.0001 114.6 31.8001 114.3 31.4001 114.2C31.2001 114.2 30.9001 114.2 30.7001 114.2C30.3001 114.3 29.9001 114.4 29.6001 114.6C29.0001 114.9 28.4001 115.3 27.8001 115.7C27.1001 116.2 26.5001 116.9 26.2001 117.7C26.0001 118.1 25.9001 118.6 25.8001 119C25.5001 118.3 25.2001 117.6 25.1001 116.9C25.1001 116.4 25.2001 115.8 25.3001 115.3C25.6001 114.2 25.9001 113.2 26.3001 112.2C26.9001 110.9 27.6001 109.7 28.5001 108.6C29.4001 107.5 30.4001 106.6 31.7001 105.7C32.3001 105.3 33.0001 104.9 33.2001 104.3C33.4001 103.7 33.3001 103 32.8001 102.5C32.4001 102.1 31.8001 101.9 31.2001 101.9C30.7001 101.9 30.3001 102.1 29.8001 102.2C30.2001 101.5 30.5001 100.9 31.0001 100.3C31.8001 99.2998 32.9001 98.3998 34.1001 97.6998C35.3001 96.9998 36.5001 96.2998 37.8001 95.8998C39.3001 95.3998 40.9001 95.0998 42.5001 94.8998C41.8001 96.6998 42.4001 98.5998 43.9001 99.6998C45.5001 100.9 47.4001 100.8 48.9001 99.5998C50.4001 98.3998 51.0001 96.5998 50.2001 94.7998C51.5001 94.9998 52.8001 95.0998 54.1001 95.3998C55.2001 95.5998 56.2001 95.8998 57.2001 96.3998C58.6001 97.0998 59.9001 98.2998 60.6001 99.5998C61.8001 101 62.0001 102.5 62.2001 104Z" fill="#fff"/>
<path d="M61.0001 137.5C59.2001 137.4 57.4001 137.3 55.6001 137.4C53.8001 137.5 51.9001 137.8 50.1001 138.3C47.7001 139 45.3002 140 43.3002 141.7C41.7002 143 40.3001 144.8 39.5001 146.8C38.8001 148.7 38.7001 150.7 39.1001 152.7C39.4001 154.3 39.9001 155.9 41.0001 157C41.7001 157.7 42.5001 158.2 43.4001 158.6C43.4001 161.6 43.4001 164.7 43.4001 167.7C43.4001 170.5 43.4001 173.3 43.4001 176C43.9001 176.5 44.4002 176.9 44.8002 177.4C46.3002 179.1 47.4002 181.1 48.3002 183.2C49.9002 186.7 50.9001 190.4 51.2001 194.1C51.5001 197.9 51.1002 201.6 50.3002 205.5C49.7002 208.2 49.0001 210.9 47.4001 213C46.8001 213.7 46.2001 214.4 45.5001 215C45.8001 214.3 46.2001 213.5 46.4001 212.7C46.8001 211.4 46.7001 209.9 46.7001 208.5C46.7001 206.2 46.9002 204 46.8002 201.7C46.7002 198.7 46.0001 195.8 45.2001 192.9C44.4001 190.3 43.5001 187.8 42.1001 185.5C41.0001 183.6 39.6001 182 38.1001 180.4C36.6001 178.9 35.1001 177.5 33.9001 175.8C32.4001 173.7 31.5001 171.1 31.0001 168.5C30.5001 165.8 30.4001 163.1 30.4001 160.3C30.4001 157.6 30.5001 154.8 30.9001 152.1C31.2001 149.7 31.7001 147.3 32.5001 145C33.4001 142.5 34.6001 140.1 36.1001 137.9C37.0001 136.5 38.1001 135.1 39.2001 133.8C39.7001 133.3 40.2001 132.7 40.7001 132.3C41.6001 131.5 42.7002 130.9 43.8002 130.8C44.6002 130.7 45.5002 131 46.3002 131.3C47.2002 131.6 48.0002 131.9 48.8002 132.3C50.7002 133.1 52.6001 133.7 54.4001 134.5C56.7001 135.4 58.8001 136.5 61.0001 137.5Z" fill="#fff"/>
<path d="M50.5 78C51 79 51.3 80.2 51.7 81.3C49.5 79.5 47.3 77.7 45 76.1C42.5 74.3 39.9 72.8 37.1 71.5C34.5 70.3 31.8 69.4 29 69.2C26.6 69 24.1001 69.4 21.9001 70.3C19.5001 71.2 17.4 72.8 15.6 74.6C13.5 76.7 11.8001 79.1 10.4001 81.7C8.90006 84.4 7.80001 87.3 6.60001 90.1C8.00001 88.8 9.50004 87.5 11 86.4C13.6 84.5 16.5 83 19.5 81.8C22.4 80.7 25.4 79.8 28.5 79.6C31.6 79.4 34.7001 79.8 37.7001 80.8C40.2001 81.7 42.6 83.1 44.6 84.9C45.9 86.1 47 87.4 48.2 88.7C46.4 88.2 44.7001 87.7 42.9001 87.4C40.9001 87 38.8 86.7 36.7001 86.6C34.3 86.5 31.9 86.6 29.5 86.9C26.3 87.3 23.2001 88.1 20.2001 89.3C17 90.7 14 92.6 11.3 94.9C8.60003 97.3 6.30001 100.2 4.60001 103.3C2.80001 106.6 1.70001 110.2 0.600013 113.8C0.500013 109 0.300062 104.2 0.400062 99.3C0.600062 89 1.70005 78.7 3.70005 68.5C3.90005 67.3 4.20004 66 4.50004 64.8C7.20004 63.8 9.90005 62.9 12.7 62.3C16.5 61.5 20.3001 61.2 24.2001 61.6C28.8001 62.1 33.4001 63.5 37.2001 65.9C39.3 67.2 41.3001 68.9 43.3001 70.4C44.8001 71.6 46.4 72.8 47.7 74.2C49 75.4 49.9 76.7 50.5 78Z" fill="#fff"/>
<path d="M27.1 166.3C28.7 170.2 29.4 174.5 29.3 178.8C29.2 182.5 28.5001 186.2 27.2001 189.6C26.4001 192 25.3001 194.2 24.2001 196.5C24.5001 195.1 24.7001 193.7 24.9001 192.3C25.1001 190.7 25.1 189 25 187.4C24.9 184.9 24.6 182.5 24.1 180.1C23.5 177.1 22.6001 174.2 21.2001 171.5C19.7001 168.7 17.8001 166.1 15.7001 163.7C14.3001 162.1 12.9 160.5 11.8 158.8C10.2 156.3 9.30006 153.3 8.70006 150.4C8.00006 146.7 7.80006 142.9 8.20006 139.2C8.50006 136.5 9.10006 133.8 9.70006 131.1C9.30006 131.9 8.80007 132.6 8.40007 133.4C7.70007 134.8 7.30007 136.4 6.90007 137.9C6.30007 139.9 5.70006 141.9 5.70006 144C5.70006 145.9 6.30002 147.9 5.60002 149.5C5.30002 150.1 4.90005 150.6 4.50005 151.1C4.60005 150.5 4.70003 150 4.80003 149.4C4.90003 148.6 4.90003 147.8 4.80003 147.1C4.60003 145.7 4.10006 144.4 3.70006 143C2.80006 139.8 2.70003 136.5 2.80003 133.2C2.90003 128.7 3.40007 124.3 4.40007 120C5.50007 115.2 7.30006 110.4 10.2001 106.3C12.5001 103.1 15.4001 100.4 18.7001 98.3999C21.5001 96.5999 24.6001 95.3999 27.7001 94.0999C25.8001 95.9999 23.9 97.8999 22.3 99.9999C20.4 102.7 19.0001 105.9 18.2001 109.3C17.5001 112 17.2 114.8 17.1 117.4C17.1 120.1 17.4001 122.6 17.7001 125.7C17.8001 126.3 17.8001 127 18.2001 127.4C18.5001 127.6 18.8001 127.7 19.2001 127.7C19.6001 127.7 19.9001 127.5 20.2001 127.4C20.0001 129.4 19.8001 131.3 19.7001 133.3C19.4001 137.7 19.7001 142.1 20.2001 146.5C20.5001 149.6 20.9 152.8 22 155.7C23.2 159.3 25.6 162.6 27.1 166.3Z" fill="#fff"/>
</svg>
