<svg width="158" height="154" viewBox="0 0 158 154" fill="#fff" xmlns="http://www.w3.org/2000/svg">
<path d="M157.3 122.8C157.4 123.4 157.3 124 157 124.5C156.8 124.8 156.6 125.1 156.4 125.4C155.2 127.2 153.7 128.8 152.2 130.4C150.9 131.8 149.7 133.3 148.5 134.7C147.6 135.7 146.7 136.7 145.7 137.5C145.6 137.6 145.5 137.7 145.3 137.8C145.2 137.9 145.1 137.9 145 137.8C144.9 137.8 144.8 137.7 144.8 137.6C144.6 136.4 144.4 135.1 144.2 133.9C143.3 129.1 142.2 124.5 140.9 119.8C139.2 113.6 137.1 107.5 134.6 101.6C133.4 98.8998 132.2 96.1998 130.9 93.4998C128.6 88.8998 126.1 84.3998 122.6 80.5998C120.6 78.2998 118.2 76.2998 115.5 74.7998C113.1 73.4998 110.4 72.5998 107.6 72.3998C107.3 72.3998 107 72.3998 106.8 72.3998C104.6 72.2998 102.4 72.5998 100.4 73.1998C97.4 74.1998 94.7 75.8998 92.4 77.8998C90.5 79.4998 88.9 81.3998 87.4 83.3998C86.1 84.9998 84.9 86.7998 83.3 88.0998C82.5 88.6998 81.7 89.1998 80.8 89.4998C80.2 89.6998 79.6 89.7998 79 89.7998C78.4 89.7998 77.7 89.6998 77.2 89.4998C76.3 89.1998 75.4 88.6998 74.7 88.0998C73.9 87.4998 73.2 86.6998 72.5 85.8998C71.8 85.0998 71.2 84.2998 70.6 83.3998C69.1 81.3998 67.4 79.5998 65.5 77.8998C63.2 75.8998 60.5 74.0998 57.5 73.1998C55.4 72.4998 53.2 72.2998 51.1 72.3998C50.8 72.3998 50.5 72.3998 50.2 72.3998C47.4 72.5998 44.8 73.4998 42.3 74.7998C39.6 76.2998 37.3 78.2998 35.2 80.5998C31.8 84.3998 29.2 88.8998 26.9 93.4998C25.6 96.1998 24.3 98.8998 23.2 101.6C20.7 107.5 18.7 113.6 17 119.8C15.7 124.5 14.6 129.1 13.7 133.9C13.5 135.1 13.3 136.4 13.1 137.6C13.1 137.7 13 137.8 12.9 137.8C12.8 137.8 12.7 137.8 12.6 137.8C12.5 137.7 12.4 137.6 12.2 137.5C11.2 136.7 10.3 135.7 9.40004 134.7C8.10004 133.3 6.90003 131.8 5.70003 130.4C4.20003 128.8 2.80002 127.1 1.50002 125.4C1.30002 125.1 1.10004 124.8 0.900041 124.5C0.600041 124 0.499992 123.4 0.599992 122.8C0.599992 122.5 0.700005 122.2 0.800005 121.9C1.4 118.6 2.09999 115.3 3.09999 112.1C4.29999 108.3 5.9 104.6 7.8 101.1C10.4 96.2998 13.4 91.7998 16.5 87.3998C19.5 83.1998 22.6 79.0998 25.5 74.7998C27.4 71.9998 29.2 69.0998 30.5 65.9998C31.2 64.3998 31.7 62.7998 32.1 61.1998C33.3 56.5998 33.5 51.7998 34 47.0998C34.5 42.1998 35.4 37.3998 36.6 32.5998C38.1 26.7998 40.3 20.9998 43.8 15.9998C46.1 12.5998 49.1 9.59984 52.5 7.39984C55.8 5.39984 59.5 3.99983 63.3 3.19983C66.3 2.59983 69.4 2.29979 72.5 2.09979C72.5 4.99979 72.6 7.19982 72.6 9.49982C72.7 16.0998 72.8 22.6998 72.9 29.2998C72.9 33.8998 73 38.3998 73.1 42.9998C73.2 47.0998 73.3 51.0998 73.3 55.1998C73.3 56.2998 73.3 57.3998 73.3 58.4998C73.3 58.9998 73.4 59.4998 73.5 59.9998C73.5 60.0998 73.6 60.1998 73.7 60.1998C73.8 60.1998 73.9 60.0998 73.9 59.9998C73.9 59.7998 74 59.6998 74 59.4998C74.1 58.8998 74.2 58.2998 74.3 57.5998C74.4 56.3998 74.3 55.1998 74.3 53.9998C74.3 52.2998 74.3 50.5998 74.3 48.8998C74.3 45.3998 74.2 41.9998 74.2 38.4998C74.1 31.4998 74.1 24.4998 74.1 17.4998C74.1 13.5998 74 9.79984 74 5.89984C74 4.09984 74 2.29982 74 0.499817C74.1 0.499817 74.2 0.499817 74.2 0.499817C74.6 0.399817 75 0.399841 75.4 0.399841C76.7 0.299841 77.9 0.299805 79.2 0.299805C80.5 0.299805 81.7 0.299841 83 0.399841C83.4 0.399841 83.8 0.499817 84.2 0.499817C84.3 0.499817 84.4 0.499817 84.4 0.499817C84.4 2.29982 84.4 4.09984 84.4 5.89984C84.3 9.79984 84.3 13.5998 84.3 17.4998C84.2 24.4998 84.2 31.4998 84.2 38.4998C84.2 41.8998 84.1 45.3998 84.1 48.8998C84.1 50.5998 84.1 52.2998 84.1 53.9998C84.1 55.1998 84 56.3998 84.1 57.5998C84.2 58.1998 84.2 58.7998 84.4 59.4998C84.4 59.6998 84.5 59.7998 84.5 59.9998C84.5 60.0998 84.6 60.1998 84.7 60.1998C84.8 60.1998 84.9 60.0998 84.9 59.9998C85 59.4998 85 58.9998 85.1 58.4998C85.2 57.3998 85.2 56.2998 85.2 55.1998C85.2 51.0998 85.3 47.0998 85.4 42.9998C85.5 38.3998 85.5 33.8998 85.6 29.2998C85.7 22.6998 85.8 16.0998 85.9 9.49982C85.9 7.19982 86 4.99979 86 2.09979C89.1 2.19979 92.2 2.49983 95.2 3.19983C99 3.99983 102.7 5.29984 106 7.39984C109.5 9.59984 112.4 12.5998 114.7 15.9998C118.2 20.9998 120.3 26.6998 121.9 32.5998C123.2 37.3998 124 42.1998 124.5 47.0998C125 51.7998 125.3 56.5998 126.4 61.1998C126.8 62.7998 127.3 64.4998 128 65.9998C129.3 69.0998 131.1 71.9998 133 74.7998C135.9 79.0998 139 83.1998 142 87.3998C145.1 91.7998 148.1 96.2998 150.7 101.1C152.6 104.6 154.2 108.3 155.4 112.1C156.4 115.3 157.1 118.6 157.7 121.9C157.2 122.2 157.2 122.5 157.3 122.8ZM123.4 71.3998C123.3 71.2998 123.1 71.1998 123 71.0998C122.6 70.8998 122.2 70.5998 121.8 70.2998C121.1 69.7998 120.4 69.2998 119.7 68.8998C117.8 67.6998 115.9 66.5998 113.8 65.6998C111.6 64.7998 109.4 63.9998 107 63.6998C104.8 63.2998 102.5 63.2998 100.2 63.5998C98.3 63.8998 96.5 64.3998 94.7 65.0998C93.2 65.6998 91.7 66.4998 90.4 67.3998C89.8 67.7998 89.2 68.1998 88.7 68.5998C88.6 68.6998 88.6 68.6998 88.7 68.7998C88.7 68.8998 88.8 68.8998 88.9 68.7998C89.1 68.6998 89.2 68.5998 89.4 68.4998C90.1 68.1998 90.8 67.7998 91.5 67.4998C92.4 67.0998 93.4 66.6998 94.4 66.3998C96.2 65.7998 98.1 65.3998 100 65.2998C102.3 65.0998 104.5 65.2998 106.7 65.6998C108.7 65.9998 110.7 66.4998 112.7 66.9998C114.6 67.5998 116.4 68.2998 118.2 69.0998C119.1 69.4998 120 69.8998 120.9 70.2998C121.3 70.4998 121.8 70.6998 122.2 70.8998C122.4 70.9998 122.7 71.0998 122.9 71.1998C123 71.1998 123.1 71.1998 123.2 71.1998C123.2 71.4998 123.3 71.4998 123.4 71.3998ZM69 68.9998C69 68.8998 69 68.7998 69 68.7998C68.4 68.3998 67.9 67.9998 67.3 67.5998C65.9 66.6998 64.5 65.8998 63 65.2998C61.2 64.5998 59.4 63.9998 57.5 63.7998C55.3 63.4998 53 63.4998 50.7 63.8998C48.4 64.2998 46.1 64.9998 43.9 65.8998C41.8 66.7998 39.9 67.8998 38 69.0998C37.3 69.5998 36.6 69.9998 35.9 70.4998C35.5 70.7998 35.1 71.0998 34.7 71.2998C34.5 71.3998 34.4 71.4998 34.2 71.4998C34.2 71.4998 34.2 71.5998 34.3 71.5998H34.4C34.5 71.5998 34.6 71.5998 34.6 71.5998C34.9 71.5998 35.1 71.4998 35.3 71.2998C35.8 71.0998 36.2 70.8998 36.7 70.6998C37.6 70.2998 38.5 69.8998 39.3 69.4998C41.1 68.6998 42.9 67.9998 44.8 67.3998C46.8 66.7998 48.7 66.3998 50.8 66.0998C53 65.6998 55.3 65.4998 57.5 65.6998C59.4 65.7998 61.3 66.1998 63.1 66.7998C64.1 67.0998 65.1 67.4998 66 67.8998C66.7 68.1998 67.4 68.5998 68.1 68.8998C68.3 68.9998 68.4 69.0998 68.6 69.1998C68.9 68.9998 69 68.9998 69 68.9998Z" fill="#fff"/>
<path d="M141.9 131.9C141.9 132.1 141.9 132.3 141.7 132.5C141.5 132.7 141.3 132.7 141.1 132.6C140.8 132.5 140.5 132.4 140.2 132.3C139.2 131.9 138.2 131.6 137.3 131.2C135.6 130.7 133.9 130.2 132.2 129.7C129.7 129 127.3 128.4 124.8 128C122.5 127.7 120.3 127.7 117.9 127.7C116.5 127.8 115 127.9 113.7 128.1C113.5 128.1 113.3 128.2 113.1 128.2C112.5 128.3 112 128.7 111.9 129.3C110.9 132.7 109.9 136.2 108.9 139.6C108.8 139.8 108.6 140 108.4 140C108.3 140 108.3 140 108.2 140C107.9 140 107.7 140 107.4 140C107.1 139.9 106.9 139.8 106.7 139.7C106.3 139.5 105.9 139.3 105.5 139.2C105.2 139.1 104.8 139 104.5 139C104.2 139 103.8 139.1 103.6 139.2C103.3 139.3 103.1 139.5 102.9 139.7C102.6 139.9 102.4 140.2 102.2 140.5C102.1 140.6 102 140.6 102 140.5C101.9 140.5 101.9 140.4 101.9 140.3C101.9 140.2 101.9 140.1 101.9 140.1C101.9 140 101.9 139.9 102 139.8C102.1 139.5 102.3 139.3 102.4 139C102.7 138.6 103 138.2 103.4 138C103.8 137.8 104.3 137.6 104.7 137.7C105.1 137.7 105.4 137.9 105.8 138.1C105.9 138.1 106 138.2 106.2 138.3C106.3 138.4 106.5 138.3 106.6 138.3C106.7 138.3 106.8 138.1 106.9 138C109.4 129.2 112 120.5 114.6 111.7C114.6 111.6 114.6 111.5 114.5 111.5C114.4 111.5 114.3 111.5 114.3 111.6C111 119.7 107.8 127.8 104.5 135.8C104.5 135.9 104.4 136 104.3 136C104.2 136 104.1 136 104 135.9C97.1999 129 90.3999 122.1 83.5999 115.3C83.4999 115.2 83.5 115.1 83.4 115C83.3 114.9 83.2999 114.7 83.2999 114.6C83.2999 114.3 83.2999 113.9 83.2999 113.6C83.3999 112.9 83.3999 112.2 83.2999 111.6C83.1999 111 82.9 110.3 82.4 109.8C81.9 109.2 81.1 108.8 80.4 108.4C80.1 108.3 79.7999 108.2 79.4999 108.1C79.2999 108.1 79.1999 108.1 78.9999 108.1C78.7999 108.1 78.6999 108.1 78.4999 108.1C78.1999 108.1 77.8999 108.3 77.5999 108.4C76.7999 108.7 76.0999 109.2 75.5999 109.8C75.1999 110.3 74.8999 110.9 74.7999 111.6C74.6999 112.3 74.6999 113 74.7999 113.6C74.7999 113.9 74.8999 114.3 74.7999 114.6C74.7999 114.8 74.8 114.9 74.7 115C74.6 115.1 74.5999 115.2 74.4999 115.3C67.6999 122.1 60.8999 129 54.0999 135.9C53.9999 136 53.8999 136 53.7999 136C53.6999 136 53.5999 135.9 53.5999 135.8C50.2999 127.7 47.0999 119.6 43.7999 111.6C43.7999 111.5 43.6999 111.5 43.5999 111.5C43.4999 111.5 43.4999 111.6 43.4999 111.7C45.9999 120.5 48.6 129.2 51.2 138C51.2 138.1 51.2999 138.3 51.4999 138.3C51.5999 138.4 51.8 138.4 51.9 138.3C52 138.2 52.0999 138.2 52.2999 138.1C52.6999 137.9 53 137.8 53.4 137.7C53.8 137.7 54.3 137.8 54.7 138C55.1 138.3 55.4 138.6 55.7 139C55.9 139.2 55.9999 139.5 56.0999 139.8C56.0999 139.9 56.2 140 56.2 140.1C56.2 140.2 56.2 140.2 56.2 140.3C56.2 140.4 56.1999 140.5 56.0999 140.5C55.9999 140.5 55.9 140.5 55.9 140.5C55.6 140.3 55.4 140 55.2 139.7C55 139.5 54.7999 139.4 54.4999 139.2C54.1999 139.1 53.8999 139 53.5999 139C53.2999 139 52.8999 139.1 52.5999 139.2C52.1999 139.3 51.8 139.5 51.4 139.7C51.2 139.8 50.9 139.9 50.7 140C50.4 140 50.2 140 49.9 140C49.8 140 49.8 140 49.7 140C49.4 140 49.3 139.8 49.2 139.6C48.2 136.2 47.2 132.7 46.2 129.3C46 128.7 45.5999 128.3 44.9999 128.2C44.7999 128.2 44.6 128.1 44.4 128.1C43.1 127.9 41.7 127.8 40.2 127.7C37.8 127.6 35.5999 127.6 33.2999 128C30.7999 128.3 28.3 129 25.9 129.7C24.2 130.2 22.4999 130.6 20.7999 131.2C19.7999 131.5 18.8 131.9 17.9 132.3C17.6 132.4 17.2999 132.5 16.9999 132.6C16.7999 132.7 16.6 132.6 16.4 132.5C16.2 132.4 16.2 132.2 16.2 131.9C16.7 129.3 17.3999 126.6 17.9999 124C19.5999 117.9 21.5 111.9 23.7 105.9C25.7 100.5 28 95.3 30.9 90.4C32.7 87.4 34.6999 84.5 37.0999 81.9C38.3999 80.4 39.9 79.1 41.4 77.9C43 76.7 44.8 75.8 46.7 75C47.6 74.6 48.5999 74.3 49.4999 74C49.8999 73.9 50.2999 73.7 50.7999 73.6C50.9999 73.5 51.2 73.5 51.4 73.5C51.5 73.5 51.4999 73.5 51.5999 73.5C51.6999 73.5 51.7 73.6 51.7 73.6C51.7 73.7 51.7 73.7 51.7 73.8C51.6 74 51.3999 74.1 51.2999 74.2C49.6999 75.4 48.6999 77.1 47.5999 78.7C47.1999 79.3 46.8 80 46.4 80.6C46 81.3 45.5999 82 45.2999 82.8C45.1999 83.1 45.0999 83.4 44.9999 83.7C44.9999 84.1 44.9999 84.5 45.2999 84.9C45.4999 85.3 45.8999 85.5 46.2999 85.8C48.3999 87.1 50.7999 88 53.0999 88.8C55.2999 89.5 57.4999 90.1 59.7999 90.5C61.8999 90.8 64.1 90.8 66.2 90.9C67.5 90.9 68.8 90.9 70.2 90.8C70.3 90.8 70.3999 90.8 70.4999 90.8C70.6999 90.8 70.8 90.7 70.9 90.5C70.9 90.5 70.9 90.5 70.9 90.4C70.9 90.2 70.8999 90 70.7999 89.8C70.4999 88.8 70.2999 87.9 70.0999 86.9C69.9999 86.6 70 86.3 69.9 86C69.9 85.7 69.7999 85.4 69.7999 85.1C69.7999 85 69.8 84.9 69.9 84.9C70 84.9 69.9999 84.9 70.0999 84.9C70.4999 85.2 70.7999 85.6 71.0999 85.9C71.3999 86.2 71.6 86.5 71.9 86.8C72.2 87.1 72.4999 87.5 72.7999 87.8C73.4999 88.5 74.1 89.1 74.9 89.7C76 90.5 77.2 91 78.4 91.2C78.7 91.2 78.9999 91.2 79.2999 91.2C79.5999 91.2 79.9 91.2 80.2 91.2C81.5 91 82.7 90.4 83.7 89.7C84.5 89.2 85.1999 88.5 85.7999 87.8C86.3999 87.2 86.8999 86.6 87.4999 86C87.7999 85.6 88.0999 85.3 88.4999 85C88.5999 84.9 88.7 84.9 88.7 85C88.8 85 88.7999 85.1 88.7999 85.2C88.7999 85.5 88.7 85.8 88.7 86.1C88.6 86.4 88.5999 86.7 88.4999 87C88.2999 88 88.0999 88.9 87.7999 89.9C87.7999 90.1 87.7 90.3 87.7 90.5C87.7 90.5 87.7 90.5 87.7 90.6C87.8 90.8 87.8999 90.8 87.9999 90.9C88.0999 90.9 88.1999 90.9 88.2999 90.9C89.5999 91 90.8999 91 92.2999 91C94.3999 91 96.6 90.9 98.7 90.6C101 90.3 103.2 89.6 105.4 88.9C107.8 88.1 110.1 87.3 112.2 85.9C112.6 85.7 113 85.4 113.2 85C113.4 84.7 113.5 84.2 113.5 83.8C113.5 83.5 113.3 83.2 113.2 82.9C112.9 82.1 112.5 81.4 112.1 80.7C111.7 80.1 111.3 79.4 110.9 78.8C109.8 77.2 108.8 75.5 107.2 74.3C107 74.2 106.9 74.1 106.7 73.9C106.7 73.8 106.6 73.8 106.7 73.7C106.7 73.6 106.8 73.6 106.8 73.6C106.9 73.6 106.9 73.6 107 73.6C107.2 73.6 107.4 73.6 107.6 73.7C108.1 73.8 108.4 74 108.9 74.1C109.8 74.4 110.8 74.8 111.7 75.1C113.6 75.9 115.4 76.8 117 78C118.6 79.2 120 80.5 121.3 82C123.7 84.6 125.7 87.5 127.5 90.5C130.4 95.4 132.7 100.7 134.7 106C136.9 111.9 138.8 118 140.4 124.1C140.7 126.6 141.3 129.2 141.9 131.9ZM113.3 99.4C112.9 99.7 112.4 100.1 112 100.4C111.3 100.9 110.6 101.4 109.9 101.9C109.2 102.4 108.5 102.9 107.9 103.4C107.7 103.6 107.4 103.7 107.2 103.9C106.8 103.8 106.4 103.6 106 103.5C104.5 103.1 102.9 102.8 101.4 102.6C99.4 102.4 97.4999 102.3 95.4999 102.4C94.0999 102.5 92.6 102.8 91.2 103.2C90.3 103.5 89.3999 103.8 88.4999 104.2C88.1999 104.4 87.8999 104.5 87.5999 104.8C87.4999 104.9 87.4 105.1 87.4 105.2C87.4 105.4 87.5999 105.6 87.7999 105.7C88.0999 105.9 88.4 106 88.7 106.2C89.6 106.5 90.4999 106.8 91.4999 107.2C92.4999 107.6 93.5 108 94.4 108.6C95.9 109.5 97.2 110.7 98.2 112.2C99.2 113.6 99.9999 115.2 100.5 116.9C100.9 118.4 101.2 120 101.5 121.6C101.7 122.6 102 123.7 102.2 124.7C102.4 125.4 102.5 126.2 102.7 126.9C102.7 125.9 102.8 124.9 102.7 123.9C102.7 122.3 102.4 120.7 102.2 119.1C101.8 116.9 101.4 114.7 100.4 112.6C99.7 111.2 98.6999 109.8 97.5999 108.7C97.0999 108.2 96.5 107.6 95.9 107.2C95.2 106.7 94.3999 106.3 93.5999 106C92.9999 105.8 92.2999 105.7 91.5999 105.6C90.9999 105.5 90.3 105.5 89.7 105.4C90.3 105.2 90.9 105.1 91.4 105C92.6 104.7 93.7999 104.5 94.9999 104.3C96.4999 104.1 98.1 104 99.7 104.1C101.2 104.2 102.6 104.6 104.1 104.9C104.8 105.1 105.6 105.2 106.3 105.4C106.7 105.5 107 105.6 107.4 105.7C108 105.1 108.6 104.5 109.2 103.9C110.1 103 111 102.1 111.9 101.2C112.3 100.6 112.8 100 113.3 99.4ZM111.4 92.3C112.1 91.4 112.7 90.5 113.3 89.5C111.8 90.7 110.4 91.8 108.8 92.8C107.4 93.6 105.9 94.3 104.4 94.8C102.9 95.3 101.3 95.7 99.7 95.9C98 96.2 96.1999 96.2 94.4999 96.1C92.9999 96 91.4999 95.8 90.0999 95.4C89.3999 95.2 88.6999 95 88.0999 94.8C88.4999 95.1 88.8 95.4 89.2 95.6C89.9 96.1 90.6999 96.5 91.4999 96.8C92.4999 97.2 93.4999 97.6 94.4999 97.8C95.9999 98.2 97.6 98.3 99.2 98.3C100.6 98.2 102 98 103.4 97.6C105.1 97.1 106.7 96.3 108.1 95.3C109.2 94.5 110.4 93.5 111.4 92.3ZM83.7 95.6C84 95.7 84.2999 95.8 84.4999 95.9C84.3999 95.8 84.1999 95.6 84.0999 95.4C83.7999 95.2 83.5999 94.9 83.2999 94.7C82.8999 94.4 82.4999 94.2 82.0999 94C81.5999 93.8 81.2 93.6 80.7 93.5C80.2 93.4 79.5999 93.3 79.0999 93.3C78.5999 93.3 77.9999 93.3 77.4999 93.4C76.6999 93.6 75.9 93.9 75.2 94.3C74.7 94.6 74.3 94.9 73.9 95.3C73.7 95.5 73.6 95.6 73.4 95.8C73.9 95.6 74.4999 95.3 74.9999 95.2C75.5999 95 76.3 94.9 76.9 94.8C77.6 94.7 78.2999 94.6 78.9999 94.6C79.4999 94.6 79.9999 94.6 80.4999 94.7C81.1999 94.8 81.8 94.9 82.4 95C82.8 95.3 83.2 95.4 83.7 95.6ZM82.4999 98.5C82.5999 98.5 82.6999 98.6 82.7999 98.6C82.5999 98.4 82.4999 98.3 82.2999 98.2C82.0999 98 81.7999 97.8 81.4999 97.7C81.0999 97.5 80.5999 97.3 80.0999 97.2C79.5999 97.1 79.1 97 78.7 97C78.2 97 77.7999 97.1 77.2999 97.2C76.8999 97.3 76.5999 97.4 76.2999 97.6C75.9999 97.7 75.6999 97.9 75.4999 98.1C75.2999 98.2 75.1999 98.4 74.9999 98.5C75.4999 98.3 76.0999 98.1 76.5999 97.9C77.0999 97.8 77.5999 97.7 77.9999 97.7C78.4999 97.7 78.9 97.7 79.4 97.7C79.8 97.7 80.1999 97.8 80.5999 97.8C80.9999 97.9 81.3999 98 81.7999 98.1C81.9999 98.3 82.1999 98.4 82.4999 98.5ZM70.4 105.3C70.4 105.1 70.3 105 70.2 104.9C69.9 104.6 69.5999 104.4 69.2999 104.3C68.4999 103.9 67.4999 103.6 66.5999 103.3C65.1999 102.9 63.7999 102.6 62.2999 102.5C60.2999 102.4 58.4 102.5 56.4 102.7C54.8 102.9 53.2999 103.2 51.7999 103.6C51.3999 103.7 50.9999 103.8 50.5999 104C50.2999 103.8 50.1 103.6 49.9 103.5C49.2 103 48.5 102.5 47.9 102C47.2 101.5 46.4999 101 45.7999 100.5C45.3999 100.2 44.8999 99.8 44.4999 99.5C44.9999 100.1 45.4999 100.7 46.0999 101.3C46.9999 102.2 47.8999 103.1 48.7999 104C49.3999 104.6 49.9999 105.2 50.5999 105.8C50.8999 105.7 51.3 105.6 51.7 105.5C52.4 105.3 53.0999 105.1 53.7999 105C55.2999 104.7 56.7 104.3 58.2 104.2C59.8 104.1 61.3 104.1 62.9 104.4C64.1 104.6 65.2999 104.8 66.4999 105.1C67.0999 105.2 67.7 105.4 68.2 105.5C67.6 105.5 66.8999 105.6 66.2999 105.7C65.5999 105.8 64.9999 105.9 64.2999 106.1C63.4999 106.4 62.6999 106.8 61.9999 107.3C61.3999 107.7 60.7999 108.3 60.2999 108.8C59.1999 110 58.1999 111.3 57.4999 112.7C56.4999 114.7 56.1 116.9 55.7 119.2C55.4 120.8 55.2 122.4 55.2 124C55.2 125 55.2 126 55.2 127C55.4 126.2 55.6 125.5 55.7 124.8C55.9 123.8 56.2 122.7 56.4 121.7C56.7 120.1 56.9 118.5 57.4 117C57.9 115.3 58.6 113.7 59.7 112.3C60.7 110.9 61.9999 109.6 63.4999 108.7C64.3999 108.1 65.4 107.7 66.4 107.3C67.3 107 68.3 106.7 69.2 106.3C69.5 106.2 69.7999 106.1 70.0999 105.8C70.1999 105.6 70.4 105.5 70.4 105.3ZM68.7 95.7C69.1 95.4 69.4999 95.2 69.7999 94.9C69.0999 95.1 68.4999 95.3 67.7999 95.5C66.2999 95.9 64.9 96.1 63.4 96.2C61.7 96.3 59.9 96.2 58.2 96C56.6 95.8 54.9999 95.4 53.4999 94.9C51.9999 94.4 50.4999 93.7 49.0999 92.9C47.4999 92 45.9999 90.8 44.5999 89.6C45.1999 90.6 45.7999 91.5 46.4999 92.4C47.4999 93.6 48.7 94.7 49.9 95.5C51.3 96.5 52.8999 97.3 54.5999 97.8C55.9999 98.2 57.3999 98.5 58.7999 98.5C60.3999 98.6 61.9999 98.4 63.4999 98C64.4999 97.7 65.4999 97.4 66.4999 97C67.2999 96.5 68 96.2 68.7 95.7Z" fill="#fff"/>
<path d="M100.5 138.8C100.6 138.9 100.6 139 100.5 139.2V139.3C100.2 140 100 140.7 99.7001 141.4C92.8001 141.4 85.8001 141.4 78.9001 141.4C72.0001 141.4 65 141.4 58.1 141.4C57.8 140.7 57.6 140 57.3 139.3V139.2C57.3 139.1 57.3 138.9 57.3 138.8C57.4 138.7 57.5 138.6 57.6 138.6C64.7 138.6 71.8001 138.6 78.9001 138.6C86.0001 138.6 93.1001 138.6 100.2 138.6C100.3 138.7 100.4 138.7 100.5 138.8Z" fill="#fff"/>
<path d="M98.9001 142.8L79.8 152.8C79.2 153.1 78.5001 153.1 77.9001 152.8L58.8 142.8H78.9001H98.9001Z" fill="#fff"/>
<path d="M95.5001 130.6V137H91.3V126.4L95.5001 130.6Z" fill="#fff"/>
<path d="M88 123V137H84.1V119L88 123Z" fill="#fff"/>
<path d="M81.3 118.6H76.4V137H81.3V118.6Z" fill="#fff"/>
<path d="M73.7 119V137H69.7V123L73.7 119Z" fill="#fff"/>
<path d="M66.4001 126.4V137H62.3V130.6L66.4001 126.4Z" fill="#fff"/>
</svg>
