<svg class="svg" width="165" height="267" viewBox="0 0 165 267" fill="#fff" xmlns="http://www.w3.org/2000/svg">
<path d="M163.8 130.3C164.2 131.1 164.3 132.1 164.1 132.9C164 133.5 163.7 134 163.5 134.5C162.9 136.2 162.6 138.1 162.4 139.9C162.2 141.8 162.1 143.6 162.2 145.8C162.3 147 162.4 148.4 161.8 149.1C161.2 149.7 160 149.7 159.2 150.2C158.2 150.7 157.6 151.7 157.1 152.8C156 155.3 155.9 157.9 156 160.7C156.1 162.7 156.2 164.7 155.4 166.3C154.8 167.6 153.5 168.5 152.6 169.7C151.5 171.1 150.9 172.9 150.6 174.7C150.2 176.8 150.2 179 150.5 181.1C150.9 184.1 151.7 186.9 152.1 189.8C152.5 193.1 152.3 196.5 150.7 199.2C149.3 201.7 146.7 203.6 144.3 205.6C141.5 208 139 210.5 136.9 213.3C133.3 218 130.6 223.5 128.5 229.2C126.8 233.8 125.6 238.5 125.2 243.4C124.9 247.6 125.1 251.8 123.7 255.7C122.6 258.8 120.5 261.6 117.7 263.4C115.2 265 112.3 265.7 109.3 265.6C105.9 265.5 102.4 264.3 100.3 262.1C97.8 259.5 97 255.4 96.5 251.5C95.5 243.1 95.7 235.4 95.9 227.5C96.1 220.2 96.2 212.7 96.8 205.3C97.3 198.2 98.3 191.1 99.3 184C99.9 179.9 100.5 175.8 101 171.7C99.5 171.8 98 171.9 96.7 171.3C95.9 170.9 95.2 170.3 94.4 169.8C93.3 169.2 92.1 169 90.8 168.9C89 168.7 87 168.8 85.4 169.7C84.5 170.2 83.7 170.9 82.8 171.6C83.5 178.7 84.2 185.8 85.1 192.9C85.9 199.4 86.7 205.8 87.3 212.4C88.2 222.2 88.5 232.2 86.9 242C86.2 246.2 85.2 250.3 83.3 254C81.4 257.7 78.7 260.9 75.2 263.2C71.9 265.3 68 266.6 64.3 266C60.9 265.4 57.7 263.2 55.5 260.4C53 257.2 51.8 253.3 51.2 249.3C50.7 246 50.6 242.6 50 239.4C49 234.2 46.7 229.3 44.4 224.3C42.9 220.9 41.4 217.5 39 215C36.4 212.2 32.6 210.4 29.1 208.3C25.7 206.2 22.4 203.8 20.5 200.5C19.4 198.7 18.8 196.6 18 194.6C16.1 189.5 13.4 184.7 12.7 179.5C12.4 177.3 12.4 174.9 12.4 172.6C13.4 173 14.5 173.5 15.5 173.9C17.2 174.6 18.9 175.2 20.6 176.1C22.2 176.9 23.9 178.1 25.5 177.8C26.6 177.6 27.6 176.6 28.4 175.6C29.9 173.7 30.5 171.7 31 169.5C31.4 167.4 31.6 165.2 31.3 163.1C31.1 161.6 30.6 160.1 30.1 158.7C30 160.4 29.9 162.2 29.7 163.9C29.3 166.9 28.5 169.7 26.6 172.4C25.8 173.5 24.9 174.6 23.7 174.9C22.8 175.1 21.8 174.8 20.8 174.5C18.7 173.7 17 172.5 14.9 171.8C13.5 171.3 11.9 171 10.9 170C9.90001 169 9.40001 167.4 9.00001 165.9C8.00001 162.4 7.10001 159.2 6.10001 156.1C6.00001 155.8 6.10001 155.4 6.40001 155.2C6.70001 155 7.00001 155 7.30001 155.2C8.60001 156 9.80001 156.8 11.1 157.5C12.3 158.1 13.5 158.7 14.8 159C16.4 159.3 18.1 159 19.7 158.4C20.8 158 21.9 157.5 22.9 156.9C23.8 156.3 24.6 155.7 24.9 154.7C25.2 153.9 25.1 152.8 24.4 152.1C24.2 151.9 23.9 151.7 23.6 151.7C23.1 151.6 22.6 152.1 22.2 152.5C21.1 153.5 20.1 154.1 18.9 154.9C17.7 155.7 16.4 156.7 15 156.7C14.2 156.7 13.5 156.3 12.8 155.7C12.2 155.1 11.7 154.3 11.9 153.7C12.1 153.2 12.8 152.8 13.4 152.5C14.4 152 15.1 151.6 16 151.1C16.6 150.8 17.2 150.5 17.3 149.8C17.4 149.2 17 148.3 16.6 148.2C16.2 148.1 15.8 148.8 15.4 149.3C14.8 150 14.2 150.4 13.5 150.6C12.1 151.2 10.5 151.6 8.80001 151.9C7.30001 152.2 5.70001 152.3 4.70001 151.7C3.60001 151 3.30001 149.3 2.80001 147.3C2.50001 146.1 2.20001 144.9 2.90001 144.6C3.10001 144.5 3.40001 144.6 3.70001 144.6C4.50001 144.9 4.80001 145.7 5.30001 146.4C5.70001 146.9 6.30001 147.2 6.90001 147.3C7.70001 147.4 8.60001 147.2 9.40001 146.9C10.4 146.5 11.5 146 12.3 145.6C13.6 144.9 14.4 144.1 16.1 142.4C17.1 141.4 18.4 139.9 17.7 139.9C17.5 139.9 17.3 139.9 17 140C16.1 140.2 15.6 140.7 15 141.2C14.4 141.8 13.8 142.4 13.1 142.9C12.1 143.7 11 144.3 9.90001 144.5C8.80001 144.7 7.80001 144.6 6.60001 144.1C5.30001 143.6 4.00001 142.8 3.80001 141.7C3.50001 140.5 4.70001 138.9 6.10001 138.1C7.40001 137.2 8.90001 137.2 10.3 136.9C11.9 136.6 13.4 136 15 135.3C16.6 134.7 18.3 134 19.4 132.9C19.8 132.5 20.2 132 20.5 131.5C20.6 131.3 20.6 131.1 20.4 131C20.3 130.9 20.1 130.9 19.9 131C19 131.6 18.2 132.1 17.3 132.6C15.9 133.4 14.4 134 12.7 134C11.3 134 9.80001 133.6 8.50001 133.8C6.90001 134.1 5.60001 135.2 4.00001 136.6C3.10001 137.4 2.00001 138.2 1.20001 137.7C0.900012 137.5 0.700012 137.2 0.500012 136.8C0.200012 135.9 0.800012 134.9 1.30001 134C2.10001 132.4 2.60001 130.9 2.90001 129.3C3.30001 127.4 3.50001 125.3 4.30001 123.5C5.20001 121.6 6.70001 120 8.50001 118.8C11.2 117 14.4 116 17.6 115.5C21.4 114.9 25.1 114.9 29.1 115C31.5 115.1 33.9 115.2 35.9 114.1C37.2 113.4 38.3 112.1 39.7 111.6C40.9 111.2 42.4 111.3 43.6 110.8C44.8 110.3 45.7 108.9 46.8 108.1C47.7 107.4 48.8 107.1 49.9 106.6C50.7 106.3 51.5 105.9 52.2 106C52.8 106.1 53.4 106.6 53.9 107.2C54.5 108 54.9 108.8 55.2 109.7C55.5 110.7 55.8 111.7 56.1 112.7C56.7 114.5 57.7 116.3 59.2 117.4C60.4 118.3 62 118.8 63.5 119.4C65.9 120.3 68.1 121.6 70.4 122.4C72.2 123.1 74.2 123.5 76.2 123.9C74.5 123.1 72.8 122.2 71.1 121.4C68.7 120.3 66.3 119.2 64.1 117.7C61.8 116.1 59.7 114.1 58.2 111.8C57.4 110.6 56.8 109.2 56.1 107.9C55.7 107 55.2 106.2 55.2 105.2C55.2 104.5 55.4 103.7 55.8 103.1C56.2 102.5 56.7 102.1 57.3 101.7C58 101.2 58.7 100.8 58.9 100.1C59.1 99.4999 58.8 98.7999 58.9 98.0999C58.9 97.3999 59.2 96.7999 59.8 96.4999C60.3 96.1999 61.1 96.2999 61.5 95.9999C62.1 95.5999 61.8 94.3999 61.6 93.4999C61.5 92.8999 61.3 92.2999 61.3 91.7999C61.2 90.8999 61.1 89.9999 61.2 88.8999C61.3 88.2999 61.4 87.6999 61.5 87.3999C61.5 87.2999 61.6 87.2999 61.6 87.2999C62 87.2999 62.4 89.8999 63 91.6999C63.7 94.1999 64.5 95.2999 65.4 96.6999C66.2 97.8999 67.1 99.3999 68.3 100.4C69.3 101.2 70.4 101.7 71.5 102.4C73.3 103.6 74.6 105.3 76.2 106.8C77.5 108 78.9 109 80.4 109.9C81.2 110.3 82 110.8 82.8 111C84.1 111.4 85.4 111.5 86.8 111.5C86.7 112.1 86.7 112.7 86.7 113.2C86.7 114.2 87 115.2 87.4 116C87.6 116.5 87.9 116.9 88.4 117.2C88.7 117.4 89.1 117.6 89.2 117.9C89.3 118.2 89.1 118.7 88.9 119.1C88.4 120.2 88.4 121.3 88.7 122.4C88.9 123.1 89.1 123.8 89.5 124.4C89.8 125 90.3 125.5 90.8 125.9C91.4 126.3 92 126.5 92.9 126.6C93.2 126.6 93.4 126.6 93.5 126.4C93.5 126.3 93.5 126.3 93.4 126.1C93.4 126.1 93.4 126.1 93.3 126C93.3 125.9 93.2 125.9 93.1 125.9C91.6 125.5 90.4 124.4 89.9 123C89.4 121.6 89.5 120 90.3 118.7C90.5 118.3 90.4 117.9 90.1 117.6C88.3 116.3 87.5 114.3 88 112.1C88.5 110 90 108.4 92.2 108C92.4 107.9 92.6 107.8 92.8 107.6C92.9 107.4 92.9 107.1 92.8 106.9C91.5 104 91.4 100.6 92.4 97.4999C93.5 94.3999 95.5 92.1999 98 91.4999C98 89.2999 98 87.1999 98 84.9999C98 84.7999 98.2 84.5999 98.4 84.5999C98.5 84.5999 98.5 84.5999 98.6 84.5999C98.8 84.5999 99 84.3999 99 84.1999C99 84.0999 99 84.0999 99 83.9999C99 83.7999 99.2 83.5999 99.4 83.5999C99.8 83.5999 100.1 83.5999 100.5 83.5999C100.7 83.5999 100.9 83.7999 100.9 83.9999C100.9 84.0999 100.9 84.0999 100.9 84.1999C100.9 84.3999 101.1 84.5999 101.3 84.5999C101.4 84.5999 101.4 84.5999 101.5 84.5999C101.7 84.5999 101.9 84.7999 101.9 84.9999C101.9 87.1999 101.9 89.3999 101.9 91.4999C103.7 92.0999 105.2 93.3999 106.3 95.1999C106.7 95.7999 107 96.4999 107.3 97.1999C108.3 99.9999 108.4 103.2 107.4 106C107.3 106.2 107.3 106.5 107.5 106.7C107.6 106.9 107.8 107 108 107.1H108.1C108.2 107.1 108.3 107.1 108.4 107C108.5 106.9 108.5 106.8 108.6 106.7C108.6 106.4 108.9 106.1 109.1 105.9C109.6 105.6 110.2 105.6 110.8 105.7C111.5 105.9 112 106.2 112.6 106.6C114 107.5 115.5 108.5 117.1 109.4C118.5 110.1 120 110.7 121.5 110.7C122.6 110.7 123.8 110.4 124.6 109.7C125.6 108.9 126.1 107.5 127.2 106.9C128.1 106.4 129.3 106.5 130.1 107.2C130.8 107.7 131.2 108.7 131.8 109C132.6 109.3 133.6 108.8 134.7 108.4C136.3 107.9 137.8 107.9 139.2 108C140.5 108.1 141.8 108.3 143.1 108.7C145.3 109.3 147.2 110.3 149 111.7C151 113.3 152.7 115.2 154.5 117.1C156.8 119.5 159.2 121.7 159.7 125.4C159.9 126.6 159.9 127.9 160.6 128.3C161.1 128.6 162 128.6 162.6 128.9C163.1 129.2 163.5 129.8 163.8 130.3ZM158 147C158.2 146.6 158 146.1 157.7 145.6C157.3 144.9 156.9 144.4 156.4 143.8C155 142.3 153.4 140.8 151.6 139.5C150.8 138.9 150 138.4 149.2 137.9C149 137.8 148.7 137.8 148.5 137.9C148.3 138 148.2 138.3 148.3 138.5C148.6 139.8 149 141.1 149.3 142.4C150.1 145.3 150.9 148.4 151.4 151.5C151.7 153.3 152 155.1 152.2 156.9C152.2 157.1 152.3 157.2 152.5 157.2C152.7 157.2 152.8 157.1 152.8 156.9C152.9 155.4 153 154.1 153.1 152.6C153.1 150.7 153.1 148.6 154 147.7C154.2 147.5 154.4 147.4 154.8 147.3C155.3 147.3 155.9 147.4 156.6 147.4C157.1 147.6 157.8 147.4 158 147ZM150 117.2C150.1 117.1 150 116.9 149.9 116.8C149.5 116.6 149.1 116.3 148.8 116.1C147.1 115.2 145.1 114.6 143.1 114.5C141.3 114.3 139.5 114.5 137.8 115C136 115.5 134.2 116.5 132.7 117.7C130.5 119.4 128.7 121.7 127.2 124.1C126.7 124.9 126.2 125.7 125.8 126.5C125.7 126.6 125.8 126.8 125.9 126.9C126 127 126.2 127 126.3 126.9C127.1 126.1 127.8 125.4 128.6 124.6C130.2 123 131.8 121.4 133.5 119.8C134.9 118.5 136.4 117.2 138.1 116.6C139.7 116.1 141.5 116.1 143.2 116.2C144.7 116.4 146.1 116.6 147.5 116.9C148.3 117.1 149 117.2 149.8 117.4C149.8 117.4 149.9 117.3 150 117.2ZM149.3 162.5C149.3 160.5 149.2 158.7 149.1 156.9C148.9 153.6 148.6 150 147.9 146.4C147.4 143.6 146.7 140.9 145.6 138.4C144.8 136.6 143.7 135.1 142.2 133.8C141.4 133.1 140.4 132.5 139.4 132.1C138.7 131.8 137.9 131.7 137.1 131.5C136.5 131.4 135.9 131.4 135.3 131.3C135.1 131.3 134.9 131.4 134.9 131.6C134.8 131.8 134.9 132 135.1 132.1C135.7 132.4 136.3 132.8 136.9 133.1C138.5 134 140.1 135.1 141.4 136.4C142.5 137.5 143.3 138.7 144 140.1C145.5 143.1 146.1 146.6 146.6 150.1C146.9 152.6 147.1 155.1 147.5 157.6C147.8 159.2 148.1 160.9 148.5 162.5C148.5 162.7 148.7 162.8 148.9 162.8C149.1 162.9 149.3 162.8 149.3 162.5ZM147.6 192.3C148.6 188.2 148.2 183.9 147.7 179.6C147.1 174.9 146.3 170.3 145.8 165.6C145.3 161.1 145.1 156.5 144.2 152C143.8 150.2 143.4 148.5 142.9 146.8C142.8 146.6 142.7 146.5 142.5 146.5C142.3 146.5 142.1 146.7 142.1 146.9C141.9 150.6 141.6 154.2 141.3 157.9C140.9 163.3 140.3 168.7 140 174.1C139.8 176.4 139.7 178.6 139.7 180.9C139.6 185.6 139.6 190.3 139.8 195.1C139.9 197.4 140 199.7 140 202.1C140 202.4 140.2 202.7 140.5 202.8C140.8 202.9 141.1 202.8 141.4 202.6C142.3 201.6 143.2 200.7 144 199.6C145.7 197.4 146.9 194.9 147.6 192.3ZM131.9 180C132.2 173.2 132.4 166.4 131.4 159.6C131 156.7 130.3 153.8 128.9 151.3C128.5 150.5 128 149.8 127.5 149.1C127.4 148.9 127.2 148.9 127 149C126.8 149.1 126.7 149.3 126.8 149.5C127.2 150.5 127.5 151.5 127.7 152.6C128 153.9 128.3 
155.5 127.3 156.4C126.8 156.9 126 157.2 125.5 157C125.3 157 125.2 156.9 125 156.7C124.9 156.6 124.7 156.5 124.5 156.6C124.3 156.7 124.3 156.9 124.3 157C124.7 158.5 125.2 160 125.5 161.5C126.5 166.2 126.6 171 126.8 175.8C127.3 187.3 128.5 198.7 127.9 210.1C127.6 214.7 127.1 219.2 126.6 223.8C127.5 221.4 128.4 219 129 216.6C130.2 211.9 130.4 206.9 130.6 202C131.1 194.8 131.5 187.4 131.9 180ZM125.9 136.8C126 136.2 125.8 135.4 125.5 134.8C125 133.8 124.2 133 123.4 132.3C121.9 130.9 120.6 129.7 119.1 128.4C118.1 127.5 117 126.6 115.9 125.8C114.9 125 113.9 124.5 112.6 124.1C111.9 123.9 111.2 123.8 111 123.2C110.9 122.7 111.3 121.8 111.5 121C111.7 120.2 111.6 119.6 111.4 119C111.2 118.5 111 117.9 111.2 117.5C111.4 117.1 111.8 116.7 112.2 116.3C112.7 115.8 113 115.2 113.2 114.7C113.6 113.6 113.7 112.6 113.3 111C113 109.8 112.4 108.4 111.6 108.9C111.5 108.9 111.5 109 111.4 109.2C113.2 111.7 112.7 114.8 110.1 116.6C109.8 116.9 109.7 117.3 109.9 117.7C111.1 119.7 110.8 122 109.2 123.7C109.1 123.8 109 124 109.1 124.1C109.2 124.3 109.3 124.4 109.5 124.4C109.6 124.4 109.6 124.4 109.7 124.4C110.3 124.4 110.8 124.5 111.3 124.6C112.4 124.9 113.5 125.4 114.4 126.1C115.5 126.9 116.4 127.8 117.3 128.7C118.3 129.7 119.4 130.7 120.5 131.6C121.6 132.6 122.6 133.5 123.5 134.8C123.9 135.4 124.3 136.1 124.3 136.7C124.2 137.4 123.6 138.1 123 138.8C122 139.9 121.1 141.1 121 142.4C120.9 143.7 121.4 145.2 121.4 146.4C121.3 147.3 120.9 148 120.3 149.2C119.6 150.7 118.5 153 119.2 152.8C119.4 152.7 119.8 152.3 120.2 151.9C121 151 121.4 150.3 121.8 149.5C122.1 148.9 122.3 148.3 122.6 147.6C122.9 146.6 123.2 145.6 123.1 144.6C123.1 143.6 122.8 142.5 123 141.6C123.2 140.8 123.9 140 124.5 139.3C125.2 138.6 125.8 137.8 125.9 136.8ZM124.1 206.6C124.4 198.8 124.7 191 124 183.8C123.7 180.8 123.3 177.9 123 174.7C122.9 173.9 122.9 173 122.8 172.1C122.7 170.1 122.7 167.9 121.5 166.8C120.2 165.5 117.6 165.6 115.3 166.1C112.9 166.7 110.9 167.7 109.5 169.4C108.3 170.8 107.4 172.7 106.9 174.7C106.4 176.4 106.3 178.2 106 180C105.3 184.8 104.2 189.5 103.5 194.2C102.8 199 102.5 203.9 102.2 208.8C102.1 210.9 102 213.1 101.8 215.2C101.5 221.5 101.1 227.7 100.8 234C100.5 238.8 100.2 243.5 100.8 248.4C101.2 251.4 101.8 254.4 103.8 256.6C105.4 258.5 108 259.7 110.5 259.7C113 259.6 115.5 258.2 117.2 256.3C119.7 253.4 120.4 249.4 121 245.5C121 245.4 121 245.4 121 245.3C122 238.6 122.8 232.3 123.2 225.8C123.7 219.3 123.9 213 124.1 206.6ZM109.9 156.5C110 155.6 109.5 154.5 108.9 153.9C107.9 153 106.4 153 105 152.9C102.5 152.7 100.3 152.4 98 151.8C95.8 151.3 93.6 150.5 91.4 150C88.8 149.4 86.2 149 83.3 148.7C82.2 148.6 81.1 148.4 80 148.5C79.1 148.6 78.1 148.8 77.6 149.5C76.9 150.3 76.7 151.8 77.1 152.8C77.3 153.4 77.6 153.8 78.1 154.1C78.7 154.5 79.6 154.5 80.4 154.6C82.6 154.8 84.6 155.6 86.6 156.2C88.2 156.7 89.9 157.1 91.6 157.6C92.5 157.9 93.4 158.1 94.3 158.1C95 158.1 95.6 157.9 96.3 157.9C96.9 157.9 97.6 158.1 98 157.9C98.4 157.6 98.5 156.9 98.7 156.3C98.9 155.6 99.3 154.9 100 154.7C100.5 154.6 101.1 154.6 101.4 154.9C101.8 155.3 101.7 156 101.6 156.7C101.5 158 101.6 159 101.7 160.1C102.5 160.2 103.3 160.4 104.1 160.5C104.9 160.6 105.7 160.7 106.4 160.6C107.2 160.4 108 159.9 108.6 159.3C109.2 158.4 109.8 157.5 109.9 156.5ZM108.7 112.4C108.7 111.4 107.9 110.7 107 110.7C106.1 110.7 105.3 111.5 105.3 112.4C105.3 113.4 106.1 114.1 107 114.1C107.9 114.1 108.7 113.4 108.7 112.4ZM107.5 120.3C107.5 119.3 106.7 118.6 105.7 118.6C104.7 118.6 104 119.4 104 120.3C104 121.3 104.8 122 105.7 122C106.7 122.1 107.5 121.3 107.5 120.3ZM105.1 167.7C105.6 167.1 106 166.2 105.8 165.5C105.6 164.8 105.1 164.3 104.5 163.9C103.4 163.2 102.2 162.9 101 162.7C100.7 162.6 100.4 162.6 100.1 162.5C97.6 161.9 95 161.3 92.5 160.6C91.3 160.3 90 159.9 88.8 159.6C87.2 159.2 85.7 158.8 84.1 158.5C83.3 158.4 82.6 158.2 81.9 157.9C81.1 157.6 80.4 157.2 79.6 157.4C79.2 157.5 78.8 157.9 78.6 158.3C78.2 159.2 78.9 160.2 79.4 161.1C79.9 162.1 80.1 162.9 80.7 163.9C80.9 164.2 81.1 164.5 81.3 164.6C81.8 164.8 82.4 163.9 83 163.3C83.4 162.9 83.9 162.6 84.3 162.6C84.8 162.7 85.2 163.2 85.7 163.7C86.8 164.7 88.1 165 89.4 165.3C90.6 165.6 91.8 165.8 93 165.9C94.4 166.1 95.8 166.1 97.3 166.2C97.7 165.8 98.1 165.4 98.5 164.9C99 164.4 99.6 163.8 100.1 164C100.4 164.1 100.7 164.4 100.9 164.8C101.1 165.4 100.8 166.1 100.3 166.7C100.1 167 99.8 167.2 99.7 167.5C99.7 167.7 99.8 168 100 168.3C100.6 169.1 101.7 169.1 102.6 169C103.5 168.7 104.4 168.4 105.1 167.7ZM105.2 149.7C105.5 149 105.5 148 105.2 147.2C104.7 145.8 103.4 144.9 102 144.2C100.7 143.5 99.4 143 98 142.6C97.3 142.4 96.6 142.3 95.9 142.2C92.9 141.7 89.7 141.9 86.8 140.8C85.4 140.3 84.1 139.5 82.8 139.1C81.7 138.8 80.5 138.7 79.3 138.6C78.6 138.6 78 139 77.9 139.7C77.8 140 77.8 140.3 77.6 140.6C77.3 141.4 76.8 142.1 76.4 143.1C76 144.1 75.6 145.4 76.3 146C76.5 146.2 76.9 146.3 77.2 146.3C77.9 146.3 78.6 146 79.2 145.7C80.8 145.1 82.7 145.4 84.4 145.8C85.7 146.1 86.9 146.5 88.1 146.9C89.8 147.5 91.5 148 93.3 148C94.3 148 95.3 147.8 96.2 147.5C97 147.2 97.6 146.7 98.3 146C98.9 145.5 99.5 144.9 100.2 144.9C100.5 144.9 100.9 145.1 101.1 145.4C101.4 145.8 101.3 146.5 100.9 147C100.6 147.5 100.1 147.9 100.1 148.4C100 148.9 100.2 149.5 100.6 150C101.3 150.8 102.4 150.9 103.4 150.8C104.3 150.8 104.9 150.4 105.2 149.7ZM105.8 101.7C105.8 97.9999 103.2 94.9999 99.9 94.9999C96.6 94.9999 94 97.9999 94 101.7C94 105.4 96.6 108.4 99.9 108.4C103.2 108.4 105.8 105.5 105.8 101.7ZM100.7 139.1C101.2 138.8 101.5 138.3 101.5 137.7C101.5 130.5 101.5 123.3 101.5 116.1C101.5 115.5 101.2 115 100.7 114.7C100.2 114.4 99.6 114.4 99.1 114.7C98.6 115 98.3 115.5 98.3 116.1C98.3 123.3 98.3 130.5 98.3 137.7C98.3 138.3 98.6 138.8 99.1 139.1C99.6 139.4 100.2 139.4 100.7 139.1ZM101 91.3999C101 89.5999 101 87.7999 101 85.9999C101 85.6999 100.9 85.5999 100.6 85.5999C100.2 85.5999 99.8 85.5999 99.4 85.5999C99.1 85.5999 99 85.6999 99 85.9999C99 87.7999 99 89.5999 99 91.3999C99.7 91.1999 100.4 91.1999 101 91.3999ZM95.5 136.2C96.2 135.6 96.5 134.6 96.5 133.7V133.6C96.5 132.9 96.2 132.3 95.8 131.8C95.5 131.5 95.1 131.2 94.7 131C93.4 130.4 91.8 130.3 90.3 130.4C87.9 130.5 85.6 130.8 83.2 131.7C81.5 132.4 79.8 133.3 79.1 134.8C78.9 135.3 78.7 135.9 78.7 136.5C78.7 136.7 78.8 136.8 78.9 136.9C79 137 79.2 137 79.3 136.9C79.4 136.8 79.6 136.7 79.7 136.6C80.2 136.3 80.8 136.2 81.4 136.1C82.6 135.9 83.7 135.8 84.9 135.9C86.9 136 89.3 136.2 91.1 136.7C91.9 137 92.6 137.3 93.5 137.2C94.2 137 95 136.7 95.5 136.2ZM96.3 121.2C96.3 120.2 95.5 119.5 94.6 119.5C93.6 119.5 92.9 120.3 92.9 121.2C92.9 122.2 93.7 122.9 94.6 122.9C95.5 123 96.3 122.2 96.3 121.2ZM95 113.3C95 112.3 94.2 111.6 93.2 111.6C92.2 111.6 91.5 112.4 91.5 113.3C91.5 114.3 92.3 115.1 93.2 115.1C94.2 115 95 114.3 95 113.3ZM80.8 246.5C81.6 243.1 81.4 239.6 81.2 236.1C80.8 228.2 80.8 220.5 80.5 212.7C80 202.6 78.9 192.4 78.5 182.3C78.3 178.1 78.3 174 78.2 169.8C76.3 170.3 74.4 170.9 72.4 171.2C70.1 171.5 67.8 171.6 65.7 170.8C64.3 170.3 63.1 169.5 61.8 168.6C61.3 173.4 60.8 178.3 60.3 183.1C59.3 191.8 58.2 200.5 57.6 209.3C57 218.6 57 227.9 57.2 237.2C57.3 242.3 57.5 247.4 59.2 252.5C59.8 254.4 60.7 256.3 62.2 257.4C63.5 258.4 65.4 258.8 67.1 258.8C70.4 258.8 73.4 257.3 75.8 255.2C78.2 252.8 80 249.7 80.8 246.5ZM79.3 166.6C79.3 166.5 79.2 166.3 79.1 166.3C78.7 166.1 78.3 166 77.9 165.7C76.8 165 75.8 164 75.4 162.8C74.9 161.2 75.3 159.5 75.7 157.7C75.8 157.3 75.8 156.9 75.7 156.6C75.5 155.9 74.7 155.5 74.2 155C73.3 154.2 72.9 153 73.1 151.9C73.2 151.1 73.6 150.4 73.8 149.7C74.1 148.7 74.1 147.6 74.1 146.4C74.1 146 73.9 145.7 73.6 145.4C73.3 145.2 72.9 145 72.6 145.1C72 145.2 71.5 145.3 71 145.5C69.8 146 68.8 147.3 68 148.5C66.2 151.4 65.1 154.4 64 157.4C63.3 159.5 62.6 161.7 61.8 163.8C61.6 164.4 61.8 165.1 62.4 165.4C62.8 165.7 63.3 166 63.7 166.2C64.7 166.6 65.7 166.9 66.8 167C67.4 167 68.1 167 68.7 167C68.9 167 69.1 166.9 69.2 166.7C69.3 166.5 69.3 166.3 69.2 166.1C69.1 165.9 69 165.8 69 165.6C68.5 164.4 68.3 163.1 68.2 161.7C68.2 160.8 68.1 159.8 68.5 159C68.7 158.5 69.1 158.1 69.4 158.1C70.1 158 70.3 160.4 70.5 162C70.7 163.3 71 164.2 71.4 165.1C71.7 165.9 72.2 166.7 72.9 167.2C73.7 167.7 75 167.7 76 167.5C76.6 167.4 77.1 167.2 77.6 167.1C78 167 78.5 166.9 78.9 166.9C79.2 166.9 79.3 166.8 79.3 166.6ZM74.5 108.7C74.1 107.7 73.7 106.7 73 106C71.8 104.7 69.9 104.2 68.3 103.4C67 102.7 65.9 101.8 64.9 101C64.2 100.4 63.6 99.7999 62.8 99.0999C62.5 98.7999 62.1 98.4999 61.8 98.5999C61.5 98.6999 61.1 99.0999 61.1 99.5999C60.9 100.6 62 101.3 62.9 101.9C63.9 102.6 64.6 103.2 65.4 103.6C66.2 104.1 67.2 104.4 68.2 104.8C69.4 105.3 70.6 105.9 71.7 106.6C72.7 107.2 73.6 107.9 74.5 108.7ZM65.7 143.4C66 143.2 66.1 142.6 66 142.3C65.8 141.6 64.8 141.4 63.9 141.4C62.9 141.4 62 141.7 61.4 142.1C61.1 142.3 60.9 142.5 60.5 142.7C59.9 143 59 143 58.7 142.7C58.4 142.4 58.4 141.7 58.5 141.1C58.5 140.7 58.5 140.4 58.4 140.1C58 138.6 55.7 138 53.7 137.7C51.5 137.4 49.6 137.7 47.8 138.4C45.4 139.4 43.1 141.3 41.6 143.7C40.4 145.7 39.8 148 39.4 149.9C39 151.7 38.8 153.2 38.6 155.5C38.5 157.3 38.5 159.7 39 160.1C39.2 160.3 39.6 160.1 39.8 159.5C40.2 158.7 40.3 157.1 40.3 155.7C40.3 154.7 40.3 153.9 40.5 153C40.8 152.2 41.3 151.4 41.7 151.3C42.4 151.2 42.3 154 42.2 156.3C42.1 159.4 41.9 161.4 41.7 163.6C41.4 166.4 41 169.6 40.7 172.8C40.4 176.4 40.4 179.8 40.6 183.3C40.6 184.6 40.7 185.8 40.8 187.1C40.8 187.3 41 187.5 41.2 187.5C41.4 187.5 41.6 187.3 41.6 187.1C41.7 185.1 41.9 183.1 42 181C42.3 177.3 42.7 173.7 42.9 169.9C43.1 167.1 43.3 164.2 44.1 161.6C44.5 160.5 44.9 159.5 45.6 158.5C46.1 157.7 46.7 156.9 47.6 156.7C48.2 156.6 49 156.8 49.4 157.2C50.6 158.2 50 160.3 49.6 162.3C48.7 166.3 48.6 169.7 48.5 173C48.3 177.8 48.1 182.4 47.8 186.9C47.6 190 47.3 193 47.3 196.3C47.3 199.8 47.8 203.6 48.6 207.1C48.6 207.3 48.8 207.4 49 207.4C49.2 207.4 49.4 207.2 49.4 207C49.8 200.6 50.1 194.3 50.4 187.9C50.8 180.2 51.2 172.5 52.3 164.7C52.9 160.6 53.7 156.4 55.3 152.7C56.3 150.3 57.7 148.1 59.7 146C60.7 144.9 61.8 143.9 62.9 143.5C63.3 143.3 63.8 143.2 64.4 143.3C64.8 143.5 65.4 143.6 
65.7 143.4ZM43.8 135.2C43.8 134.4 43.8 133.6 43.7 132.9C43.6 131.9 43.4 131 43.1 130.1C42.6 128.8 41.9 127.5 40.9 126.3C39.2 124.3 36.9 122.7 34.3 121.8C31.5 120.8 28.3 120.8 25.4 121.4C24.8 121.5 24.2 121.7 23.6 121.9C23.4 122 23.3 122.2 23.3 122.4C23.3 122.6 23.5 122.7 23.7 122.7C25.3 122.5 26.9 122.5 28.5 122.5C31.1 122.6 33.8 123.2 36 124.6C37.8 125.7 39.2 127.5 40.4 129.3C41.2 130.5 41.9 131.7 42.3 133C42.6 133.7 42.7 134.4 42.9 135.2C42.9 135.4 43.1 135.5 43.3 135.5C43.6 135.6 43.8 135.4 43.8 135.2Z" fill="#fff"/>
<path d="M142.7 52.7999C143.1 56.8999 143.1 60.2999 142.4 63.7999C142 65.8999 141.3 67.8999 140.1 69.6999C139.2 70.9999 138.1 72.0999 136.8 72.6999C135.7 73.1999 134.5 73.3999 133.1 73.3999C132.2 73.3999 131.1 73.2999 130.6 73.7999C130.2 74.1999 130.1 75.0999 130.2 75.8999C130.3 76.4999 130.6 76.8999 130.9 77.3999C131.5 78.7999 131.6 80.4999 131.1 81.8999C130.4 83.6999 128.5 84.7999 126.8 85.5999C124.9 86.4999 123 87.0999 120.5 86.7999C118.1 86.4999 115 85.3999 114.3 83.9999C114 83.2999 114.1 82.5999 114.3 81.7999C114.7 80.2999 115.5 78.6999 116.1 77.0999C116.7 75.4999 117.1 73.7999 117.2 72.0999C117.2 71.7999 117.3 71.4999 117.3 71.1999C117.6 67.4999 117 63.5999 115.9 59.9999C115.3 58.0999 114.6 56.2999 113.9 54.6999C113.5 53.8999 113.1 53.1999 112.8 52.3999C111.7 49.3999 112.2 45.6999 113.5 42.2999C114.1 40.5999 115 38.8999 115.2 37.1999C115.5 35.1999 115 33.0999 114.8 30.9999C114.7 29.2999 114.7 27.5999 115.5 26.0999C116 25.0999 116.8 24.1999 117.7 23.5999C118.5 22.9999 119.4 22.6999 120.4 22.5999C121.6 22.3999 122.8 22.4999 124.1 22.6999C125.6 22.9999 127 23.6999 127.9 24.8999C128.1 25.0999 128.2 25.3999 128.3 25.6999C128.9 27.0999 128.9 28.9999 128.5 30.5999C128 32.5999 126.8 33.9999 125.4 35.0999C124.3 35.8999 123.1 36.4999 121.7 37.3999C121.3 37.5999 120.9 37.8999 120.8 38.1999C120.5 38.8999 122 39.6999 123.2 40.1999C123.9 40.4999 124.4 40.6999 124.6 41.1999C124.7 41.4999 124.7 41.7999 124.6 42.0999C124.4 42.5999 123.9 42.9999 123.3 42.9999C122.6 43.0999 121.8 42.6999 121.4 42.9999C121.1 43.1999 121 43.7999 121 44.2999C121 45.0999 121.4 45.8999 122.2 46.1999C123.3 46.4999 125.1 45.9999 125.5 46.6999C125.9 47.0999 125.5 48.0999 125 48.4999C124.7 48.6999 124.4 48.6999 124.1 48.6999C122.5 48.7999 121.1 48.8999 119.5 48.4999C118.8 48.2999 118.1 48.0999 117.6 48.4999C117.1 48.8999 116.8 49.8999 117.1 50.3999C117.4 50.9999 118.3 50.9999 119 51.0999C120.2 51.1999 121.1 51.1999 122.2 51.1999C122.7 51.1999 123.2 51.1999 123.5 50.8999C123.7 50.6999 123.8 50.4999 124 50.3999C124.5 50.1999 125.7 50.5999 125.9 51.2999C125.9 51.3999 125.9 51.3999 125.9 51.4999C126 52.0999 125.4 52.8999 124.7 53.1999C124.2 53.3999 123.8 53.3999 123.2 53.2999C122.8 53.1999 122.3 53.0999 122 53.3999C121.6 53.6999 121.6 54.4999 121.8 54.8999C122.1 55.5999 123 55.6999 123.8 55.5999C124 55.5999 124.1 55.5999 124.3 55.4999C124.8 55.3999 125.3 55.1999 125.6 55.2999C125.9 55.3999 126.1 55.7999 126.1 56.0999C126 56.5999 125.5 56.9999 124.9 57.1999C124.3 57.3999 123.7 57.3999 123 57.4999C122.6 57.5999 122.1 57.7999 122 58.1999C121.8 58.5999 122.1 59.1999 122.4 59.4999C123 59.8999 123.8 59.3999 124.5 59.6999C125 59.8999 125.4 60.3999 125.4 60.8999C125.4 61.4999 124.7 61.8999 123.9 61.9999C123.2 62.0999 122.5 61.7999 122.3 62.1999C122.1 62.4999 122.2 63.0999 122.5 63.3999C123 63.7999 123.9 63.5999 124.3 63.8999C124.6 64.1999 124.6 64.7999 124.5 65.3999C124.5 65.7999 124.5 66.1999 124.3 66.4999C124.1 66.8999 123.5 67.1999 123.2 67.5999C122.9 67.9999 122.8 68.5999 122.8 69.0999C122.8 70.2999 123.1 71.2999 124 72.1999C124.4 72.4999 124.8 72.8999 125.2 72.7999C125.8 72.6999 126 71.4999 126.6 70.9999C127.2 70.3999 128.1 70.6999 129.1 70.5999C129.9 70.5999 130.8 70.2999 131 69.7999C131.3 69.0999 130.2 67.9999 129.1 67.5999C128.2 67.2999 127.4 67.5999 126.9 67.1999C126.4 66.7999 126.3 65.5999 126.6 64.7999C126.9 63.7999 127.9 63.2999 128.8 62.9999C128.8 62.9999 128.8 62.9999 128.9 62.9999C129.6 62.7999 130.4 62.6999 131.1 62.3999C131.5 62.2999 131.9 62.0999 132.1 61.5999C132.5 60.7999 132.3 59.1999 131.8 59.0999C131.4 58.9999 130.7 60.1999 129.9 60.3999C129.4 60.4999 128.8 60.1999 128.5 59.7999C128.1 59.0999 128.6 57.9999 129.2 57.4999C129.5 57.2999 129.8 57.1999 130.2 57.0999C130.8 56.9999 131.7 57.0999 131.8 56.8999C131.9 56.5999 131.2 55.8999 130.4 55.6999C129.3 55.4999 128.3 56.3999 127.9 55.8999C127.7 55.6999 127.7 55.0999 127.9 54.6999C128.3 53.8999 129.3 53.6999 130.2 53.5999C131.5 53.4999 132.4 53.3999 133.8 53.4999C134.7 53.4999 135.8 53.5999 136.2 52.9999C136.5 52.4999 136.3 51.5999 135.9 51.1999C135.5 50.8999 135 50.8999 134.5 50.9999C133.3 51.0999 132.6 51.1999 131.2 51.3999C129.6 51.5999 127.2 51.9999 127.2 51.2999C127.2 50.9999 127.8 50.3999 128.3 49.9999C129 49.3999 129.5 49.0999 130.1 48.5999C130.6 48.1999 131.1 47.5999 130.9 47.0999C130.8 46.8999 130.6 46.5999 130.4 46.5999C130 46.4999 129.6 46.6999 129.2 46.5999C128 46.4999 126.6 44.4999 127 44.1999C127.3 43.8999 128.6 44.5999 129.5 44.3999C130.1 44.2999 130.5 43.7999 130.7 43.2999C131 42.3999 130 41.4999 129 40.5999C128 39.6999 126.9 38.9999 126.9 38.0999C126.9 37.2999 128 36.4999 128.9 35.6999C130.2 34.5999 131.2 33.6999 131.6 32.3999C132.1 30.7999 131.8 28.7999 131 27.0999C130.7 26.4999 130.4 25.9999 130.1 25.4999C129.5 24.5999 128.9 23.8999 128.2 23.0999C128.1 22.9999 128.1 22.6999 128.2 22.5999C128.3 22.4999 128.5 22.3999 128.7 22.4999C130.6 23.3999 132.5 24.2999 134.3 25.4999C136.2 26.7999 138 28.3999 139.1 30.3999C140.4 32.7999 140.9 35.8999 140.1 38.3999C139.8 39.2999 139.3 40.0999 138.9 41.0999C138.5 41.9999 138.3 42.9999 138.6 43.7999C138.9 44.4999 139.7 45.0999 140.4 45.6999C141.9 47.1999 142.4 50.0999 142.7 52.7999Z" fill="#fff"/>
<path d="M121.1 190.5C121.1 196.5 121 202.5 120.9 208.5C120.6 215.6 120.3 222.7 120.1 229.6C119.9 234.5 119.7 239.4 118.8 244.6C118.3 247.7 117.6 250.9 115.2 252.4C113.6 253.4 111.4 253.7 109.6 253.1C108.1 252.5 106.9 251.2 106.1 249.8C104.7 247.1 104.8 243.8 104.8 240.6C104.9 234.6 104.9 228.7 105.1 222.7C105.2 219.6 105.4 216.6 105.6 213.5C106.1 206.8 106.7 200.1 107.2 193.7C107.6 189.4 107.9 185.3 108.4 180.6C108.8 177.2 109.3 173.5 111.8 170.7C113.1 169.3 114.8 168.1 116.5 168.5C117.6 168.7 118.6 169.6 119.3 170.7C120.1 172 120.4 173.4 120.5 174.8C120.5 175.3 120.6 175.8 120.6 176.2C120.9 181.1 121 185.8 121.1 190.5Z" fill="#fff"/>
<path d="M120.1 20.3999C120.2 20.3999 120.2 20.4999 120.2 20.5999C120.2 20.6999 120.1 20.7999 120 20.7999C118.8 20.8999 117.6 20.8999 116.6 21.2999C115.1 21.7999 113.8 22.7999 113 24.0999C112.4 24.9999 112.1 26.0999 111.9 27.1999C111.5 29.2999 111.5 31.2999 111.8 33.4999C112.1 35.4999 112.5 37.3999 112 39.1999C111.5 40.6999 110.3 41.9999 110 43.4999C109.8 44.2999 109.9 45.0999 110 45.9999C110 46.1999 109.9 46.3999 109.8 46.3999C109.6 46.4999 109.4 46.3999 109.3 46.2999C108.8 45.6999 108.3 45.0999 107.7 44.4999C106.5 43.2999 104.9 42.1999 103.4 41.2999C101.1 39.8999 98.9 38.8999 96.6 38.1999C95.3 37.7999 94 37.5999 92.2 37.4999C91 37.3999 89.5 37.4999 89.4 36.9999C89.4 36.8999 89.4 36.7999 89.4 36.7999C89.6 36.4999 90.5 36.9999 91.2 36.4999C91.6 36.1999 91.9 35.4999 91.7 35.0999C91.5 34.6999 91 34.5999 90.5 34.4999C89.6 34.3999 88.9 34.6999 88.2 34.1999C87.9 33.8999 87.5 33.4999 87.6 33.2999C87.7 32.9999 88.2 32.9999 88.6 32.8999C89.8 32.6999 90.5 32.8999 91.7 33.0999C93 33.3999 94.8 33.7999 95 32.8999C95.1 32.5999 95 31.9999 94.7 31.6999C94.4 31.1999 93.8 31.0999 93.3 30.8999C91.9 30.5999 90.7 30.7999 89.1 30.6999C88.4 30.5999 87.5 30.4999 87.4 29.8999C87.3 29.4999 87.6 28.6999 88 28.4999C88.4 28.2999 89 28.6999 89.6 28.5999C90.1 28.4999 90.6 27.8999 90.6 27.2999C90.6 26.6999 90.3 26.1999 89.9 25.7999C88.9 24.9999 87.6 25.6999 85.7 25.5999C84.8 25.5999 83.7 25.2999 83.8 24.8999C83.8 24.5999 84.6 24.1999 85.2 24.0999C86.2 23.7999 86.9 23.9999 87.7 24.0999C88.1 24.0999 88.5 24.0999 89 23.8999C89.7 23.5999 90.4 22.9999 90.1 22.4999C89.9 22.1999 89.4 21.9999 88.9 21.8999C88.1 21.6999 87.6 21.8999 86.6 21.8999C85.8 21.7999 84.7 21.5999 84.7 21.2999C84.6 21.0999 85.5 20.8999 86.2 20.7999C87.4 20.5999 88.3 20.3999 89.6 20.2999C90.4 20.2999 91.4 20.2999 91.6 19.7999C91.8 19.3999 91.5 18.7999 91.1 18.3999C90.6 17.9999 89.8 18.0999 89.2 18.0999C88.2 18.1999 87.4 18.2999 86.4 17.9999C85.8 17.7999 85.1 17.4999 85 16.8999C85 16.6999 85 16.4999 85 16.2999C85.2 15.8999 86 16.1999 86.7 16.2999C87.3 16.3999 88 16.3999 88.1 15.9999C88.2 15.6999 88.1 15.2999 87.8 14.9999C87.4 14.3999 86.5 14.3999 85.7 14.4999C85.4 14.4999 85.1 14.5999 84.8 14.4999C84.5 14.2999 84.4 13.7999 84.5 13.3999C84.5 13.2999 84.6 13.1999 84.7 13.0999C85.3 12.4999 86.3 12.7999 87.2 12.8999C88.1 12.9999 88.9 12.9999 89.7 12.8999C89.9 12.8999 90.2 12.7999 90.3 12.6999C90.7 12.2999 90.6 11.2999 90.1 10.9999C89.9 10.8999 89.5 10.8999 89.2 10.9999C88 11.1999 86.8 11.4999 85.5 11.6999C84.7 11.7999 83.8 11.8999 83.1 11.3999C82.8 11.1999 82.6 10.8999 82.5 10.5999C82.4 10.3999 82.4 10.1999 82.5 9.9999C82.6 9.7999 82.9 9.5999 83.3 9.4999C83.9 9.3999 84.4 9.7999 84.9 9.6999C85.5 9.5999 86.1 8.8999 86 8.3999C85.9 8.0999 85.5 7.7999 85.1 7.5999C84.3 7.2999 83.7 7.4999 82.9 7.6999C82.2 7.7999 81.3 7.8999 81 7.2999C80.9 7.0999 80.9 6.8999 80.9 6.7999C81 6.1999 82.1 6.4999 82.9 6.4999C83.7 6.4999 84.2 6.3999 84.7 5.8999C85.1 5.4999 85.5 4.8999 85.5 4.1999C85.5 3.3999 85 2.5999 84.7 1.9999C84.6 1.7999 84.5 1.6999 84.4 1.4999C84.3 1.2999 84.3 1.0999 84.4 0.899902C84.5 0.699902 84.7 0.599903 84.9 0.599903C85.6 0.599903 86.2 0.499903 86.9 0.499903C88.8 0.399903 90.7 0.399902 92.7 0.399902C95.7 0.499902 98.7 0.899903 101.5 1.9999C104.8 3.2999 107.7 5.5999 110.6 7.8999C113 9.7999 115.4 11.5999 116.5 14.3999C117 15.6999 117.2 17.2999 118.1 18.2999C118.3 19.4999 119.2 19.9999 120.1 20.3999Z" fill="#fff"/>
<path d="M114.2 61.8998C115 64.6998 115.6 67.8998 115.4 70.7998C115.4 71.1998 115.3 71.5998 115.3 71.9998C114.9 74.4998 113.9 76.8998 113 79.2998C112.6 80.2998 112.2 81.3998 112.1 82.4998C111.9 84.2998 112.3 86.1998 112.1 88.0998C111.9 89.6998 111.3 91.2998 110.6 92.8998C110.3 93.4998 110 94.1998 109.8 94.7998C109.6 95.0998 109.3 95.2998 108.9 95.1998C108.7 95.1998 108.6 95.0998 108.4 94.8998C108.2 94.6998 108.2 94.5998 108.2 94.3998C108.2 93.3998 108.1 92.2998 107.8 91.2998C107.4 89.7998 106.6 88.2998 106.5 86.7998C106.4 85.4998 106.8 84.1998 107.2 82.9998C108 80.2998 109 77.7998 110.1 75.3998C110.6 74.1998 111.3 73.0998 112 71.7998C112.6 70.7998 113.3 69.7998 112.9 68.7998C112.8 68.4998 112.6 68.2998 112.4 68.1998C111.8 67.7998 110.9 68.6998 110.3 69.4998C110.3 69.4998 110.3 69.4998 110.2 69.5998C109.5 70.4998 109.1 71.0998 108 71.2998C107.1 71.4998 105.8 71.5998 105.8 70.9998C105.8 70.5998 106.3 69.9998 106.2 69.5998C106.1 69.0998 105.2 68.9998 104.5 69.0998C103.9 69.2998 103.6 69.6998 103.2 69.8998C102.5 70.2998 101.5 70.2998 100.6 70.0998L100.9 68.1998C101.4 68.2998 102 68.2998 102.5 68.1998C103.4 67.9998 104.3 67.5998 105 67.1998C105.3 66.9998 105.6 66.7998 105.9 66.4998C106.1 66.2998 106.2 66.0998 106.3 65.8998C106.4 65.4998 106 65.1998 105.7 64.7998C105.3 64.4998 105 64.1998 104.6 64.1998C104.4 64.1998 104.2 64.3998 104.1 64.4998C103.8 64.8998 103.8 65.3998 103.6 65.7998C103.3 66.2998 102.7 66.4998 102 66.5998C101.3 66.6998 100.6 66.4998 100.1 66.0998C99.7 65.7998 99.4 65.2998 99.3 64.6998C99.2 64.0998 99.1 63.3998 98.8 63.2998C98.6 63.1998 98.4 63.3998 98.1 63.5998L97 62.1998C97.5 62.1998 97.9 62.0998 98.3 61.8998C98.9 61.5998 99.6 60.9998 100.4 60.5998C101.9 59.8998 103.8 59.7998 105.2 59.9998C106.4 60.1998 107.3 60.4998 108.7 61.2998C109.7 61.8998 111 62.7998 111.2 62.1998C111.3 61.9998 111.2 61.4998 111.1 61.0998C110.8 60.0998 110 59.5998 109.2 59.0998C108.4 58.5998 107.6 58.2998 106.8 58.0998C105.5 57.7998 104 57.6998 102.6 57.8998L102.3 55.8998C102.6 55.7998 102.9 55.7998 103.2 55.6998C103.6 55.4998 104.1 55.3998 104.3 55.0998C104.7 54.4998 103.5 53.3998 102.5 52.6998C101.8 52.1998 101.2 51.9998 100.7 51.7998C100 51.5998 99.3 51.2998 98.3 51.1998C98 51.1998 97.8 51.1998 97.6 51.0998C97 50.7998 97.8 49.7998 98.4 49.0998C99.2 48.2998 99.7 47.9998 100.1 47.2998C100.3 46.8998 100.4 46.2998 100.4 45.7998C100.4 44.4998 99.5 43.8998 98.2 43.1998C97.3 42.6998 96.2 42.2998 95.2 41.9998C94.1 41.6998 93.2 41.5998 92.2 41.4998C91.5 41.3998 90.8 41.3998 90 41.2998C89.3 41.2998 88.6 41.2998 88.4 41.1998C87.5 41.0998 91 40.4998 93.6 40.5998C96.8 40.5998 98.8 41.4998 100.6 42.2998C102.7 43.2998 104.5 44.1998 106 45.6998C108.6 48.0998 110.4 51.9998 111.9 55.5998C112.7 57.5998 113.5 59.5998 114.2 61.8998ZM109.1 65.6998C109.4 65.4998 109.6 65.1998 109.6 64.9998C109.6 64.6998 109.2 64.3998 108.8 64.1998C108.3 63.7998 107.8 63.5998 107.3 63.2998C106.9 62.9998 106.5 62.7998 105.9 62.5998C105.4 62.3998 104.7 62.2998 104.5 62.6998C104.4 62.8998 104.4 63.1998 104.5 63.3998C104.7 63.6998 105 63.7998 105.3 63.9998C105.7 64.2998 106 64.5998 106.4 64.9998C106.5 65.0998 106.5 65.0998 106.6 65.1998C106.9 65.4998 107.3 65.7998 107.8 65.8998C108.2 65.9998 108.7 65.9998 109.1 65.6998ZM102.6 64.6998C102.6 64.0998 102.1 63.5998 101.5 63.5998C100.9 63.5998 100.4 64.0998 100.4 64.6998C100.4 65.2998 100.9 65.7998 101.5 65.7998C102.1 65.7998 102.6 65.2998 102.6 64.6998Z" fill="#fff"/>
<path d="M102.3 56L102.6 58C102.5 58 102.3 58 102.2 58.1C101.1 58.3 100 58.7 99 59.1C98.6 59.3 98.2 59.4 97.7 59.6C97 59.8 96.2 59.9 95.9 60.6C95.6 61.1 95.6 61.9 96.1 62.2C96.3 62.3 96.6 62.4 96.8 62.4C96.9 62.4 97 62.4 97 62.4L98.1 63.8C98 63.9 98 63.9 97.9 64C97.7 64.2 97.5 64.5 97.2 64.8C96.8 65.3 96.4 65.8 96.5 66.2C96.6 66.5 97 66.7 97.4 67C98.1 67.4 98.8 67.8 99.5 68.1C99.9 68.3 100.3 68.4 100.8 68.4L100.5 70.3C100.4 70.3 100.2 70.2 100.1 70.2C98.6 69.8 97.3 69 96 67.9C95.5 67.5 95.1 67.1 94.7 67C94.2 66.8 93.7 67 93.4 67.3C92.6 68.2 92.7 70.4 93 72.3C93.4 74.9 94.2 77 95.3 79C96 80.2 96.9 81.4 97.3 82.8C97.5 83.5 97.5 84.3 97.4 85.1C97.3 85.8 97.1 86.5 96.7 87.1C96.3 87.7 95.9 88.2 95.3 88.4C94.6 88.7 93.7 88.5 92.8 88.2C92.3 88 91.8 87.8 91.4 87.9C91.1 88 90.8 88.2 90.4 88.2C90 88.2 89 88.1 89 88C88.9 87.8 90.1 87.5 90.6 87.1C90.9 86.9 91 86.6 91.2 86.4C91.6 86.1 92.7 86.5 93.7 86.7C94.3 86.8 94.9 86.8 95.3 86.6C95.8 86.3 96.2 85.7 96.4 85.1C96.6 84.5 96.6 83.9 96.3 83C96.1 82.3 95.9 81.5 95.4 81.5C95.2 81.5 94.9 81.8 94.7 82.1C94.5 82.6 94.6 83.1 94.6 83.6C94.6 84.2 94.3 84.7 93.7 85C93.3 85.3 92.7 85.4 92.5 85.3C92.1 85.1 92.6 84.1 92.9 83.4C93.1 83.1 93.3 82.8 93.3 82.5C93.4 81.9 92.8 81.3 92.4 80.6C91.2 79.1 90.3 77.7 89.8 76.1C89.1 74 89.1 71.6 89.3 69.2C89.4 66.9 89.7 64.8 90.7 62.8C91.6 60.9 93 59.1 94.9 58C96.4 57 98.2 56.5 99.9 56.2C100.6 56.2 101.4 56.2 102.3 56Z" fill="#000"/>
<path d="M99.9 104.8C101.391 104.8 102.6 103.412 102.6 101.7C102.6 99.9878 101.391 98.5999 99.9 98.5999C98.4088 98.5999 97.2 99.9878 97.2 101.7C97.2 103.412 98.4088 104.8 99.9 104.8Z" fill="#fff"/>
<path d="M91.3 92.9998C92 93.0998 92.6 93.0998 93.8 92.9998C91.9 94.8998 90.6 97.2998 90.2 99.8998C90.2 100.2 90 100.4 89.8 100.5C89.6 100.6 89.3 100.6 89.1 100.6C88.6 100.4 88.1 100.2 87.6 100.1C86.5 99.8998 85.5 99.8998 84.5 99.7998C83.3 99.5998 82.1 98.9998 80.5 97.9998C78.8 96.8998 76.6 95.3998 76.9 94.5998C77.1 94.0998 78.2 93.8998 79.1 93.6998C80.3 93.4998 81.4 93.3998 82.4 93.3998C83.8 93.2998 85.2 93.2998 86.8 93.5998C87.5 93.6998 88.1 93.8998 88.6 93.5998C88.9 93.3998 89.1 92.9998 89.5 92.8998C90.1 92.6998 90.7 92.8998 91.3 92.9998Z" fill="#fff"/>
<path d="M91.5 106.5C91.6 106.6 91.5 106.7 91.5 106.8C91.5 106.9 91.4 107 91.2 107C90.8 107.1 90.4 107.3 90.1 107.4C89.5 107.7 88.9 108.2 88.4 108.7C88 109.1 87.8 109.5 87.5 110.1C87.4 110.4 87.3 110.7 87.1 110.7C86.8 110.8 86.5 110.4 86.3 110C86 109.3 86.4 108.6 86.8 108C87.3 107.3 87.7 106.8 88.3 106.3C88.5 106.1 88.7 106 88.9 105.8C89 105.7 89.1 105.6 89.1 105.4C89 104.6 89 103.8 88.9 103.1C88.9 102.9 88.7 102.7 88.5 102.7C87.2 102.7 85.9 102.8 84.6 102.9C84.3 102.9 84.1 102.6 84 102.3C84 102 84.2 101.7 84.5 101.7C85.5 101.7 86.5 101.7 87.5 101.6C88.4 101.6 89.3 101.5 90.2 101.5C90.3 101.5 90.4 101.5 90.5 101.6C90.6 101.7 90.6 101.8 90.6 101.9C90.6 103.6 90.9 105.1 91.5 106.5Z" fill="#fff"/>
<path d="M86.3 86.4999C86.7 86.8999 87.1 87.3999 86.9 87.6999C86.8 87.9999 85.9 87.9999 85.3 87.7999C84.7 87.5999 84.3 87.1999 83.9 87.0999C83.5 86.9999 83.1 87.0999 82.7 86.8999C82.2 86.6999 81.8 86.1999 81.8 85.6999C81.8 85.2999 82 84.7999 82.3 84.5999C82.7 84.3999 83.2 84.5999 83.7 84.7999C83.8 84.8999 83.9 84.8999 84 84.9999C84.3 85.1999 84.6 85.2999 84.8 85.4999C85.3 85.6999 85.8 85.9999 86.3 86.4999Z" fill="#fff"/>
<path d="M85.7 33.7999C86.1 34.0999 86.2 34.7999 86 35.2999C85.7 35.8999 84.7 36.0999 83.8 36.2999C82.7 36.5999 81.7 36.9999 80.7 37.4999C78.6 38.4999 76.8 39.7999 75.2 41.1999C73 43.1999 71.2 45.5999 69.4 48.0999C67.1 51.2999 64.8 54.5999 62.4 57.6999C61.7 58.4999 61.1 59.2999 60.4 60.0999L58.7 59.1999H58.8C59.1 58.9999 59.5 57.3999 59.7 56.0999C60 54.2999 60 52.9999 60.2 51.5999C60.5 49.5999 61.4 47.2999 61.3 45.0999C61.2 42.5999 59.9 39.9999 60.3 37.6999C60.5 36.6999 61 35.7999 61.4 34.8999C62 33.4999 62.6 31.9999 62.3 30.5999C62.1 29.4999 61.3 28.4999 60.8 27.3999C60.1 25.8999 59.7 23.9999 58.6 23.0999C58 22.5999 57.2 22.3999 56.4 22.2999C56.1 22.2999 55.9 22.0999 55.8 21.8999C55.7 21.6999 55.7 21.3999 55.8 21.1999C56.3 19.9999 56.9 18.7999 57.4 17.6999C58.8 14.8999 60.2 12.2999 62.2 9.8999C64.3 7.2999 67 4.9999 70.1 3.6999C72.2 2.7999 74.5 2.1999 77.1 1.8999C78.2 1.7999 79.5 1.5999 80.5 1.8999C81.9 2.1999 83.1 3.0999 82.9 4.1999C82.8 4.6999 82.4 5.2999 81.9 5.7999C81.2 6.3999 80.2 6.5999 79.3 6.7999C78.1 6.9999 77 6.8999 75.5 7.2999C74.4 7.5999 73.2 7.9999 73.1 8.2999C72.9 8.7999 75.5 8.8999 77.5 8.7999C78.2 8.7999 78.8 8.6999 79 9.0999C79.1 9.3999 78.7 10.1999 78.8 10.4999C78.9 10.9999 80.5 9.9999 81.3 10.3999C81.6 10.4999 81.7 10.7999 81.8 11.0999C81.9 11.3999 81.8 11.6999 81.7 11.8999C81.6 12.0999 81.3 12.1999 81.1 12.2999C80 12.5999 78.9 12.5999 77.3 12.9999C75.3 13.5999 72.5 14.8999 73.1 15.2999C73.4 15.4999 74.4 15.4999 75.2 15.3999C76.8 15.1999 77.6 14.6999 79.2 14.3999C80.5 14.0999 82.2 13.8999 82.3 14.5999C82.3 14.8999 82.1 15.2999 81.7 15.5999C81 16.1999 79.9 16.2999 79 16.4999C78.1 16.7999 77.3 17.1999 77.3 17.3999C77.2 17.7999 79.4 17.5999 81.3 17.8999C82.2 17.9999 83 18.2999 83.1 18.8999C83.2 19.2999 83 19.6999 82.7 20.0999C81.9 21.0999 80.6 20.8999 79 20.8999C77.2 20.9999 75.1 21.4999 74.9 21.9999C74.6 22.5999 78.2 23.0999 80.9 23.0999C81.6 23.0999 82.3 22.9999 82.6 23.3999C82.9 23.7999 82.8 24.6999 82.4 24.9999C82 25.3999 81.2 25.1999 80.5 25.4999C80.1 25.6999 79.8 25.9999 79.7 26.2999C79.5 26.7999 79.8 27.2999 80.3 27.4999C81.4 27.9999 83.4 27.7999 84.8 27.8999C85 27.8999 85.2 27.8999 85.3 27.9999C85.8 28.1999 85.8 28.9999 85.5 29.4999C85.1 29.9999 84.4 29.9999 83.5 30.0999C82.9 30.0999 82.3 30.1999 81.8 30.2999C81.4 30.2999 81.1 30.2999 80.7 30.3999C79.6 30.4999 78.3 30.5999 77.4 31.3999C77.1 31.5999 77 31.8999 77 32.0999C77.1 32.5999 78.7 32.5999 79.7 32.3999C80.3 32.2999 80.6 32.0999 80.9 31.8999C81.9 31.4999 83.1 31.3999 84.5 31.3999C85.1 31.3999 85.6 31.3999 86 31.6999C86.3 31.9999 86.4 32.6999 86.2 32.9999C85.8 33.5999 84.6 33.4999 83.7 33.4999C83.4 33.4999 83.1 33.4999 82.9 33.6999C82.6 33.8999 82.2 34.1999 82.4 34.2999C82.5 34.3999 82.7 34.4999 82.9 34.4999C83.6 34.5999 84.1 34.4999 84.7 34.2999C84.9 33.6999 85.4 33.5999 85.7 33.7999Z" fill="#fff"/>
<path d="M80.7 62.5999C80.9 63.3999 80.9 64.4999 80.4 64.5999C80.1 64.5999 79.7 64.2999 79.6 63.8999C79.4 63.5999 79.5 63.1999 79.3 62.9999C79.1 62.7999 78.8 62.8999 78.4 62.8999C77.8 62.8999 77.2 62.7999 77.1 63.0999C77 63.2999 77.1 63.6999 77 63.8999C77 64.2999 76.8 64.4999 76.5 64.7999C76.1 65.0999 75.5 65.2999 74.9 65.2999C74 65.2999 73 64.8999 72.7 64.0999C72.5 63.4999 72.8 62.5999 72.4 62.2999C72.1 62.0999 71.6 62.2999 71.3 62.4999C71.2 62.5999 71.1 62.6999 71 62.7999C70.4 63.1999 68.8 62.8999 68.9 63.1999C68.9 63.3999 69.3 63.5999 69.5 63.7999C70 64.2999 70.3 64.6999 70.7 65.1999C71.1 65.6999 71.7 66.0999 72.4 66.3999C73.2 66.7999 74 66.8999 74.8 66.8999C75.5 66.8999 76.3 66.7999 77 66.5999C77.5 66.4999 78 66.3999 78.5 66.3999C78.8 66.3999 79.1 66.4999 79.3 66.5999C79.4 66.5999 79.5 66.7999 79.5 66.8999C79.5 66.9999 79.4 67.0999 79.3 67.1999C79.2 67.1999 79.1 67.2999 79 67.2999C78.5 67.3999 78 67.4999 77.6 67.5999C77.1 67.6999 76.6 67.8999 76.1 67.9999C74.5 68.3999 72.6 68.1999 71.1 67.3999C70.1 66.8999 69.3 66.0999 68.7 65.1999C68.1 64.2999 67.7 63.2999 67 62.7999C66.7 62.5999 66.2 62.3999 65.8 62.2999C65.7 62.2999 65.6 62.1999 65.6 61.9999C65.6 61.8999 65.6 61.6999 65.8 61.6999C66.5 61.3999 67.2 61.0999 67.9 60.7999C68.7 60.4999 69.5 60.1999 70.2 60.0999C70.9 59.9999 71.5 59.9999 72.3 60.0999C73 60.0999 73.9 60.1999 74 59.6999C74.1 59.4999 74 59.1999 73.9 58.9999C73.7 58.4999 73.3 58.2999 72.8 58.0999C72.1 57.7999 71.3 57.7999 70.7 57.9999C70.4 58.0999 70.1 58.2999 69.9 58.3999C69.2 58.7999 68.3 59.0999 67.6 59.2999C66.7 59.5999 65.9 59.6999 64.6 59.8999C63.7 59.9999 62.6 60.1999 62.6 59.6999C62.6 59.4999 62.7 59.2999 62.8 59.1999C63.2 58.7999 63.9 58.7999 64.5 58.6999C65.3 58.5999 66 58.1999 66.8 57.8999C67.7 57.4999 68.7 57.0999 69.7 56.6999C70.6 56.3999 71.5 56.0999 72.4 56.0999C73.2 56.0999 74.1 56.2999 74.9 56.4999C76 56.7999 77.1 57.1999 78.2 57.3999C79 57.5999 79.9 57.7999 80.4 58.4999C80.6 58.8999 80.8 59.3999 80.5 59.6999C80.2 59.8999 79.5 59.7999 79.5 60.1999C79.5 60.2999 79.5 60.4999 79.6 60.5999C79.7 60.7999 80 60.8999 80.2 60.9999C80.4 61.5999 80.6 61.9999 80.7 62.5999ZM76.1 62.8999C76.1 62.1999 75.5 61.6999 74.9 61.6999C74.2 61.6999 73.7 62.2999 73.7 62.8999C73.7 63.5999 74.3 64.0999 74.9 64.0999C75.5 64.1999 76.1 63.5999 76.1 62.8999Z" fill="#fff"/>
<path d="M77.5 190.7C78.2 196.5 78.3 202.5 78.2 208.4C78.2 215.7 78.1 223 78 230.2C77.9 232.4 77.9 234.6 77.9 236.8C77.9 239.8 78.1 242.8 77.1 245.5C76.3 247.6 74.8 249.4 72.8 250.9C71.1 252.2 69 253.1 67.1 252.7C65.3 252.4 63.6 250.8 62.6 249.1C61.3 246.9 60.9 244.5 60.7 242.1C60.3 238.1 60.2 234.1 60.3 230.2C60.3 225.2 60.5 220.2 60.8 215.1C60.9 213.8 61 212.4 61.1 211.1C61.5 206.5 61.9 201.9 62.5 197.4C63.2 191.9 63.9 186.7 64.6 180.6C64.9 178.4 65.1 176.1 66.5 174.8C67.6 173.9 69.3 173.6 70.9 173.8C72.7 174.1 74.3 175.1 75.2 176.5C76.1 178 76.3 179.9 76.4 181.7C76.6 184.8 77.2 187.7 77.5 190.7Z" fill="#fff"/>
<path d="M58.7 59.1999L60.4 60.0999C59.7 60.8999 59 61.5999 58.3 62.2999C58.7 63.2999 59 64.3999 59.3 65.3999C59.8 67.4999 60 69.6999 60.1 71.7999C60.4 76.5999 60.8 81.3999 61.2 86.0999C59.4 85.4999 57.7 84.7999 56.2 85.3999C55.4 85.6999 54.6 86.4999 53.8 86.9999C52.5 87.6999 50.9 87.6999 49.5 87.3999C47.2 86.8999 45.1 85.4999 43.9 83.6999C43 82.2999 42.7 80.4999 42.3 78.6999C41.6 75.5999 40.8 72.2999 42.8 69.5999C43.3 68.7999 44.1 68.1999 44 67.4999C44 66.8999 43.4 66.3999 42.9 65.7999C42.1 64.9999 41.6 64.1999 41 63.3999C39.9 61.8999 38.7 60.2999 37.9 58.5999C37 56.7999 36.6 54.8999 36.9 52.5999C37 51.7999 37.2 50.9999 36.9 50.4999C36.6 49.9999 35.7 49.7999 35 49.3999C34.1 48.8999 33.5 48.0999 33.1 47.1999C32.3 45.2999 32.5 43.0999 33 41.0999C33.5 38.5999 34.4 36.2999 35.3 33.9999C36.3 31.4999 37.5 28.9999 39.3 26.8999C40.9 24.9999 43 23.2999 45.4 22.5999C46.8 22.1999 48.3 22.0999 49.8 22.0999C51.4 22.0999 52.9 22.3999 54.5 22.6999C55.5 22.8999 56.6 23.2999 57.4 23.8999C58.4 24.6999 59.1 26.0999 59.4 27.3999C59.8 29.0999 59.9 30.7999 59.6 32.4999C59.4 33.7999 58.9 35.0999 58.8 36.4999C58.6 37.6999 58.7 38.8999 58.9 40.1999C59.2 42.2999 59.7 44.3999 59.7 46.1999C59.8 48.3999 59.1 50.1999 58.7 53.5999C58.5 55.9999 58.3 59.1999 58.7 59.1999ZM53.8 54.3999C54.3 53.9999 54.4 52.6999 53.9 52.1999C53.6 51.7999 53.1 51.6999 52.6 51.6999C51.7 51.6999 51.1 51.7999 50 51.8999C48.7 51.9999 46.9 52.1999 47.1 51.4999C47.2 51.2999 47.4 51.0999 47.6 50.8999C48.3 50.2999 48.9 50.1999 49.9 50.1999C50.6 50.1999 51.4 50.2999 51.6 49.7999C51.8 49.4999 51.6 48.9999 51.3 48.5999C50.7 47.8999 49.5 48.2999 48.2 48.2999C47.5 48.2999 46.8 48.1999 46.5 47.8999C46.2 47.5999 46.2 46.9999 46.5 46.5999C46.9 46.0999 47.6 45.7999 48.2 45.6999C49.2 45.4999 49.9 45.5999 50.9 45.5999C51.3 45.5999 51.9 45.5999 52.1 45.2999C52.3 45.0999 52.3 44.6999 52.1 44.3999C51.8 44.0999 51.2 44.1999 50.7 44.1999C49.9 44.2999 49.4 44.1999 48.8 44.1999C48.3 44.1999 47.8 44.1999 47.4 44.1999C47 44.1999 46.5 44.0999 46.2 43.8999C46 43.7999 45.9 43.6999 45.8 43.5999C45.4 43.1999 45.1 42.4999 45.2 41.8999C45.3 41.2999 45.6 40.7999 46.1 40.4999C46.6 40.0999 47.4 39.8999 47.6 39.2999C47.7 38.9999 47.7 38.4999 47.5 38.2999C47.2 37.9999 46.7 38.0999 46.2 37.9999C45.3 37.7999 44.7 36.9999 44.5 36.2999C44.3 35.6999 44.4 35.1999 44.7 34.6999C45.1 34.0999 45.9 33.5999 46.7 33.3999C47.4 33.1999 48.1 33.1999 48.9 32.8999C49.7 32.4999 50.7 31.6999 50.7 31.4999C50.7 31.1999 48.9 31.6999 47.7 32.0999C46.7 32.4999 46.1 32.7999 45.3 32.8999C44.8 32.9999 44.2 33.0999 43.9 32.7999C43.4 32.4999 43.4 31.4999 43.8 30.6999C44.3 29.6999 45.6 28.8999 45.2 28.3999C45 28.1999 44.7 28.0999 44.3 28.0999C43.4 28.0999 42.8 28.9999 42.2 29.7999C41.2 31.2999 40.4 32.4999 39.5 33.6999C38.8 34.5999 38.1 35.4999 37.9 37.1999C37.8 38.1999 37.8 39.3999 38.1 39.5999C38.3 39.7999 38.8 38.7999 39.3 37.9999C39.7 37.2999 40.2 36.6999 40.7 36.1999C41.2 35.6999 41.7 35.2999 42.1 35.2999C42.7 35.2999 43.1 36.3999 43.3 37.2999C43.5 38.3999 43.2 39.1999 42.7 40.2999C41.9 41.7999 40.6 43.8999 41.2 44.4999C41.6 44.8999 42.8 44.6999 44.2 44.4999C44.6 44.4999 45 44.3999 45.4 44.3999C46 44.3999 46.4 44.4999 46.4 44.6999C46.4 44.9999 45.9 45.3999 45.5 45.7999C44.3 46.8999 43.6 48.0999 43.1 49.3999C42.8 50.1999 42.6 51.1999 43.1 51.2999C43.4 51.3999 44 51.1999 44.6 50.9999C45.3 50.7999 46 50.7999 46.4 51.2999C46.6 51.4999 46.7 51.7999 46.7 51.9999C46.6 52.3999 46 52.3999 45.5 52.4999C44.4 52.6999 43.6 52.9999 43 53.9999C42.5 54.8999 42.1 56.1999 42.8 56.5999C43.1 56.7999 43.6 56.6999 43.9 56.5999C44.3 56.3999 44.4 56.1999 44.7 55.7999C45.2 55.1999 45.8 54.4999 46.5 54.0999C47.2 53.6999 48 53.4999 48.8 53.3999C49.9 53.2999 51 53.3999 52.1 53.8999C52.5 54.3999 53.3 54.8999 53.8 54.3999Z" fill="#fff"/>
<path d="M40 65.1998C40.4 65.8998 40.7 66.7998 40.6 67.4998C40.5 68.2998 39.9 69.0998 39.6 69.8998C38.9 71.5998 39.3 73.4998 39.7 75.2998C39.9 76.0998 40.1 76.8998 40.3 77.6998C38.3 76.5998 36.3 75.4998 34.6 73.7998C32.7 71.9998 31.2 69.4998 30.8 66.8998C30.4 64.1998 31.3 61.3998 32.4 58.7998C33.4 56.4998 34.5 54.3998 35.7 52.2998C35.7 54.7998 35.8 57.2998 36.5 59.5998C36.8 60.6998 37.3 61.7998 38 62.5998C38.6 63.5998 39.5 64.2998 40 65.1998Z" fill="#fff"/>
</svg>
