<svg width="160" height="226" viewBox="0 0 160 226" fill="#000" xmlns="http://www.w3.org/2000/svg">
<path d="M153.7 201.1L159.3 225.8H129.5L137.3 201.2L153.7 201.1Z" fill="#000"/>
<path d="M156.5 75.2H137.3V121.7H156.5V75.2Z" fill="#000"/>
<path d="M150.7 127.5H137.3V195.7H150.7V127.5Z" fill="#000"/>
<path d="M131.6 64.4999V67.2999L27.5 67.4999V64.4999H35.8L35.9 47.7999H28.2C30 35.6999 35.6 24.3999 44.2 15.6999H79.3V6.9999H55.2C70.3 -1.8001 88.9 -1.8001 104 6.9999H84.3V15.6999H115C123.5 24.4999 129.1 35.6999 130.9 47.7999H123.2V64.4999H131.6ZM117.8 64.4999V48.2999H109.6V64.4999H117.8ZM105.2 57.3999C105.2 55.1999 103.4 53.4999 101.3 53.4999C99.1 53.4999 97.4 55.2999 97.4 57.3999C97.4 59.4999 99.2 61.2999 101.3 61.2999C103.5 61.3999 105.2 59.5999 105.2 57.3999ZM97.6 50.6999C104.2 42.7999 104.2 31.3999 97.6 23.4999H69L60 50.6999H97.6ZM91 64.4999V56.4999H74.3V64.4999H91ZM68.5 64.4999V56.4999H60.5V64.4999H68.5ZM55 64.4999V48.2999H47V64.4999H55ZM43.9 64.4999V48.2999H38.8V64.4999H43.9Z" fill="#000"/>
<path d="M129.1 72.7V186.4H30.4001V72.7H129.1ZM112.6 116.6V106.1H47.2001V116.6H112.6ZM112.6 101.8V91.2999H47.2001V101.8H112.6ZM112.6 86.9999V76.4999H47.2001V86.9999H112.6ZM88.0001 178.9V165.5H71.8002V178.9H88.0001ZM88.0001 151.5V121.9H71.8002V151.5H88.0001ZM66.0001 178.9V165.5H50.0001V178.9H66.0001Z" fill="#000"/>
<path d="M88.2001 192.5L97.2001 225.8H63.1001L69.5001 192.5H88.2001Z" fill="#000"/>
<path d="M80 25.5999C86.1 25.5999 91 30.4999 91 36.5999C91 42.5999 86.1 47.5999 80 47.5999C73.9 47.5999 69 42.6999 69 36.5999C69 30.4999 73.9 25.5999 80 25.5999Z" fill="#000"/>
<path d="M22.3 201.2L30.1 225.8H0.300049L5.90009 201.1L22.3 201.2Z" fill="#000"/>
<path d="M22.2001 127.5H8.80005V195.7H22.2001V127.5Z" fill="#000"/>
<path d="M22.3001 75.2H3.1001V121.7H22.3001V75.2Z" fill="#000"/>
</svg>
