<svg width="151" height="209" viewBox="0 0 151 209" fill="none" xmlns="http://www.w3.org/2000/svg">
<path d="M146.7 109.8C151.9 124.9 152.3 140.2 147.7 155.5C147.6 155.9 147.5 156.3 147.3 156.7L145 156C146.2 152.2 147.1 148.4 147.6 144.4C147.9 142.1 147.9 142.1 145.7 141.6C142.5 140.8 139.1 140.6 135.8 140.6C134.5 140.6 134.2 140.2 134.1 139C133.8 133 133.4 127.1 133 121.1C132.9 119.9 133.3 119.5 134.4 119.3C137.9 118.7 141.2 117.2 144 115C145.1 114.1 145.3 113.2 144.9 111.9C140.2 98.1999 132.2 86.6999 120.8 77.6999C111 69.9999 99.8 65.1999 87.5 62.9999C87 62.8999 86.7 62.9999 86.4 63.0999L85.9 61.8999C86.4 61.6999 86.8 61.4999 87.3 61.2999C88.2 60.8999 89.1 60.7999 90.1 60.9999C107.7 64.4999 122.3 73.0999 133.9 86.8999C139.5 93.7999 143.8 101.4 146.7 109.8Z" fill="#160032"/>
<path d="M145 155.9L147.3 156.6C142.2 172.4 132.8 185.2 119 194.9C108.4 202.3 96.7 206.7 83.8 208.1C69 209.7 54.9 207.3 41.6 200.7C26.2 193 14.7 181.3 7.29999 165.7C3.89999 158.5 1.69999 151 0.799994 143.1C0.399994 140.2 0.399994 137.2 0.399994 134.3H3.29999C3.29999 138.9 4 143.6 5.4 148.1C8.1 157 12.9 164.4 20.6 169.9C25.6 173.5 31.4 175.6 37.6 175.6C46.4 175.5 53.9 171.9 60 165.5C62.7 162.6 65.1 159.4 66.9 155.8C67.3 154.9 67.7 154.7 68.7 155.3C73.9 158.5 79.2 161.5 84.5 164.6C87.7 166.5 90.8 168.4 94 170.2C94.1 170.2 94.1 170.2 94.1 170.3C95 170.8 95.3 171.3 95 172.5C94.2 175.3 94 178.3 94.1 181.3C93.9 184.3 94.4 187.3 95 190.2C95.8 194 97.3 197.5 99.2 200.8C99.6 201.4 99.9 202.1 101 201.7C105.2 200 109.4 198.2 113.2 195.8C125.7 188.1 135.3 177.8 141.6 164.5C142.9 161.7 144.1 158.8 145 155.9Z" fill="#160032"/>
<path d="M141.6 148.7C142.7 149 143.1 149.5 142.8 150.7C140 162.2 135.1 172.6 127.1 181.4C121.8 187.3 115.4 192 108.7 196.2C108.1 196.5 107.5 197 106.9 196.3C106.3 195.6 105.6 194.8 105.6 193.7C105.6 193.2 106.4 193 106.8 192.8C108.7 192.1 110.6 191.5 112.6 190.8C115 190 115 190 114.8 187.5C114.8 187.3 114.8 187 114.8 186.8C114.6 184.9 114.5 184.7 112.5 184.6C110.5 184.5 108.4 184.5 106.4 184.5C106 184.5 105.5 184.5 105.1 184.4C103.3 184.2 103.2 184 103.2 182.2C103.6 171.2 108.3 162.4 116.6 155.4C119.4 153.1 119.4 153.1 121.3 156.1C122.6 158.2 123.9 160.4 125 162.6C125.8 164.3 126.4 164.5 128 163.7C132.2 161.5 131.6 162.8 130.7 158.2C130.1 155.5 129.5 152.8 129.2 150C129.1 148.9 129.3 148.4 130.4 148.4C132.2 148.3 133.9 148.1 135.6 148C137.7 148.2 139.7 148.1 141.6 148.7Z" fill="#160032"/>
<path d="M138.5 108.1C138.9 109.1 138.9 109.5 137.8 110C135.1 111.3 135.4 112 133.8 108.5C133.1 107 132.4 105.4 131.8 103.8C131.5 103.2 131.2 102.9 130.5 103C130.1 103 129.7 103 129.4 103C126.5 103 126.5 103 126.8 106C127 107.6 127.2 109.1 127.4 110.6C127.5 111.9 127 112 126 111.9C120.6 111.4 115.7 109.7 111.1 106.9C106.9 104.3 103.5 100.9 100.5 97.2C99.8 96.3 99.9 95.9 100.9 95.5C103.1 94.5 105.3 93.4 107.6 92.4C108.4 92 108.5 91.6 108.2 90.9C107.7 89.8 107 88.8 106.1 87.9C105.5 87.4 104.8 87.2 104 87.3C101.4 87.7 98.8 87.9 96.3 88.3C95.1 88.5 94.3 88.1 93.9 86.9C92.8 84 91.7 81.1 91.8 77.6C91.7 74.9 92.5 72.2 94.5 69.8C95.3 68.9 96 68.6 97.2 69C104.4 71.4 110.9 74.9 117 79.3C127 86.8 134 96.5 138.5 108.1Z" fill="#160032"/>
<path d="M132.4 136.8C132.5 140.5 132.5 140.4 129.4 140.9C116.5 143 106.6 149.7 99.6 160.7C98.1 163.1 97.1 165.7 96 168.3C95.7 169.1 95.5 169.3 94.6 168.8C86.4 163.9 78.2 159.1 70.1 154.3C68.1 153.1 68.1 153.1 68.9 150.8C72.7 140 72.9 129.1 69.3 118.2C67.6 113 64.9 108.2 61.3 104C59.4 101.8 59.5 101.8 62 100.2C62.3 99.9999 62.7 99.7999 63 99.4999C69.8 95.0999 76.5 90.7999 83.3 86.3999C83.6 86.1999 84 85.9999 84.3 85.7999C85.1 85.1999 85.6 85.2999 86 86.3999C88.1 92.5999 91.5 97.9999 95.8 102.8C101.9 109.7 109.1 114.8 117.8 117.8C121.8 119.2 125.9 119.9 130.2 119.9C130.9 119.9 131.4 119.9 131.4 120.9C131.4 121 131.4 121.1 131.4 121.2C131.7 126.5 132.1 131.9 132.4 136.8Z" fill="#160032"/>
<path d="M94.7 44.0998C96.1 48.2998 96.1 48.2998 93 51.3998C87.3 57.0998 80.5 61.0998 73 64.0998C62.1 68.4998 50.7 70.0998 39.1 69.6998C32.4 69.4998 25.7 68.3998 19.3 66.1998C18.2 65.7998 17.5 65.1998 17.3 64.0998C16 58.2998 15.8 52.4998 17.3 46.6998C17.9 44.1998 18.5 41.6998 19.7 39.3998C20.1 38.5998 20.5 38.3998 21.4 38.5998C23.4 39.0998 25.5 39.3998 27.6 39.4998C30.6 39.6998 33.7 39.6998 36.8 39.6998C39.8 39.5998 42.8 39.3998 46 39.1998C42 45.8998 42.6 52.0998 47.5 55.6998C51.8 58.8998 57.8 58.2998 61.2 54.2998C63.5 51.5998 64.4 48.3998 63.9 44.8998C63.4 41.4998 61.7 38.7998 58.3 36.8998C61.9 35.8998 65.2 35.0998 68.4 33.8998C69.6 33.4998 70.7 32.9998 71.8 32.5998C75.3 31.1998 78.7 29.4998 81.8 27.2998C83 26.3998 83.7 26.7998 84.6 27.6998C89.1 32.2998 92.5 37.6998 94.6 43.7998C94.7 43.8998 94.7 43.9998 94.7 44.0998ZM82.1 49.0998C82.1 48.9998 82.1 48.8998 82.1 48.6998C82.1 47.9998 82.1 47.2998 81.8 46.5998C80.6 44.0998 77.9 43.0998 74.9 44.1998C70.5 45.7998 69.7 48.8998 72.8 52.1998C74.4 53.8998 76.5 55.1998 79 54.2998C81.5 53.4998 82 51.3998 82.1 49.0998Z" fill="#160032"/>
<path d="M85.8 62L86.3 63.2C86 63.4 85.8 63.7 85.6 64.1C84.7 66.4 84 68.7 83.8 71.2C83.6 74.8 83.7 78.3 84.5 81.8C84.7 82.9 84.4 83.5 83.5 84.1C76.3 88.7 69.2 93.3 62.1 98C58.2 100.5 58.3 100.5 54.6 97.8C45 90.9 32.1 90.5 22.2 97C10.3 104.8 4.8 116.4 3.6 130.1C3.5 131.5 3.4 132.8 3.4 134.2H0.500002C0.500002 134.1 0.500002 134 0.500002 133.9C0.400002 122.4 3 111.5 8.1 101.2C13.8 89.8 21.9 80.5 32.3 73.1C33.3 72.4 34.3 72.6 35.3 72.7C39.5 73.2 43.7 73.3 47.9 73.2C57.1 73 65.7 70.3 74.1 67C78 65.5 82 63.8 85.8 62Z" fill="#160032"/>
<path d="M80.7 24.5C81.7 25.1 81.7 25.7 80.7 26.3C77.7 28.2 74.6 29.8 71.4 31.1C70.3 31.5 69.2 32 68.1 32.3C59.4 35.2 50.5 37 41.3 37.8C38.9 38 36.5 37.8 34.1 37.8C32 38 29.9 38 27.8 37.8C26 37.7 24.2 37.4 22.4 37C21.4 36.8 21.1 36.5 21.8 35.6C24.2 31.9 24.1 32.1 28.5 32.6C35.3 33.4 42.1 33.2 48.9 32C58.4 30.3 67.4 27.2001 75.7 22.4001C76.5 22.0001 77.2 21.9001 77.9 22.4001C78.8 23.2001 79.8 23.9 80.7 24.5Z" fill="#160032"/>
<path d="M63.7 15.7999C64.3 15.8999 65 15.8999 65.7 16.2999C59.6 21.2999 44.7 24.4999 28.7 24.1999C30 23.1999 31 22.3999 32.1 21.6999C35.2 19.7999 38.6 18.3999 42.1 17.3999C43.2 17.0999 43.6 16.6999 43.3 15.3999C42.7 12.6999 42.4 9.89985 42 7.09985C41.9 6.49985 41.8 5.69985 42.8 5.59985C43.8 5.49985 43.8 6.2999 43.9 6.8999C44.3 9.5999 44.7 12.1999 45.2 14.8999C45.3 15.5999 45.2 16.4999 46.4 16.3999C47.5 16.2999 47.9 15.6999 47.7 14.5999C47.1 10.6999 46.5 6.79988 45.9 2.99988C45.9 2.69988 45.7 2.39989 45.8 2.19989C45.9 1.69989 45.2 0.899902 46.2 0.899902C46.9 0.899902 47.6 0.999878 47.7 1.99988C48.1 4.99988 48.6 8.09985 49.1 11.0999C49.3 12.1999 49.5 13.2999 49.6 14.4999C49.7 15.6999 50.4 15.8999 51.3 15.7999C55.5 15.3999 59.6 15.3999 63.7 15.7999Z" fill="#160032"/>
<path d="M60.4 125.7C61.3 131.8 61.2 137.9 59.8 143.9C59.4 145.6 59.2 145.7 57.6 145.2C54.2 144 50.9 142.6 47.6 141.1C46.5 140.6 45.9 140.8 45.3 141.9C43 146.4 43 145.4 46.3 148.7C48.3 150.7 50.5 152.5 52.7 154.3C53.6 155.1 53.6 155.7 53 156.7C50.3 160.8 46.3 163 41.7 164.3C39.3 165 36.8 165.4 34.7 165.3C30.5 165.4 26.9 164.6 23.6 162.7C22.7 162.2 22.4 161.6 22.6 160.7C22.9 158.3 23.2 155.8 23.5 153.4C23.8 150.9 22.9 148.9 21.1 148.1C20.3 147.7 19.8 147.8 19.3 148.7C18.4 150.4 17.5 152.1 16.7 153.9C16.2 155.2 15.8 155.3 14.9 154.2C12.7 151.5 11.1 148.4 10.2 145.1C8.29998 138.2 8.19998 131.2 9.39998 124.2C9.59998 123 9.99998 121.8 10.3 120.6C10.5 119.8 10.8 119.5 11.7 120C12.9 120.7 14.2 121.3 15.4 122C16.2 122.5 16.7 122.3 17.2 121.6C17.2 121.5 17.3 121.4 17.3 121.4C19 119.4 19.6 117.4 18.1 115C17.6 114.2 17.4 113.1 16.9 112.3C16.1 110.8 16.5 109.6 17.5 108.4C21.3 103.9 26.2 101.6 31.9 100.8C35.9 100.2 39.8 100.7 43.6 102.2C44.8 102.7 45 103.2 44.4 104.4C43.1 106.6 41.7 108.7 40.2 110.8C39.4 111.9 39.6 112.7 40.4 113.7C42.7 116.3 42.7 116.3 45.6 114.5C47.7 113.2 49.8 111.7 51.8 110.2C52.6 109.6 53.1 109.6 53.7 110.4C57.5 114.7 59.6 120 60.4 125.7Z" fill="#160032"/>
</svg>
