<?xml version="1.0" standalone="no"?>
<!DOCTYPE svg PUBLIC "-//W3C//DTD SVG 20010904//EN"
 "http://www.w3.org/TR/2001/REC-SVG-20010904/DTD/svg10.dtd">
<svg version="1.0" xmlns="http://www.w3.org/2000/svg"
 width="533.000000pt" height="1280.000000pt" viewBox="0 0 533.000000 1280.000000"
 preserveAspectRatio="xMidYMid meet">
<metadata>
Created by potrace 1.15, written by Peter Selinger 2001-2017
</metadata>
<g transform="translate(0.000000,1280.000000) scale(0.100000,-0.100000)"
fill="#000000" stroke="none">
<path d="M2705 12663 c-16 -9 -43 -26 -60 -38 -16 -12 -66 -42 -110 -65 -110
-59 -161 -94 -223 -154 -71 -67 -102 -114 -145 -216 -66 -158 -70 -175 -74
-335 -4 -122 -8 -152 -20 -162 -21 -17 -19 -53 12 -195 14 -65 25 -120 25
-123 0 -3 11 -10 24 -15 16 -6 27 -20 31 -42 4 -18 23 -75 42 -125 28 -76 35
-109 37 -185 4 -102 15 -141 45 -157 29 -16 48 -4 58 37 7 28 14 38 32 40 22
4 23 2 17 -50 -3 -29 -5 -61 -6 -70 0 -13 -8 -18 -30 -18 -20 0 -41 -12 -70
-39 -40 -38 -41 -40 -42 -110 0 -58 3 -75 17 -85 16 -11 13 -15 -26 -38 -67
-38 -71 -39 -269 -68 -127 -18 -196 -24 -220 -19 -93 22 -146 5 -261 -81 -113
-86 -221 -191 -277 -270 -25 -36 -61 -78 -80 -95 -29 -26 -34 -36 -34 -75 0
-25 5 -57 11 -73 9 -23 5 -39 -29 -112 -29 -64 -45 -87 -65 -95 -22 -8 -42
-43 -110 -184 l-84 -174 -38 0 c-26 0 -41 -6 -48 -18 -5 -10 -22 -30 -37 -45
-16 -15 -28 -36 -28 -47 0 -12 -4 -24 -10 -27 -5 -3 -19 -25 -30 -48 -11 -23
-27 -53 -34 -67 -8 -14 -22 -44 -31 -67 -10 -23 -30 -54 -46 -69 -18 -17 -29
-38 -29 -55 0 -14 -9 -37 -19 -50 -11 -15 -17 -35 -15 -49 3 -18 -17 -66 -68
-159 -61 -113 -78 -136 -102 -142 -35 -10 -68 -39 -62 -55 3 -7 -2 -18 -10
-24 -24 -21 -16 -33 19 -26 27 5 37 2 54 -16 11 -13 23 -31 26 -41 10 -28 36
-32 60 -8 13 11 38 24 57 27 19 4 40 10 45 15 10 7 246 -162 253 -182 2 -5 9
-9 15 -10 7 0 39 -20 72 -45 33 -24 68 -47 78 -50 26 -9 21 -24 -13 -36 -34
-11 -50 -34 -50 -72 0 -54 72 -76 123 -36 33 26 34 26 51 -13 9 -23 34 -47 77
-75 35 -22 74 -52 86 -65 13 -13 37 -27 54 -31 27 -5 30 -9 25 -31 -8 -31 23
-52 54 -35 15 8 23 6 37 -8 23 -23 69 -52 83 -52 7 0 36 -17 66 -39 30 -22 71
-41 94 -45 38 -6 54 -26 30 -41 -15 -9 -12 -58 6 -83 18 -27 64 -29 99 -6 19
12 25 25 25 50 0 19 3 34 6 34 16 0 145 -86 149 -100 3 -8 18 -23 35 -32 16
-9 30 -25 30 -35 0 -16 -25 -151 -86 -470 -9 -46 -19 -83 -23 -83 -4 0 -15 25
-25 55 -10 31 -23 55 -31 55 -21 0 -64 -57 -69 -93 -15 -103 -25 -587 -19
-923 3 -210 3 -390 -2 -400 -11 -27 -14 -346 -4 -429 5 -38 13 -171 19 -295 6
-124 13 -277 16 -340 l6 -115 -32 -35 c-18 -19 -41 -55 -52 -80 -11 -25 -28
-64 -39 -87 -10 -24 -19 -47 -19 -52 0 -6 -7 -14 -17 -19 -10 -6 -19 -29 -24
-58 -4 -27 -14 -87 -22 -134 -23 -127 -28 -214 -19 -325 12 -133 -11 -356 -40
-396 -15 -19 -18 -33 -12 -50 4 -13 7 -28 5 -34 -5 -15 -9 -87 -16 -335 -8
-239 -7 -243 49 -626 14 -93 35 -246 46 -340 11 -93 23 -185 26 -205 29 -210
20 -617 -15 -707 -21 -53 -27 -93 -15 -105 4 -3 22 0 41 8 46 20 57 19 47 -3
-4 -9 -8 -51 -9 -92 -1 -41 -8 -116 -15 -167 l-12 -92 48 -56 c27 -30 60 -59
74 -62 14 -3 35 -14 47 -23 20 -15 59 -19 281 -25 284 -8 355 -3 380 26 10 11
29 19 47 19 26 0 34 6 48 35 9 20 17 54 17 76 0 71 -28 112 -125 184 -27 20
-34 27 -92 92 -37 39 -39 46 -19 62 11 9 12 19 4 44 -88 285 -126 599 -115
957 5 163 12 224 61 510 31 179 60 381 66 450 13 149 44 310 77 402 13 37 22
72 21 79 -2 9 19 12 82 10 l85 -2 38 37 c41 40 72 96 102 182 11 28 22 52 26
52 4 0 13 -17 19 -37 7 -21 24 -59 38 -85 l25 -48 -56 -133 c-90 -213 -108
-302 -114 -547 -4 -179 -2 -235 22 -445 37 -317 39 -639 7 -843 -12 -73 -29
-147 -39 -165 -21 -38 -23 -167 -6 -265 7 -38 8 -73 3 -85 -30 -77 -53 -171
-42 -175 7 -2 12 -16 12 -31 0 -15 5 -32 12 -39 9 -9 7 -12 -9 -12 -20 0 -20
-3 -10 -35 17 -57 81 -83 247 -101 74 -8 173 -19 220 -25 47 -5 139 -14 205
-19 66 -5 155 -15 197 -21 43 -6 113 -9 155 -6 43 3 161 11 263 18 149 10 189
16 205 30 11 9 29 19 39 21 10 1 27 14 38 28 18 24 18 26 -2 80 -11 30 -28 61
-37 68 -63 46 -158 93 -200 98 -26 4 -55 12 -63 19 -8 7 -31 18 -50 24 -111
35 -132 41 -148 41 -27 0 -134 54 -216 109 -86 58 -91 64 -71 81 20 16 19 25
-4 58 -13 18 -24 64 -35 142 -23 179 -25 223 -16 405 8 176 32 314 99 580 42
169 107 467 119 550 6 39 18 124 27 190 20 147 57 265 97 311 25 28 28 37 18
49 -11 13 -8 15 19 15 28 0 31 -3 31 -29 0 -16 -7 -34 -15 -41 -11 -9 -13 -28
-9 -83 5 -71 15 -97 40 -97 19 0 44 40 44 72 0 16 5 28 10 28 6 0 10 13 10 29
0 17 -4 33 -10 36 -5 3 -10 26 -10 51 0 39 3 46 28 55 112 43 171 104 207 214
27 85 30 225 7 345 -24 120 -87 279 -127 322 l-28 29 31 157 c66 329 112 711
112 924 0 54 7 146 16 205 14 92 14 129 5 248 -26 313 -24 1002 2 1065 4 8 2
22 -3 30 -9 13 -13 11 -30 -10 l-21 -25 7 40 c3 22 19 92 34 155 37 155 58
335 42 361 -9 14 -9 25 -2 38 5 11 13 64 16 119 6 93 5 101 -15 121 -12 12
-35 24 -52 28 l-31 6 7 86 c3 47 11 127 16 176 6 50 10 170 10 268 -1 120 3
177 10 177 6 0 13 -9 16 -21 5 -18 8 -15 20 17 24 64 36 187 25 262 -8 55 -6
71 6 91 15 22 15 25 -5 41 -17 14 -24 39 -37 131 -17 121 -19 156 -10 147 11
-12 204 -420 204 -433 0 -7 10 -19 22 -27 20 -13 22 -22 20 -94 -1 -43 -5 -91
-8 -106 -3 -14 2 -59 10 -100 20 -99 40 -561 26 -608 -13 -46 -13 -123 1 -153
9 -21 7 -31 -16 -65 -21 -32 -31 -67 -46 -164 -10 -68 -19 -128 -19 -135 0
-18 89 -49 107 -37 9 5 31 52 49 104 19 52 36 101 39 108 6 15 141 -128 150
-160 4 -13 14 -30 22 -39 13 -15 5 -25 -76 -94 -50 -42 -91 -79 -91 -81 0 -7
31 -67 42 -80 6 -8 37 5 106 47 53 32 103 59 110 59 6 0 12 -12 12 -27 0 -21
-20 -48 -86 -114 -94 -94 -97 -104 -55 -158 l19 -25 63 42 c35 22 65 39 68 36
3 -2 -19 -29 -49 -59 l-54 -54 24 -51 c13 -28 29 -49 34 -46 51 21 52 20 28
-6 l-22 -25 30 -41 c17 -23 34 -42 38 -42 4 0 49 42 100 93 80 81 92 97 87
119 -4 16 -1 29 9 37 9 8 16 20 16 28 0 7 7 24 16 38 12 18 13 28 4 44 -6 11
-8 32 -4 46 3 14 2 31 -4 38 -5 6 -12 27 -14 45 -4 26 0 37 19 52 12 10 23 26
23 36 0 16 3 16 21 -6 l20 -25 -4 40 c-13 118 -58 266 -104 335 -13 19 -23 44
-23 55 -1 11 -7 31 -14 44 -11 20 -11 30 -1 55 7 17 16 72 19 121 11 167 76
607 99 670 12 33 20 65 18 70 -2 6 -7 82 -11 170 -4 88 -11 167 -14 175 -11
25 -77 70 -102 70 -26 0 -64 61 -64 103 0 13 -32 90 -71 171 -39 81 -68 154
-65 162 3 7 -4 18 -15 24 -11 6 -17 15 -14 21 4 5 -1 12 -10 15 -14 6 -14 9
-1 29 13 20 13 25 1 35 -8 7 -15 18 -15 26 0 7 -6 19 -12 26 -7 7 -13 22 -13
33 0 15 -6 19 -22 18 -19 -2 -24 3 -29 37 -4 24 -14 45 -25 50 -9 6 -24 22
-31 37 -8 16 -38 73 -68 127 -53 99 -53 100 -41 145 20 74 22 121 5 152 -8 16
-18 29 -23 29 -5 0 -24 26 -41 58 -18 31 -46 73 -61 92 -16 19 -29 41 -29 49
0 22 -80 99 -155 148 -38 25 -87 62 -108 82 l-38 36 -102 1 c-60 0 -125 7
-157 16 -30 9 -113 26 -185 38 -150 26 -189 41 -180 71 7 20 -47 114 -71 123
-7 3 -16 22 -20 43 -8 42 -68 113 -95 113 -25 0 -28 9 -21 67 6 46 12 54 60
93 54 42 82 46 82 11 0 -57 46 -71 77 -24 25 38 25 174 0 223 -11 22 -14 36
-7 38 17 6 28 35 45 118 22 109 24 114 44 114 37 0 45 34 58 248 4 70 4 72
-19 72 -44 0 -50 12 -33 62 14 43 14 57 -4 180 -22 153 -37 202 -94 312 -44
85 -135 184 -206 222 -22 12 -52 30 -68 41 -15 11 -63 36 -106 57 -47 23 -83
47 -89 60 -6 14 -25 26 -54 34 -59 16 -93 15 -129 -5z m-982 -3403 c27 -31 28
-38 72 -284 29 -169 44 -206 80 -206 31 0 38 -15 64 -130 13 -56 16 -90 10
-101 -13 -26 -11 -49 5 -49 9 0 21 -34 36 -107 12 -60 28 -119 35 -133 7 -14
18 -47 24 -75 7 -27 18 -56 24 -64 7 -8 17 -28 22 -45 8 -24 15 -30 33 -28 21
3 22 0 22 -62 0 -36 -2 -66 -6 -66 -10 0 -220 189 -242 219 -27 37 -28 48 -1
56 13 4 27 0 40 -11 18 -16 21 -16 36 -1 12 11 13 20 6 29 -6 7 -13 25 -17 40
-3 15 -18 33 -32 40 -28 13 -138 204 -128 220 3 5 -4 20 -16 35 -14 19 -19 35
-15 52 5 19 -2 33 -33 65 -21 23 -46 61 -56 86 -10 25 -27 62 -37 83 -11 22
-19 48 -19 59 0 26 -55 116 -85 140 -40 31 -37 62 15 167 l48 98 45 1 c39 2
49 -2 70 -28z m-183 -355 c111 -199 138 -255 144 -297 6 -37 11 -48 26 -48 19
0 30 -19 30 -50 0 -11 7 -23 15 -27 13 -8 125 -208 125 -223 0 -3 -16 -15 -35
-28 l-35 -22 -167 152 c-254 233 -261 239 -275 236 -18 -3 -68 31 -68 48 0 8
33 79 72 159 l73 145 35 0 c31 0 38 -5 60 -45z m-362 -1078 c115 -76 145 -107
105 -107 -10 0 -31 14 -47 30 -16 17 -39 30 -50 30 -47 1 -156 93 -156 133 0
11 5 8 148 -86z m333 -228 c49 -34 92 -65 95 -70 12 -20 -56 -7 -92 17 -55 36
-122 114 -98 114 3 0 46 -28 95 -61z m1347 -2791 c50 -283 102 -736 89 -770
-3 -9 -26 -25 -51 -37 -29 -14 -59 -41 -82 -73 l-37 -50 -19 73 c-11 40 -28
85 -39 100 -14 20 -19 44 -19 96 0 86 32 363 71 603 36 226 39 240 48 240 4 0
22 -82 39 -182z"/>
</g>
</svg>
