<svg width="177" height="201" viewBox="0 0 177 201" fill="none" xmlns="http://www.w3.org/2000/svg">
<path d="M176.6 137.6C176.9 141 176.9 144.5 176.2 147.8C175.3 151.6 173.5 155.2 171.3 158.5C169.3 161.4 166.9 164.1 164.6 166.8C164.2 170.8 163.9 174.8 162.4 178.5C160.7 182.7 157.5 186.4 153.9 189.4C148.3 194.1 141.7 197.1 134.8 199C130.3 200.2 125.6 201 120.9 201C117.6 201 114.3 200.7 111.2 199.5C108.9 198.6 106.8 197.3 105 195.7C104.2 195 103.5 194.2 102.8 193.3C102.6 193 102.3 192.7 102.1 192.3C99.7 192.3 97.3 192.3 94.9 192.3C94.9 194 94.9 195.7 94.9 197.4C90.6 197.4 86.4 197.4 82.1 197.4C82.1 195.7 82.1 194 82.1 192.3C79.7 192.3 77.3 192.3 74.9 192.3C74.7 192.6 74.4 193 74.2 193.3C73.5 194.1 72.8 194.9 72 195.7C70.2 197.3 68.1 198.7 65.8 199.5C62.7 200.7 59.4 201 56.1 201C51.4 201 46.7 200.3 42.2 199C35.3 197.1 28.7 194 23.1 189.4C19.5 186.4 16.3 182.7 14.6 178.5C13.5 175.9 13.1 173 12.7 170.1L15.1 169.8C15.2 170.5 15.3 171.1 15.4 171.8C16.2 175.8 17.8 179.7 20.3 182.9C22.9 186.4 26.5 189.1 30.3 191.3C34.4 193.7 38.8 195.5 43.3 196.7C46.9 197.7 50.6 198.3 54.3 198.5C57.4 198.7 60.6 198.6 63.6 197.7C65.3 197.2 66.9 196.4 68.4 195.4C69.6 194.6 70.7 193.6 71.6 192.5C71.7 192.3 71.9 192.2 72 192C72 191.9 72 191.7 72 191.6C71.7 191.6 71.5 191.6 71.2 191.6C71.2 190.3 71.2 189.1 71.2 187.8C70.6 187.8 69.9 187.8 69.3 187.8C69 188 68.6 188.3 68.3 188.5C66.7 189.6 64.9 190.5 63 191.3C60.3 192.4 57.4 193.1 54.5 193.5C51.3 193.9 48 193.8 44.8 193.1C42.3 192.5 39.9 191.5 37.8 190C36.5 189 35.3 187.9 34.4 186.5C33.5 185.2 32.9 183.6 32.8 182C32.7 180.1 33.3 178.1 34.3 176.4C35.4 174.5 37 173 38.8 171.8C41.2 170.2 44 169.3 46.9 168.9C49.6 168.5 52.4 168.5 55.1 168.9C57.1 169.2 59.1 169.8 61 170.4C62.3 170.8 63.6 171.2 65 171.6C65 171 64.9 170.4 64.9 169.8C64.7 168.5 64.4 167.2 64 165.9C63 162.8 61.9 159.8 60.6 156.8C59.3 153.8 58 150.9 56.4 148.2C55.2 146.1 53.8 144.1 52.1 142.2C52.8 142.7 53.5 143.2 54.2 143.7C55.7 145.1 56.9 146.9 57.9 148.7C59.3 151 60.6 153.2 61.7 155.5C63 158 64.1 160.6 65.1 163.2C65.5 164.3 66 165.4 66.3 166.6C66.7 167.7 67 168.9 67.3 170.1C68.3 168.5 69.2 166.8 70.1 165.1C71.2 162.9 72.2 160.7 73.5 158.6C74.5 157 75.5 155.4 76.9 154C78.4 152.4 80.2 151.1 82.1 150.2C84.1 149.3 86.3 149 88.6 149C90.8 149 93.1 149.4 95.1 150.2C97.1 151.1 98.8 152.4 100.3 154C101.6 155.4 102.7 156.9 103.7 158.6C104.9 160.7 105.9 162.9 107.1 165.1C108 166.8 109 168.4 109.9 170.1C110.2 169 110.5 167.8 110.9 166.6C111.3 165.5 111.7 164.3 112.1 163.2C113.1 160.6 114.2 158 115.5 155.5C116.7 153.2 118 150.9 119.3 148.7C120.4 146.9 121.5 145.1 123 143.7C123.6 143.1 124.4 142.6 125.1 142.2C123.4 144.1 122 146.1 120.8 148.2C119.2 151 117.8 153.9 116.6 156.8C115.3 159.8 114.2 162.8 113.2 165.9C112.8 167.2 112.4 168.5 112.3 169.8C112.2 170.4 112.2 171 112.2 171.6C113.5 171.2 114.8 170.8 116.2 170.4C118.2 169.8 120.1 169.3 122.1 168.9C124.8 168.5 127.6 168.5 130.3 168.9C133.2 169.4 136 170.3 138.4 171.8C140.2 173 141.8 174.5 142.9 176.4C143.9 178.1 144.5 180 144.4 182C144.3 183.6 143.7 185.1 142.8 186.5C141.9 187.9 140.7 189 139.4 190C137.3 191.5 134.9 192.5 132.4 193.1C129.2 193.8 125.9 193.9 122.7 193.5C119.8 193.2 116.9 192.4 114.2 191.3C112.3 190.6 110.6 189.6 108.9 188.5C108.6 188.3 108.2 188 107.9 187.8C107.3 187.8 106.6 187.8 106 187.8C106 189.1 106 190.3 106 191.6C105.7 191.6 105.5 191.6 105.2 191.6C105.2 191.7 105.2 191.9 105.2 192C105.3 192.2 105.5 192.3 105.6 192.5C106.5 193.6 107.6 194.5 108.8 195.4C110.3 196.4 111.9 197.2 113.6 197.7C116.6 198.6 119.8 198.7 122.9 198.5C126.6 198.3 130.3 197.7 133.9 196.7C138.4 195.5 142.8 193.7 146.9 191.3C150.7 189.1 154.3 186.4 156.9 182.9C159.3 179.7 161 175.8 161.7 171.8C162.1 169.6 162.3 167.4 161.9 165.3C161.7 164.1 161.2 162.9 160.7 161.8C159.4 159.2 157.6 156.8 155.5 154.8C152.9 152.2 149.8 150 146.6 148.3C143.1 146.4 139.3 144.9 135.5 143.5C133.2 142.7 131 141.9 128.6 141.5C127.5 141.3 126.4 141.3 125.4 140.9C125.3 140.8 125.1 140.8 125 140.7C124 140.3 123.2 139.5 122.4 138.8C121.7 138.2 120.9 137.6 120.1 137L120.8 136.1C121.4 136.5 121.9 136.9 122.5 137.3C122.6 137.1 122.6 137 122.7 136.8C121.4 135.5 120.2 134.2 118.9 132.9L119.8 132.1C121.4 133.7 123 135.4 124.6 137C125.4 137.8 126.2 138.6 127 139.5C128.8 138.6 130.7 137.6 132.5 136.6C134.7 135.4 136.8 134.1 139 132.8C142.2 130.9 145.4 129.1 148 126.4C149.2 125.1 150.3 123.6 151.1 122C152.2 119.8 152.8 117.3 153.1 114.8C153.4 112.7 153.5 110.5 153.6 108.4L156 108.5C158 109.7 160 111 162 112.4C166.2 115.4 170 119 172.6 123.4C174.7 127.5 176.1 132.6 176.6 137.6ZM174 143.8C174.3 140.1 174 136.5 173.1 132.9C172.2 129.3 170.7 125.8 168.7 122.7C166.7 119.7 164.1 117 161.1 114.9C159.2 113.6 157.1 112.5 155.1 111.4C154.9 114.9 154.6 118.4 153.3 121.6C152.2 124.3 150.3 126.8 148 128.9C144.9 131.8 141.2 134 137.6 136C135.4 137.2 133.3 138.4 131.1 139.5C133 140 134.8 140.5 136.6 141.1C139.3 141.9 142 142.9 144.5 144.1C148.1 145.8 151.4 148 154.5 150.5C156.7 152.3 158.9 154.3 160.5 156.7C161.9 158.8 162.9 161.1 164 163.4C165 162.3 165.9 161.1 166.9 159.9C168.7 157.6 170.5 155.2 171.7 152.5C173 149.9 173.7 146.9 174 143.8ZM140.7 183.9C141.3 182.6 141.5 181 141.3 179.6C140.8 176.8 138.2 174.5 135.5 173.1C132.5 171.6 129.4 171 126.2 171C123.9 171 121.5 171.3 119.3 171.9C117.8 172.3 116.4 172.7 115 173.2C114.2 173.5 113.3 173.8 112.5 173.9C111.9 174 111.2 174 110.6 173.9C109.8 173.7 109.1 173.2 108.5 172.5C107.7 171.7 107.2 170.7 106.7 169.8C105.1 166.8 103.8 163.7 102.1 160.7C101 158.8 99.9 157 98.3 155.4C96.7 153.7 94.6 152.3 92.4 151.6C92.1 151.5 91.8 151.4 91.4 151.4C90.4 151.2 89.4 151.1 88.4 151.1C87.1 151.1 85.7 151.3 84.5 151.7C82.3 152.4 80.2 153.8 78.6 155.5C77.1 157.1 75.9 158.9 74.9 160.8C73.2 163.8 71.9 166.9 70.3 169.9C69.8 170.9 69.3 171.8 68.5 172.6C67.9 173.2 67.2 173.7 66.4 174C65.8 174.2 65.2 174.1 64.5 174C63.6 173.9 62.8 173.6 62 173.3C60.6 172.8 59.1 172.4 57.7 172C55.4 171.4 53.1 171.1 50.8 171.1C47.6 171.1 44.5 171.7 41.5 173.2C38.8 174.6 36.2 176.9 35.7 179.7C35.4 181.1 35.7 182.6 36.3 184C37 185.6 38.1 186.9 39.4 187.9C41 189.1 42.8 189.9 44.7 190.5C47.2 191.2 49.7 191.4 52.3 191.3C55.8 191.1 59.2 190.3 62.5 188.9C64.2 188.2 65.9 187.3 67.3 186.2C67.6 186 67.9 185.7 68.2 185.4C69.2 185.4 70.2 185.4 71.2 185.4C71.2 181.6 71.2 177.7 71.2 173.9C73 173.9 74.7 173.9 76.5 173.9C76.5 171.5 76.5 169.2 76.5 166.8C78.3 166.8 80.2 166.8 82 166.8C82 163.3 82 159.8 82 156.3C83.4 156.3 84.8 156.3 86.2 156.3C86.2 155.2 86.2 154.1 86.2 152.9C87 152.9 87.8 152.9 88.6 152.9C89.4 152.9 90.2 152.9 91 152.9C91 154 91 155.1 91 156.3C92.4 156.3 93.8 156.3 95.2 156.3C95.2 159.8 95.2 163.3 95.2 166.8C97 166.8 98.9 166.8 100.7 166.8C100.7 169.2 100.7 171.5 100.7 173.9C102.5 173.9 104.2 173.9 106 173.9C106 177.7 106 181.6 106 185.4C107 185.4 108 185.4 109 185.4C109.3 185.7 109.6 185.9 109.9 186.2C111.3 187.3 113 188.2 114.7 188.9C117.9 190.3 121.4 191.1 124.9 191.3C127.4 191.4 130 191.2 132.5 190.5C134.4 190 136.2 189.1 137.8 187.9C138.9 186.8 140 185.5 140.7 183.9Z" fill="#160032"/>
<path d="M167.8 128.5C167.8 128.8 167.8 129.1 167.8 129.5C167.8 129.9 167.8 130.4 167.8 130.8C165.5 127.6 162.5 125 158.9 123.2C159 122.5 159.1 121.9 159.1 121.2C162.7 122.8 165.6 125.3 167.8 128.5Z" fill="#160032"/>
<path d="M167.7 96.2999C167.7 96.9999 167.2 97.5999 166.5 97.5999C166.2 97.5999 165.9 97.5999 165.7 97.6999C165 97.7999 164.5 98.2999 164.5 98.9999C164.5 100.9 164.5 102.8 164.4 104.7C164.3 106.4 163.1 107.7 161.4 107.8C159.6 107.9 157.9 108.1 155.7 108.2L153.3 108.1C153.3 106.8 153.3 105.5 153.3 104.2C153.3 97.4999 153.3 90.7999 153.3 84.0999C153.3 78.4999 153.2 72.8999 153.2 67.2999C131.6 65.2999 110 64.2999 88.4 64.2999C66.8 64.2999 45.1 65.2999 23.6 67.2999C23.6 72.8999 23.5 78.4999 23.5 84.0999C23.5 90.7999 23.5 97.4999 23.5 104.2C23.5 107.6 23.5 111.1 24 114.5C24.3 117 24.9 119.5 26 121.7C26.8 123.3 27.9 124.8 29.1 126.1C31.6 128.8 34.9 130.6 38.1 132.5C40.3 133.8 42.4 135.1 44.6 136.3C46.4 137.3 48.2 138.2 50.1 139.2C50.9 138.4 51.7 137.6 52.5 136.7C54.1 135.1 55.7 133.4 57.3 131.8L58.2 132.7C56.9 134 55.7 135.3 54.4 136.6C54.5 136.8 54.5 136.9 54.6 137.1C55.2 136.7 55.7 136.3 56.3 135.9L57 136.8C56.2 137.4 55.5 137.9 54.7 138.6C53.9 139.3 53 140.1 52.1 140.5C51.3 140.9 50.3 141 49.4 141.1C49.1 141.1 48.8 141.2 48.5 141.2C46.1 141.6 43.8 142.4 41.6 143.2C37.8 144.6 34.1 146 30.5 148C27.3 149.8 24.2 151.9 21.6 154.5C19.5 156.5 17.7 158.9 16.4 161.5C15.9 162.6 15.4 163.8 15.2 165C14.9 166.5 14.9 168 15.1 169.6L12.7 169.9C12.6 168.8 12.5 167.7 12.4 166.6C10 163.9 7.70001 161.3 5.70001 158.3C3.50001 155 1.70001 151.4 0.80001 147.6C9.53674e-06 144.3 9.89437e-06 140.8 0.40001 137.4C0.90001 132.3 2.20001 127.3 4.80001 123C7.40001 118.6 11.2 115 15.4 112C17.3 110.6 19.4 109.4 21.4 108.1C19.6 108 17.9 107.8 16.1 107.7C14.4 107.6 13.2 106.3 13.1 104.6C13 102.7 13 100.8 13 98.8999C13 98.1999 12.5 97.5999 11.8 97.5999C11.5 97.5999 11.2 97.5999 11 97.4999C10.3 97.3999 9.80001 96.8999 9.80001 96.1999C9.90001 91.0999 10.3 86.0999 11 80.9999C11.1 80.2999 11.7 79.7999 12.4 79.8999C12.7 79.8999 13 79.8999 13.2 79.9999C13.9 80.0999 14.5 79.5999 14.6 78.8999C14.9 76.9999 15.3 75.0999 15.6 73.2999C15.9 71.5999 17.3 70.5999 19.1 70.6999C19.8 70.7999 20.4 70.7999 21.1 70.8999C21.1 69.8999 21.1 68.7999 21.1 67.7999C20.9 67.7999 20.6 67.7999 20.4 67.8999C19.7 67.9999 19.1 67.5999 18.7 66.9999C17.4 64.7999 17.2 62.1999 18 59.7999C18.2 59.0999 18.8 58.6999 19.5 58.5999C20.1 58.4999 20.7 58.4999 21.2 58.3999C21.5 49.2999 22.6 40.7999 26.1 32.9999C27.8 29.0999 30.2 25.2999 33 21.8999L35.2 23.3999C34.3 24.4999 33.4 25.5999 32.7 26.7999C29.8 31.0999 27.6 35.9999 26.3 40.9999C24.9 46.5999 24.4 52.2999 24 58.0999C45.5 56.0999 67.1 55.0999 88.7 55.0999C110.3 55.0999 131.9 56.0999 153.4 58.0999C153 52.2999 152.6 46.5999 151.1 40.9999C149.8 35.9999 147.7 31.0999 144.8 26.7999C144 25.5999 143.2 24.4999 142.2 23.3999L144.4 21.8999C147.2 25.2999 149.6 29.0999 151.3 32.9999C154.8 40.7999 155.8 49.2999 156.1 58.3999C156.7 58.4999 157.3 58.4999 157.8 58.5999C158.5 58.6999 159.1 59.0999 159.3 59.7999C160.1 62.1999 159.8 64.7999 158.6 66.9999C158.3 67.5999 157.6 67.8999 156.9 67.8999C156.7 67.8999 156.4 67.8999 156.2 67.7999C156.2 68.7999 156.2 69.8999 156.2 70.8999C157.3 70.7999 157.9 70.7999 158.6 70.6999C160.3 70.5999 161.7 71.5999 162.1 73.2999C162.5 75.1999 162.8 77.0999 163.1 78.8999C163.2 79.5999 163.8 80.0999 164.5 79.9999C164.8 79.9999 165.1 79.9999 165.3 79.8999C166 79.7999 166.6 80.2999 166.7 80.9999C167.2 86.1999 167.6 91.2999 167.7 96.2999ZM45.7 139.6C43.5 138.4 41.3 137.3 39.2 136.1C35.5 134.1 31.9 131.9 28.8 129C26.6 126.9 24.7 124.4 23.5 121.7C22.2 118.5 22 115 21.7 111.5C19.6 112.6 17.6 113.6 15.7 115C12.7 117.1 10.1 119.8 8.10001 122.8C6.00001 125.9 4.60001 129.3 3.70001 133C2.80001 136.6 2.50001 140.2 2.80001 143.9C3.10001 147 3.90001 150 5.20001 152.8C6.40001 155.5 8.20001 157.9 10 160.2C10.9 161.4 11.9 162.5 12.9 163.7C13.9 161.4 14.9 159.1 16.4 157C18 154.7 20.1 152.7 22.4 150.8C25.5 148.3 28.8 146.1 32.4 144.4C34.9 143.2 37.6 142.2 40.3 141.4C42 140.6 43.9 140.1 45.7 139.6Z" fill="#160032"/>
<path d="M167.5 124.5C167.6 125.2 167.7 125.9 167.7 126.6C165.5 123.8 162.6 121.5 159.3 120.1C159.3 119.5 159.4 119 159.4 118.4C162.6 119.7 165.4 121.7 167.5 124.5Z" fill="#160032"/>
<path d="M167.8 132.1C167.7 132.8 167.6 133.5 167.5 134.2C165.2 130.8 162.1 127.9 158.5 125.9C158.6 125.4 158.8 124.9 158.9 124.3C162.4 126.2 165.4 128.8 167.8 132.1Z" fill="#160032"/>
<path d="M167.1 135.4C167 135.7 166.9 136 166.8 136.3C166.7 136.6 166.6 136.8 166.5 137.1C164.1 133.6 161 130.8 157.3 128.7C157.6 128.1 157.9 127.5 158.1 126.9C161.7 129 164.7 131.9 167.1 135.4Z" fill="#160032"/>
<path d="M166.1 138.1C165.9 138.6 165.6 139.2 165.3 139.7C162.9 136.1 159.6 133.1 155.8 131C156.2 130.5 156.6 130 156.9 129.5C160.6 131.7 163.7 134.6 166.1 138.1Z" fill="#160032"/>
<path d="M164.7 140.6C164.4 141 164.2 141.4 163.9 141.8C163.9 141.9 163.8 141.9 163.8 142C161.2 138.3 157.8 135.3 153.7 133.3C154.2 132.8 154.7 132.2 155.2 131.7C159 134 162.2 137 164.7 140.6Z" fill="#160032"/>
<path d="M163.1 143C162.7 143.5 162.3 144 162 144.5C159.3 140.6 155.7 137.6 151.3 135.7C151.8 135.2 152.4 134.7 152.9 134.2C157.1 136.1 160.6 139.1 163.1 143Z" fill="#160032"/>
<path d="M161.5 145.1C160.8 145.9 160.1 146.7 159.5 147.5C156.9 143.1 152.8 140 147.9 138.8C148.8 138 149.6 137.3 150.5 136.5C154.9 138.2 158.7 141.2 161.5 145.1Z" fill="#160032"/>
<path d="M150.6 95.0998C150.3 96.8998 150 98.6998 149.4 100.4C148.6 102.7 147.3 104.9 145.7 106.6C144.4 107.9 142.9 109 141.2 109.6C140.1 110 139 110.3 137.8 110.4C134.7 110.7 131.7 109.8 129 108.3C124.8 106.1 121.1 102.6 117.6 99.2998C114.9 96.6998 112.3 94.1998 109.8 91.6998C107.1 88.8998 104.4 86.0998 101.7 83.3998C99.9 81.5998 98.1 79.8998 96 78.3998C94.8 77.4998 93.6 76.7998 92.3 76.1998C91.7 75.8998 91 75.6998 90.4 75.3998C91 75.2998 91.7 75.2998 92.4 75.2998C93.3 75.2998 94.2 75.4998 95 75.7998C96.2 76.1998 97.4 76.8998 98.5 77.5998C103.1 80.6998 106.8 84.3998 111 88.1998C114 90.8998 117.3 93.5998 120.5 96.1998C122.9 98.0998 125.2 99.9998 127.8 101.7C129.5 102.8 131.2 103.8 133.1 104.5C134.7 105.1 136.5 105.5 138.2 105.4C139.5 105.3 140.9 105 142.1 104.4C143.5 103.7 144.7 102.8 145.8 101.7C147 100.6 148 99.3998 148.9 98.1998C149.4 97.2998 150.1 96.3998 150.6 95.0998Z" fill="#160032"/>
<path d="M148.2 74.1999C148.7 75.4999 148.6 76.8998 148.5 78.2998C148.2 80.4998 147.7 82.5998 147.1 84.7998C147 85.0998 146.9 85.2999 146.9 85.5999C146.3 87.6999 145.5 89.6998 144.2 91.4998C143.1 92.9998 141.6 94.1998 139.9 94.8998C138.1 95.5998 136 95.5998 134 95.2998C130.3 94.6998 126.9 93.1998 123.7 91.3998C119.3 88.9998 115.2 86.1998 111.2 83.2998C109.1 81.7998 107 80.3999 105.1 78.6999C104.4 78.0999 103.7 77.3999 103.1 76.6999C102.6 76.0999 102.2 75.5998 102 74.7998C101.8 74.0998 101.8 73.3998 102.3 72.9998C102.4 72.8998 102.6 72.7998 102.8 72.7998C103.2 72.6998 103.6 72.6999 104 72.5999C107.2 72.3999 110.4 72.2998 113.6 72.2998C117.7 72.1998 121.8 72.1999 125.9 72.1999C130 72.1999 134 72.0999 137.5 72.0999C139.2 72.0999 140.7 72.0999 143 72.0999C144.2 72.0999 145.5 72.0998 146.5 72.4998C147.3 72.6998 147.9 73.3999 148.2 74.1999Z" fill="#160032"/>
<path d="M144.1 21.8999L141.9 23.3999C139.2 20.0999 136 17.1999 132.5 14.7999C127 10.9999 120.8 8.39991 114.4 6.59991C106.3 4.29991 97.9 3.19991 89.5 3.09991C89.1 3.09991 88.7 3.09991 88.4 3.09991C88 3.09991 87.6 3.09991 87.3 3.09991C78.9 3.19991 70.5 4.29991 62.4 6.59991C56 8.39991 49.8 11.0999 44.3 14.7999C40.8 17.1999 37.6 20.0999 34.9 23.3999L32.7 21.8999C35.5 18.4999 38.8 15.3999 42.4 12.8999C48.8 8.2999 56.3 5.3999 63.9 3.3999C71.9 1.3999 80.2 0.399902 88.5 0.399902C96.7 0.399902 105 1.3999 113.1 3.3999C120.8 5.2999 128.2 8.2999 134.6 12.8999C138.1 15.4999 141.3 18.4999 144.1 21.8999Z" fill="#160032"/>
<path d="M125 173.2C129.3 173.2 132.8 176.5 132.8 180.7C132.8 184.8 129.3 188.2 125 188.2C120.7 188.2 117.2 184.8 117.2 180.7C117.2 176.5 120.7 173.2 125 173.2Z" fill="#160032"/>
<path d="M120.5 136L119.8 136.9C117.5 135.2 115 133.9 112.4 132.5C107.8 130.1 103.2 127.7 98.2 126.5C95 125.7 91.7 125.3 88.4 125.3C85.1 125.3 81.8 125.7 78.6 126.5C73.6 127.8 68.9 130.1 64.4 132.5C61.9 133.8 59.4 135.2 57 136.9L56.3 136C56.9 135.5 57.6 135.1 58.2 134.6C58.2 134 58.2 133.4 58.2 132.8L57.3 131.9C59 130.1 60.7 128.4 62.5 126.6C66.1 123 69.8 119.6 73.8 116.6C75.8 115.1 77.9 113.8 80.1 112.6C81.9 111.7 83.9 110.9 85.9 110.5C86.7 110.4 87.5 110.3 88.3 110.3C89.1 110.3 89.9 110.3 90.7 110.5C92.7 110.8 94.7 111.6 96.5 112.6C98.7 113.7 100.8 115.1 102.8 116.6C106.8 119.6 110.5 123.1 114.1 126.6C115.9 128.3 117.6 130.1 119.3 131.9L118.4 132.7C118.4 133.3 118.4 133.9 118.4 134.5C119.2 135.1 119.8 135.5 120.5 136ZM112.5 130.5C112.5 129.3 112.5 128.1 112.5 126.9L112.4 126.8C111 125.6 109.6 124.4 108.2 123.2C108.2 124.7 108.2 126.3 108.2 127.8C109.6 128.6 111 129.5 112.5 130.5C112.5 130.4 112.4 130.4 112.5 130.5ZM101.9 124.8C101.9 122.7 101.9 120.6 101.9 118.5C100.5 117.5 99.1 116.6 97.6 115.8C97.6 118.4 97.6 121 97.6 123.5C99.1 123.9 100.5 124.3 101.9 124.8ZM91.4 122.7C91.4 119.6 91.4 116.5 91.4 113.4C90.4 113.2 89.4 113 88.4 113C87.4 113 86.4 113.2 85.3 113.4C85.3 116.5 85.3 119.6 85.3 122.7C86.3 122.6 87.3 122.6 88.3 122.6C89.4 122.6 90.4 122.6 91.4 122.7ZM79.2 123.6C79.2 121 79.2 118.4 79.2 115.9C77.7 116.7 76.3 117.6 74.9 118.6C74.9 120.7 74.9 122.8 74.9 124.9C76.3 124.3 77.7 123.9 79.2 123.6ZM68.7 127.8C68.7 126.3 68.7 124.7 68.7 123.2C67.2 124.4 65.8 125.6 64.5 126.8L64.4 126.9C64.4 128.1 64.4 129.3 64.4 130.5C64.4 130.5 64.5 130.5 64.5 130.4C65.8 129.5 67.2 128.6 68.7 127.8Z" fill="#160032"/>
<path d="M86.5 75.4998C85.8 75.6998 85.2 75.9998 84.6 76.2998C83.3 76.8998 82 77.6998 80.9 78.4998C78.9 79.9998 77 81.6998 75.2 83.4998C72.4 86.1998 69.8 88.9998 67.1 91.7998C64.6 94.2998 62 96.8998 59.3 99.3998C55.8 102.8 52.1 106.2 47.9 108.4C45.1 109.9 42.2 110.8 39.1 110.5C38 110.4 36.8 110.1 35.7 109.7C34 109 32.5 108 31.2 106.7C29.5 105 28.2 102.8 27.5 100.5C26.9 98.7998 26.6 96.9998 26.3 95.1998C26.9 96.3998 27.5 97.3998 28.3 98.2998C29.2 99.4998 30.3 100.7 31.4 101.8C32.5 102.9 33.7 103.8 35.1 104.5C36.3 105.1 37.6 105.4 39 105.5C40.7 105.6 42.5 105.2 44.1 104.6C46 103.9 47.7 102.9 49.4 101.8C51.9 100.1 54.3 98.1998 56.7 96.2998C59.9 93.6998 63.2 90.9998 66.2 88.2998C70.4 84.5998 74.1 80.8998 78.7 77.6998C79.8 76.9998 80.9 76.2998 82.2 75.8998C83 75.5998 83.9 75.4998 84.8 75.3998C85.2 75.2998 85.9 75.3998 86.5 75.4998Z" fill="#160032"/>
<path d="M74.5 72.7998C75 73.0998 75 73.8998 74.8 74.5998C74.6 75.3998 74.2 75.9998 73.7 76.4998C73.1 77.1998 72.4 77.8998 71.7 78.4998C69.8 80.1998 67.7 81.6998 65.6 83.0998C61.5 85.8998 57.4 88.6998 53.1 91.1998C49.9 92.9998 46.5 94.5998 42.8 95.0998C40.8 95.3998 38.8 95.3998 36.9 94.6998C35.2 93.9998 33.7 92.7998 32.6 91.2998C31.2 89.3998 30.4 87.1998 29.7 84.9998C29.7 84.8998 29.6 84.7998 29.6 84.5998C29 82.4998 28.5 80.3998 28.2 78.0998C28 76.6998 27.9 75.2998 28.5 73.9998C28.8 73.1998 29.4 72.4998 30.3 72.1998C31.3 71.7998 32.7 71.7998 33.8 71.7998C36.1 71.7998 37.7 71.7998 39.3 71.7998C42.8 71.7998 46.8 71.8998 50.9 71.8998C55 71.8998 59.1 71.8998 63.2 71.9998C66.4 71.9998 69.6 72.0998 72.8 72.2998C73.2 72.2998 73.6 72.3998 74 72.4998C74.3 72.6998 74.4 72.6998 74.5 72.7998Z" fill="#160032"/>
<path d="M59.6 180.6C59.6 184.7 56.1 188.1 51.8 188.1C47.5 188.1 44 184.8 44 180.6C44 176.5 47.5 173.1 51.8 173.1C56.1 173.2 59.6 176.5 59.6 180.6Z" fill="#160032"/>
<path d="M26.4 136.5C27.3 137.3 28.1 138 29 138.8C24 140 20 143.1 17.4 147.5C16.7 146.7 16 145.9 15.4 145.1C18.1 141.2 21.9 138.2 26.4 136.5Z" fill="#160032"/>
<path d="M23.9 134.1C24.4 134.6 25 135.1 25.5 135.6C21.1 137.5 17.5 140.5 14.8 144.4C14.4 143.9 14 143.4 13.7 142.9C16.2 139.1 19.7 136.1 23.9 134.1Z" fill="#160032"/>
<path d="M21.6 131.7C22.1 132.3 22.6 132.8 23.1 133.3C19 135.3 15.6 138.3 13 142C13 141.9 12.9 141.9 12.9 141.8C12.6 141.4 12.3 141 12.1 140.6C14.6 137 17.8 134 21.6 131.7Z" fill="#160032"/>
<path d="M19.9 129.5C20.2 130 20.6 130.6 21 131C17.2 133.1 13.9 136 11.5 139.7C11.2 139.2 10.9 138.7 10.7 138.1C13.1 134.6 16.2 131.7 19.9 129.5Z" fill="#160032"/>
<path d="M18.7 126.8C18.9 127.4 19.2 128 19.5 128.6C15.8 130.7 12.7 133.6 10.3 137C10.2 136.7 10.1 136.5 10 136.2C9.90001 135.9 9.80001 135.6 9.70001 135.3C12.1 131.9 15.1 129 18.7 126.8Z" fill="#160032"/>
<path d="M18 124.3C18.1 124.8 18.2 125.4 18.4 125.9C14.8 128 11.8 130.8 9.40001 134.2C9.30001 133.5 9.20001 132.8 9.10001 132.1C11.4 128.8 14.4 126.2 18 124.3Z" fill="#160032"/>
<path d="M17.6 121.2C17.7 121.9 17.7 122.5 17.8 123.2C14.3 125 11.3 127.5 8.90002 130.8C8.90002 130.3 8.90002 129.9 8.90002 129.5C8.90002 129.2 8.90002 128.8 8.90002 128.5C11.2 125.3 14.1 122.8 17.6 121.2Z" fill="#160032"/>
<path d="M17.4 118.4C17.4 119 17.5 119.5 17.5 120.1C14.2 121.6 11.4 123.8 9.10001 126.6C9.20001 125.9 9.2 125.2 9.3 124.5C11.4 121.7 14.2 119.7 17.4 118.4Z" fill="#160032"/>
</svg>
