<svg width="277" height="186" viewBox="0 0 277 186" fill="none" xmlns="http://www.w3.org/2000/svg">
<path d="M276.5 47.9997C276.6 48.5997 276.7 49.1998 276.5 49.5998C276.2 49.9998 275.7 50.0998 275.1 50.1998C274.2 50.2998 273.4 50.0997 272.6 49.7997C271.5 49.2997 270.5 48.6997 269.5 47.8997C268.6 47.2997 267.7 46.5998 266.7 46.0998C265.2 45.2998 263.6 44.7997 261.9 44.4997C259.1 44.0997 256.3 44.3997 253.6 45.2997C250.5 46.3997 247.7 48.2998 245.4 50.6998C243.2 52.9998 241.6 55.6997 239.9 58.3997C238.1 61.1997 236.3 64.0997 234.1 66.4997C231.6 69.2997 228.5 71.5997 225.4 73.7997L224.1 71.9997C224.7 71.4997 225.3 71.0998 225.9 70.5998C228.1 68.7998 230.2 66.8998 232.1 64.6998C233.6 62.9998 235 61.1997 236.3 59.3997C237.6 57.4997 238.9 55.5998 240.1 53.6998C240.6 52.8998 241.1 51.9998 241.6 51.1998C242 50.5998 242.3 49.9997 242.7 49.3997C243.1 48.7997 243.7 48.2997 244.3 47.7997C244.6 47.5997 244.9 47.3997 244.9 46.9997C244.9 46.8997 244.8 46.7998 244.8 46.6998C244.6 46.4998 244.2 46.5998 243.9 46.5998C243.3 46.6998 242.8 46.8998 242.3 47.0998C241.4 47.4998 240.4 47.9997 239.5 48.4997C238.8 48.8997 238.1 49.2998 237.4 49.6998C236.7 50.0998 236 50.5998 235.4 51.1998C234.9 51.7998 234.5 52.4998 234.1 53.1998C233.6 54.1998 233.2 55.0998 232.8 56.0998C232.2 57.4998 231.6 58.8997 230.9 60.2997C230.6 60.8997 230.4 61.4998 230 62.0998C229.2 63.2998 228.1 64.2997 227 65.2997C225.9 66.2997 224.8 67.1998 223.7 68.0998C222.9 68.6998 222.2 69.3998 221.4 70.0998C220.9 70.5998 220.3 70.9997 219.8 71.4997C218.5 72.4997 217.2 73.4997 216 74.4997C215.5 74.8997 215.1 75.2997 214.5 75.4997C214.3 75.5997 214.2 75.6998 214 75.6998C213.7 75.7998 213.3 75.8997 213 75.8997C212.5 75.8997 211.9 75.6997 211.5 75.3997C211.3 75.1997 211 74.9998 211 74.6998C211 74.4998 211 74.2998 211.1 74.0998C211.2 73.7998 211.5 73.5997 211.7 73.4997C212.6 72.7997 213.5 72.1997 214.3 71.4997C216.1 69.9997 217.8 68.2998 219.4 66.5998C220.9 65.0998 222.3 63.4998 223.5 61.6998C224.2 60.6998 224.8 59.6998 225 58.4998C225.2 57.6998 225.1 56.8998 225.1 56.1998C225.1 55.7998 225 55.3997 224.8 54.9998C224.7 54.7997 224.5 54.5998 224.3 54.4998C223.9 54.3997 223.5 54.7998 223.2 55.0998C222.8 55.5998 222.5 55.9998 222.3 56.4998C221.9 57.2997 221.7 58.1998 221.4 59.0998C221 60.0998 220.5 61.0998 220 61.9998C219.6 62.6998 219.3 63.3997 218.8 63.9998C218.5 64.3997 218.1 64.6997 217.7 64.8997C217.3 65.0997 216.8 65.1998 216.3 65.1998C215.7 65.1998 215.1 64.8998 214.5 64.5998C213.8 64.1998 213.2 63.5998 212.7 62.9998C212.3 62.4998 211.9 61.9998 211.3 61.6998C211 61.5998 210.7 61.4998 210.4 61.4998C210.1 61.4998 209.9 61.4998 209.6 61.5998C208.7 61.7998 207.9 62.0997 207.1 62.3997C206.5 62.5997 206 62.8998 205.5 63.1998C205 63.4998 204.5 63.9998 204.2 64.4998C204.1 64.7998 204 65.1998 204 65.5998C204.1 66.2998 204.7 66.8997 205.2 67.4997C205.7 67.9997 206.1 68.3997 206.5 68.8997C206.6 68.9997 206.7 69.1997 206.8 69.2997L203.9 70.0998C203.7 69.7998 203.3 69.6997 202.9 69.7997C202.7 69.7997 202.5 69.9998 202.3 70.1998C202.2 70.3998 202.2 70.6997 202 70.8997C201.9 70.9997 201.6 71.0998 201.4 71.0998C201 71.0998 200.6 70.9998 200.2 71.1998C200 71.2998 199.9 71.3997 199.7 71.4997C199.4 71.7997 199.3 72.1998 199.1 72.5998C198.7 73.5998 198.3 74.4997 198 75.4997C197.6 76.6997 197.3 77.8998 196.7 79.0998C196.3 79.9998 195.7 80.7997 195 81.3997C194.2 82.0997 193.3 82.3998 192.2 82.5998C191.3 82.6998 190.3 82.5997 189.4 82.3997C187.9 82.0997 186.5 81.3997 185.2 80.7997C184.3 80.3997 183.4 79.8997 182.5 79.3997C182.1 79.1997 181.8 78.9997 181.4 78.8997C181.3 78.8997 181.2 78.7997 181.1 78.7997C180.9 78.6997 180.8 78.7997 180.6 78.8997C180.5 78.9997 180.5 79.1997 180.6 79.3997C180.8 79.6997 181 79.9997 181.2 80.2997C182.1 81.3997 183.2 82.1997 184.5 82.9997C186 83.8997 187.5 84.5997 189.1 85.2997C190.2 85.7997 191.4 86.1997 192.5 86.4997C192.6 86.4997 192.8 86.5998 192.9 86.5998C193.1 86.6998 193.2 86.7997 193.3 86.9997C193.3 87.0997 193.3 87.0998 193.3 87.1998C193.3 87.2998 193.3 87.3998 193.2 87.5998C193.1 87.6998 193 87.8997 192.9 87.9997C192.5 88.4997 192.1 88.8998 191.5 89.1998C191 89.4998 190.5 89.6997 189.9 89.8997C189.5 89.9997 189.1 90.1997 189 90.3997C188.9 90.4997 188.9 90.5997 188.9 90.7997C188.9 90.8997 189 91.0998 189 91.1998C189.3 92.0998 189.5 92.8997 189.7 93.7997C189.9 94.6997 190.1 95.4997 190.2 96.3997C190.3 96.9997 190.3 97.5998 190.1 98.1998C189.9 98.8998 189.5 99.5998 189 100.1C188.4 100.7 187.6 101.1 186.8 101.4C186 101.7 185.2 101.7 184.4 101.7C183.5 101.7 182.5 101.7 181.6 101.8C180.2 101.9 178.8 102.3 177.5 102.7C176 103.1 174.6 103.6 173.1 103.9C171.3 104.2 169.4 104.3 167.5 104.3C167.2 104.3 166.9 104.3 166.5 104.3L166.6 101.7C167.7 101.7 168.7 101.7 169.8 101.6C171.3 101.4 172.7 101.1 174.2 100.7C175.5 100.3 176.7 99.7998 177.9 99.1998C179.3 98.5998 180.6 97.8998 182.1 97.1998C182.9 96.7998 183.7 96.3997 184.1 95.7997C184.7 94.7997 184.4 93.2997 183.9 91.8997C183.2 89.5997 182.3 87.6997 181.1 85.9997C180.5 85.1997 179.9 84.4997 179.2 83.7997C178.8 83.3997 178.4 82.9997 178 82.7997C177.4 82.5997 176.7 82.8997 176.2 83.2997C174.9 83.9997 174.1 84.9997 173.3 85.9997C172.7 86.7997 172.1 87.7998 171.4 88.5998C170.9 89.2998 170.3 89.9997 169.6 90.4997C169.2 90.7997 168.8 90.9998 168.3 91.0998C167 91.4998 165.6 91.3997 164.3 90.8997C163.6 90.5997 163 90.1997 162.4 89.7997C161.3 88.9997 160.5 87.8998 159.4 87.0998C158.3 86.2998 156.9 85.8998 155.6 85.5998C154.7 85.3998 153.7 85.1997 152.7 85.3997C152.3 85.4997 151.9 85.5997 151.6 85.4997C151.4 85.3997 151.2 85.2998 151.1 85.0998C151 84.9998 150.8 84.8997 150.7 84.8997C150.5 84.8997 150.4 84.8997 150.2 84.9997C148.8 86.0997 147.5 87.1997 146.1 88.2997C143.8 89.9997 141.4 91.6998 139 93.1998C137.6 94.0998 136.2 94.9997 134.7 95.7997C133.8 96.2997 132.9 96.6998 132 97.1998C130.5 97.8998 129 98.4997 127.4 98.7997C126.7 98.8997 126 98.9997 125.2 98.9997C124.3 98.9997 123.4 98.9998 122.5 98.6998C121.9 98.3998 121.3 97.9997 120.9 97.4997C120.3 96.7998 120.1 95.8997 120 94.9997C120 94.6997 119.9 94.3998 119.9 94.1998C119.9 93.9998 120 93.6998 120.1 93.5998C120.3 93.3998 120.5 93.2997 120.7 93.2997C122.4 93.3997 124.2 93.3998 125.9 93.1998C129 92.8998 132 91.9997 134.9 90.7997C137.2 89.7997 139.4 88.6997 141.4 87.2997C143 86.1997 144.7 84.9997 146 83.4997C146.9 82.5997 147.7 81.4998 148.5 80.5998C148.8 80.2998 149 79.9998 149.3 79.6998C149.6 79.3998 149.8 79.0997 150.1 78.7997C150.6 78.2997 151.1 77.8997 151.5 77.3997C151.6 77.2997 151.8 77.0997 152 76.9997C152.3 76.8997 152.8 77.0997 153.1 77.3997C153.5 77.7997 153.6 78.1998 153.6 78.6998C153.7 79.2998 153.8 79.7997 154 80.3997C154.1 80.8997 154.3 81.3998 154.6 81.6998C155.1 82.1998 156 82.1998 156.8 82.1998C157.8 82.0998 158.6 81.8998 159.4 82.1998C159.9 82.3998 160.3 82.7997 160.7 82.9997C161.4 83.3997 162.1 83.3997 162.8 83.4997C164 83.5997 165.2 83.4997 166.3 83.3997C167 83.2997 167.7 83.0997 168.4 82.7997C169 82.4997 169.6 82.0998 169.9 81.5998C170.2 81.1998 170.4 80.6998 170.7 80.1998C170.8 80.0998 170.8 79.9997 170.9 79.9997C171 79.8997 171.3 79.9998 171.5 80.0998C171.9 80.1998 172.2 80.2997 172.6 80.2997C172.7 80.2997 172.9 80.2998 173 80.1998C173.3 79.9998 173.3 79.5998 173.4 79.1998C173.4 78.7998 173.5 78.3997 173.3 77.9997C173.2 77.6997 172.9 77.3997 172.5 77.2997C172.3 77.2997 172.1 77.2997 172 77.2997C171.8 77.3997 171.7 77.7998 171.7 78.0998C171.6 78.4998 171.5 78.8998 171.2 79.0998C170.9 79.2998 170.6 79.1998 170.2 79.1998C169.2 79.0998 168.5 78.9997 167.7 78.8997C166.8 78.7997 165.9 78.6998 164.9 78.5998C163.7 78.4998 162.5 78.4997 161.5 78.4997C161.1 78.4997 160.6 78.4997 160.1 78.3997C159.8 78.3997 159.5 78.2998 159.4 78.1998C159.2 77.8998 159.9 77.1997 160.4 76.8997C160.8 76.6997 161.2 76.6998 161.5 76.6998C162.3 76.6998 163.1 76.5997 163.9 76.3997C164.4 76.2997 164.9 76.1997 165.4 75.8997C165.7 75.6997 166.1 75.3998 166.2 75.1998C166.2 74.7998 165.2 74.7997 164.4 74.7997C163.3 74.8997 162.6 74.9998 161.8 75.1998C161.1 75.2998 160.4 75.4998 159.5 75.5998C159 75.6998 158.5 75.6997 158.2 75.3997C158 75.1997 157.9 74.6997 158.1 74.3997C158.3 73.9997 158.9 73.7998 159.4 73.5998C160.5 73.2998 161.4 73.1998 162.4 73.0998C163 72.9998 163.6 72.9997 164.2 72.9997C164.5 72.9997 164.7 72.9997 164.9 72.8997C165.2 72.7997 165.4 72.3998 165.4 72.1998C165.3 71.8998 165 71.7998 164.7 71.6998C164.2 71.5998 163.9 71.5998 163.5 71.5998C162.5 71.6998 161.4 71.7997 160.4 71.9997C159.8 72.0997 159.3 72.1997 158.7 72.3997C158.2 72.5997 157.8 72.8998 157.4 73.1998C157.1 73.4998 156.9 73.8997 156.9 74.2997C156.9 74.5997 156.9 74.8998 156.8 75.1998C156.7 75.4998 156.5 75.7997 156.2 75.8997C156.1 75.9997 155.9 75.9997 155.8 75.9997C155.5 75.9997 155.4 75.4998 155.3 75.0998C155.2 74.0998 155.4 73.1997 155.8 72.4997C156 72.0997 156.3 71.6997 156.7 71.4997C157.3 71.0997 158 70.9997 158.7 70.8997C159.3 70.7997 159.8 70.6998 160.3 70.6998C160.5 70.6998 160.8 70.5998 161 70.5998C161.7 70.4998 162.5 70.4998 163.1 70.1998C164 69.7998 164.8 68.9998 165.5 68.1998C166.4 67.2998 167.3 66.4997 168.3 65.7997C169.1 65.1997 169.9 64.5998 170.8 64.1998C171.3 63.9998 171.8 63.8997 172.1 63.4998C172.4 63.1998 172.6 62.5998 172.7 62.1998C172.8 61.6998 173 61.1998 173.2 60.6998C173.3 60.4998 173.4 60.1998 173.6 60.0998C173.8 59.8998 174.1 59.8997 174.4 59.8997C174.8 59.8997 175.2 59.7998 175.5 59.6998C176.1 59.5998 176.6 59.4997 177.1 59.2997C178.7 58.7997 180.3 58.0997 181.9 57.3997C183.8 56.4997 185.6 55.5997 187.4 54.7997C188.8 54.1997 190.3 53.5997 191.8 53.3997C192.9 53.2997 194 53.3997 195.1 53.3997C196.6 53.4997 198.1 53.6998 199.5 53.6998C200.2 53.6998 200.8 53.6998 201.5 53.5998C201.9 53.5998 202.2 53.4998 202.5 53.6998C202.7 53.7998 202.8 53.9998 202.9 54.1998C203 54.5998 202.9 55.0998 202.7 55.4998C202.4 56.1998 202 56.8997 201.6 57.4998C201.4 57.8997 201.1 58.2998 200.8 58.6998C200.6 58.9998 200.6 59.2998 200.7 59.5998C200.8 59.8998 201 60.0997 201.1 60.3997C201.2 60.6997 201.3 61.0997 201.6 61.2997C201.7 61.3997 201.8 61.4998 202 61.5998C202.3 61.6998 202.7 61.5997 202.9 61.3997C203 61.1997 203.1 60.9997 203.2 60.7997C203.3 60.2997 203.2 59.7997 203.3 59.2997C203.4 58.6997 203.8 58.0998 204.1 57.4998C204.3 57.0998 204.4 56.6997 204.4 56.2997C204.5 55.4997 204.3 54.6997 204.2 53.8997C204.1 53.2997 204.1 52.5998 203.8 52.1998C203.5 51.7998 203 51.4997 202.5 51.2997C201.4 50.7997 200.3 50.3998 199.2 50.0998C198 49.6998 196.8 49.2998 195.5 49.0998C193.5 48.7998 191.5 48.9998 189.6 49.4998C187.8 49.9998 186.1 50.8998 184.3 51.6998C182 52.7998 179.7 53.9998 177.8 55.5998C177.2 55.9998 176.7 56.4998 176.1 56.9998C175.8 57.2997 175.5 57.5998 175 57.5998C174.7 57.5998 174.5 57.5997 174.3 57.3997C173.7 56.9997 174.2 55.8998 174.6 55.0998C175 54.3998 175.4 53.8997 175.8 53.3997C176.4 52.3997 176.9 51.1998 177.3 49.9998C177.5 49.3997 177.7 48.8997 178 48.3997C178.3 47.8997 178.7 47.4997 178.9 46.8997C179.1 46.3997 179.2 45.8997 179.3 45.3997C179.4 45.0997 179.6 44.7998 179.9 44.5998C180 44.4998 180.1 44.4997 180.2 44.3997C180.5 44.2997 180.7 44.2997 180.9 44.3997C181.1 44.4997 181.2 44.6997 181.3 44.8997C181.5 45.1997 181.5 45.5997 181.6 45.8997C181.6 46.0997 181.6 46.1997 181.6 46.3997C181.6 46.4997 181.7 46.5998 181.8 46.6998C181.9 46.7998 182 46.7997 182.1 46.7997C182.5 46.6997 182.8 46.6998 183.2 46.5998C184 46.3998 184.8 46.1997 185.5 45.9997C186.5 45.6997 187.5 45.3998 188.5 45.0998C190 44.6998 191.5 44.2997 193 44.3997C194.4 44.3997 195.7 44.7998 197 45.1998C198.6 45.7998 200.1 46.5997 201.6 47.2997C202.6 47.7997 203.7 48.1997 204.5 48.9998C204.9 49.2997 205.2 49.6997 205.6 49.7997C205.9 49.7997 206.2 49.6998 206.5 49.6998H206.6C206.8 49.7998 206.9 49.8998 207.1 50.0998C207.5 50.5998 207.6 51.0998 207.7 51.5998C207.8 52.2998 207.9 52.9998 208.4 53.4998C208.7 53.6998 209.1 53.7997 209.5 53.8997C210.4 53.9997 211.2 53.6997 212.1 53.3997C213.3 52.8997 214.5 52.3997 215.7 51.7997C217.5 50.8997 219.3 49.9998 221.1 48.9998C223.8 47.4998 226.5 45.9998 229.2 44.6998C232.3 43.1998 235.6 41.8997 238.9 40.8997C241.8 39.9997 244.8 39.3998 247.8 39.1998C250.9 38.9998 254.1 39.2997 257 39.9997C258.6 40.3997 260.2 40.8997 261.8 41.4997C263.5 42.1997 265.2 42.9998 266.9 43.1998C267.3 43.2998 267.7 43.2998 268.2 43.5998C268.3 43.6998 268.5 43.7998 268.6 43.6998C268.7 43.6998 268.7 43.5997 268.7 43.4997C268.8 43.1997 268.7 42.8998 268.6 42.5998C268.5 42.2998 268.3 41.9997 268.1 41.7997C267.8 41.3997 267.4 41.0998 267 40.6998C266.3 40.0998 265.6 39.4997 264.8 38.9997C263.2 37.9997 261.3 37.2997 259.4 36.7997C256.6 36.0997 253.8 35.8997 250.9 35.9997C247 36.0997 243.1 36.6998 239.3 37.5998C235.9 38.3998 232.6 39.4998 229.3 40.6998C228 41.1998 226.6 41.7997 225.3 42.3997L224.3 40.1998C227.8 38.4998 231.1 36.6997 234.7 35.2997C240.3 33.1997 246.6 32.3997 252.6 32.7997C255.5 32.9997 258.3 33.3997 261 34.2997C263.5 34.9997 265.9 36.0998 267.8 37.6998C269.5 39.0998 270.9 40.8998 272.4 42.6998C273.4 43.8998 274.4 45.0997 275 46.4997C276.1 46.6997 276.3 47.2997 276.5 47.9997ZM198.2 67.3997C198.4 67.0997 198.5 66.8998 198.5 66.5998C198.5 66.2998 198.2 65.9998 197.9 65.6998C197.7 65.4998 197.5 65.3998 197.4 65.1998C197.1 64.9998 196.8 64.9998 196.5 65.1998C196.3 65.3998 196.2 65.4998 196.1 65.6998C195.6 66.2998 195.2 66.8998 194.9 67.5998C194.7 67.9998 194.5 68.4997 194.2 68.8997C193.5 69.7997 192.3 70.0997 191.1 70.3997C190.3 70.5997 189.5 70.6997 188.7 70.7997C187.8 70.8997 186.8 70.7997 186 70.3997C185.3 70.0997 184.7 69.5997 184.2 68.9997C183.7 68.4997 183.3 67.7998 183 67.1998C182.8 66.7998 182.6 66.2997 182.4 65.8997C182.3 65.6997 182.2 65.4997 182.1 65.3997C182 65.0997 181.7 64.9997 181.5 64.9997C181 64.9997 180.5 65.0998 180 65.1998C178.9 65.3998 177.8 65.6997 177 66.3997C176.7 66.5997 176.5 66.8997 176.3 67.2997C176.1 67.6997 176.1 68.2998 176.4 68.6998C176.6 68.8998 176.9 68.9998 177.1 69.0998C177.6 69.2998 178 69.4998 178.5 69.6998C179.2 69.9998 179.9 70.2998 180.6 70.5998C181.6 71.0998 182.7 71.5997 183.8 71.9997C185 72.3997 186.3 72.7997 187.6 72.7997C188.9 72.7997 190.1 72.5998 191.4 72.1998C192.6 71.8998 193.8 71.3998 194.9 70.6998C195.7 70.0998 196.4 69.2997 197.2 68.4997C197.5 68.1997 197.9 67.7997 198.2 67.3997ZM198.2 59.9998C198.3 59.8997 198.3 59.5997 198.3 59.3997C198.2 58.7997 197.5 58.3998 197 58.1998C195.8 57.6998 194.5 57.8997 193.3 57.9998C192.3 58.0998 191.2 58.2997 190.2 58.4998C189.2 58.6998 188.2 59.0997 187.2 59.3997C187 59.3997 186.9 59.4998 186.7 59.4998C185.8 59.6998 184.8 59.8998 183.9 60.0998C183.4 60.1998 182.8 60.3997 182.2 60.4998C181.8 60.5998 181.4 60.6997 181 60.7997C180.7 60.8997 180.4 61.0997 180.3 61.3997C180.2 61.5997 180.2 61.7997 180.3 61.9998C180.4 62.1998 180.8 62.1998 181.2 62.0998C182.5 61.9998 183.5 61.7998 184.5 61.6998C186.2 61.3998 188 61.0997 189.8 60.7997C190.7 60.6997 191.6 60.5998 192.5 60.4998C193.3 60.4998 194.1 60.2997 194.8 60.2997C195.4 60.1997 196 60.1998 196.8 60.1998C197.5 60.2998 198 60.1998 198.2 59.9998ZM194.1 75.2997C194.2 74.9997 194.4 74.6998 194.4 74.5998C194.3 74.3998 193.9 74.2997 193.6 74.2997C193.2 74.2997 192.8 74.3997 192.5 74.4997C191.9 74.6997 191.3 75.0997 190.6 75.2997C189.8 75.5997 189 75.5998 188.1 75.5998C187.1 75.5998 186 75.4997 185 75.2997C183.4 74.9997 181.8 74.3997 180.3 73.4997C179.6 73.0997 178.9 72.6998 178.3 72.1998C178.2 72.0998 178.1 72.0998 178 72.1998C177.9 72.2998 177.9 72.3997 178 72.4997C178.2 72.7997 178.4 73.0997 178.6 73.3997C179 73.7997 179.4 74.1998 179.9 74.5998C180.9 75.3998 181.9 76.0998 183 76.5998C184.1 77.1998 185.3 77.5997 186.6 77.8997C187 77.9997 187.5 78.0998 187.9 78.1998C189 78.3998 190.2 78.3997 191.2 77.9997C192 77.6997 192.8 76.9997 193.3 76.3997C193.5 76.1997 193.8 75.8997 194.1 75.2997Z" fill="#000"/>
<path d="M225.1 39.9998L226.1 42.1999C223.9 43.1999 221.8 44.0998 219.6 44.9998C216.9 46.0998 214.1 47.0998 211 47.5998C209.9 47.7999 208.6 47.8998 207.5 47.7998C206.8 47.6998 206.1 47.5998 205.5 47.2998C204.7 46.8998 203.9 46.2999 203.2 45.6999C202.4 44.9999 201.6 44.2999 200.7 43.6999C199.7 42.9999 198.7 42.3998 198.1 41.3998C197.9 40.9998 197.7 40.4999 197.4 40.1999C197.1 39.8999 196.6 39.6998 196.1 39.5998C195.2 39.3998 194.3 39.3998 193.4 39.3998C190.3 39.5998 187.2 40.0998 184.3 41.4998C183.1 42.0998 181.9 42.8999 180.6 43.1999C180.4 43.2999 180.2 43.2998 180 43.2998C178.5 43.4998 176.9 42.8999 175.4 42.6999C173 42.2999 170.6 42.4999 168.3 42.5998C165.9 42.6998 163.4 42.6998 160.9 42.7998C159.6 42.8998 158.2 42.9999 157 43.5998C156.4 43.8998 155.7 44.3998 155.1 44.5998C154.6 44.6998 154.1 44.5998 153.7 44.5998C153 44.5998 152.3 44.5999 151.6 44.1999L151.5 44.0998C151.2 43.8998 150.9 43.5999 150.8 43.1999C150.7 42.5999 151.1 41.9998 151.6 41.4998C152.3 40.6998 153.1 40.2998 154 39.8998C155.8 39.0998 157.9 38.6998 159.9 38.3998C162.8 37.9998 165.7 38.0998 168.7 38.0998C170.6 38.0998 172.5 38.0998 174.3 38.2998C175.1 38.3998 175.9 38.4999 176.8 38.6999C177.8 38.9999 178.9 39.3998 179.7 38.8998C180 38.6998 180.3 38.1998 180.4 37.7998C180.5 37.0998 180.3 36.3998 179.9 35.8998C179.5 35.2998 178.8 34.9998 178.2 34.7998C177.3 34.4998 176.3 34.3998 175.3 34.2998C173.9 34.0998 172.6 33.7998 171.2 33.4998C168.3 32.8998 165.2 32.5998 162.3 32.4998C159.3 32.3998 156.3 32.3998 153.2 32.8998C151.9 33.0998 150.6 33.3998 149.6 34.0998C149.1 34.4999 148.7 34.9998 148.2 35.4998C147.7 35.8998 147.2 36.2998 146.6 36.2998C146.2 36.2998 145.8 35.9998 145.5 35.7998C144.8 35.2998 144.3 34.8999 143.7 34.1999C143.5 34.0999 143.4 33.8999 143.3 33.6999C143.2 33.5999 143.2 33.4998 143.2 33.3998C143.2 32.9998 143.7 32.5998 144.2 32.2998C145.2 31.4998 145.8 30.8998 146.7 30.3998C147.2 30.0998 147.7 29.8998 148.3 29.7998C150.3 29.1998 152.3 28.9998 154.3 28.7998C156.9 28.4998 159.4 27.9998 162.1 27.8998C163.8 27.7998 165.5 27.8998 167.2 27.9998C170 28.1998 172.6 28.5999 175.6 28.6999C176.9 28.6999 178.2 28.6998 179 27.8998C179.4 27.4998 179.6 26.8998 179.6 26.3998C179.6 25.8998 179.2 25.2998 178.8 24.8998C178.2 24.1998 177.5 23.6999 176.7 23.1999C175.6 22.4999 174.3 21.9998 173.1 21.5998C171 20.8998 168.8 20.5998 166.6 20.2998C161.5 19.6998 156.4 19.5999 151.3 20.1999C148 20.5999 144.8 21.2998 141.7 22.5998C139.9 23.3998 138.3 24.2998 136.9 25.5998C136.4 26.0998 135.9 26.6998 135.4 27.2998C135.3 27.3998 135.2 27.3998 135.1 27.4998C135 27.4998 134.9 27.4998 134.8 27.3998C134 26.7998 133.2 26.0998 132.6 25.2998C132.1 24.6998 131.7 23.8998 131.1 22.9998C130.7 22.3998 130.2 21.6998 130.5 21.2998C130.6 21.0998 130.9 20.9998 131.1 20.8998C131.6 20.7998 132.2 21.0998 132.7 21.2998C133 21.3998 133.4 21.4998 133.7 21.4998C134.1 21.4998 134.5 21.1998 134.9 20.9998C135.8 20.4998 136.7 20.0999 137.7 19.6999C139.5 18.8999 141.3 17.8999 143.3 17.1999C146.2 16.2999 149.2 15.9998 152.3 15.7998C155.6 15.5998 158.9 15.2998 162.2 15.4998C165 15.6998 167.7 16.1999 170.4 16.6999C171.2 16.8999 172 16.9999 172.9 17.1999C173.1 17.1999 173.3 17.0998 173.4 16.8998C173.5 16.6998 173.4 16.4998 173.2 16.3998C171.4 15.3998 169.6 14.3998 167.8 13.3998C161.4 9.89984 154.7 6.89984 147.5 5.39984C141.3 4.09984 134.8 3.99985 128.7 5.59985C123.7 6.89985 118.9 9.29984 114.8 12.3998C109.4 16.3998 105 21.6998 100.6 26.7998C97.4 30.4998 94.3 34.0999 91.6 38.1999C90 40.5999 88.7 43.1999 88.2 46.1999C88.1 47.0999 88 47.9999 87.5 48.6999C87 49.3999 86 49.7998 85 49.9998C83.5 50.2998 82.1 50.0998 80.7 49.7998C79.5 49.5998 78.4 49.1998 77.2 48.7998C74.9 48.0998 72.8 47.1998 70.5 46.3998C62.5 43.4998 54 41.7998 45.5 40.4998C39.2 39.4998 32.9 38.7999 26.5 38.5998C22 38.4999 17.4 38.5999 13.1 40.1999C10.9 40.9999 8.7 42.1998 7.2 43.8998C6.5 44.6998 5.9 45.4998 5.8 46.8998C5.7 47.6998 5.9 48.6998 6.4 48.7998H6.5L7.7 51.4998C7.4 51.5998 7.2 51.7998 6.9 51.8998C6 52.2998 5 52.6999 4 52.6999C3.1 52.6999 2.1 52.3998 1.5 51.7998C0.900001 51.1998 0.700007 50.2998 0.600007 49.4998C0.500007 48.4998 0.700007 47.3998 1.10001 46.4998C1.80001 44.7998 3 43.3998 4.4 42.0998C5.89999 40.6998 7.59999 39.4999 9.39999 38.5998C13 36.7999 17 35.9998 21.1 35.4998C26.2 34.7998 31.2 34.5998 36.3 34.8998C43.4 35.2998 50.6 36.6998 57.6 38.2998C61.8 39.2998 65.9 40.2999 70 41.6999C72.5 42.5999 75 43.5998 77.4 44.4998C78.3 44.8998 79.3 45.1998 80.3 45.5998C81.1 45.8998 81.9 46.2999 82.6 46.0998C83.1 45.8998 83.5 45.4998 83.8 44.9998C84.4 43.9998 84.5 42.8998 84.8 41.7998C85.4 39.6998 86.7 37.6998 88.1 35.8998C92.2 30.2998 96.4 25.0999 101 20.1999C104.5 16.3999 108.1 12.7999 111.9 9.19985C113.8 7.39985 115.8 5.59984 118.1 4.49984C120.7 3.29984 123.7 3.09985 126.6 2.59985C129.7 2.09985 132.7 1.29984 135.8 0.999842C139.2 0.699842 142.7 0.899836 146.2 1.39984C149.7 1.89984 153.2 2.69983 156.6 3.79983C161.3 5.39983 165.7 7.79985 170.1 10.1999C175.2 12.9999 180.2 15.7998 184.9 19.0998C186.9 20.4998 188.9 22.0999 190.7 23.6999C194.7 27.2999 198.1 31.4998 200.8 36.3998C202 38.3998 203 40.5998 204.8 41.8998C206.6 43.1998 209.1 43.6999 211.5 43.6999C215.9 43.8999 220.6 42.0998 225.1 39.9998ZM192.5 34.4998C192.6 34.3998 192.6 34.1998 192.5 34.0998C192.1 33.4999 191.7 32.7999 191.3 32.1999C190.3 30.6999 189.2 29.2998 187.9 28.0998C186.5 26.7998 185.1 25.5998 183.6 24.4998C183.5 24.3998 183.3 24.3998 183.2 24.4998C183.1 24.5998 183 24.6998 183 24.8998V24.9998C183.1 25.5998 183.5 26.1998 183.9 26.8998C184.1 27.2998 184.3 27.7999 184.3 28.1999C184.2 28.4999 184.1 28.7998 183.8 29.0998C183.7 29.1998 183.6 29.2998 183.6 29.4998C183.5 29.7998 183.7 30.0998 183.9 30.4998C184.3 31.2998 184.5 31.9998 184.7 32.7998C184.8 33.3998 184.9 34.0999 184.9 34.6999C184.9 35.0999 184.9 35.4998 184.8 35.7998C184.7 36.0998 184.5 36.2998 184.6 36.4998C184.7 36.6998 185 36.8998 185.3 36.8998C185.8 36.8998 186.1 36.4999 186.5 36.1999C187.2 35.5999 188 35.3998 188.8 35.2998C190 34.9998 191.2 34.8998 192.5 34.7998C192.3 34.6998 192.4 34.5998 192.5 34.4998Z" fill="#000"/>
<path d="M224.1 72L225.4 73.7999C223.8 74.9999 222.1 76.0999 220.5 77.2999C218.7 78.5999 217 79.9999 215 80.8999C213.7 81.4999 212.2 81.8999 210.8 82.3999C209.6 82.7999 208.5 83.2999 207.5 84C206.3 84.9 205.4 86.0999 204.8 87.3999C204.1 89.0999 204 90.9999 203.7 92.8999C203.4 94.8999 202.8 96.8 201.9 98.6C200.6 101.1 198.8 103.4 196.6 105.2C195.7 106 194.8 106.6 194 107.6C193.6 108.1 193.2 108.6 193.2 109.1C193.1 109.8 193.5 110.6 193.9 111.3C195.4 113.8 197.2 115.7 198.9 117.8C200.6 119.9 202 122.2 203.3 124.7L201.7 125.5C201.7 125.5 201.7 125.5 201.6 125.5C201.5 125.6 201.4 126.1 201.3 126.5C201.1 127.2 201 127.7 200.9 128.2C200.4 130.1 199.9 132.4 199.5 134.6C199.2 136.2 198.8 137.8 198.2 139.3C197.7 140.6 197 141.8 196.3 143C195.1 145.1 193.9 147.1 192.7 149.2C192.6 149.4 192.5 149.6 192.4 149.8C191.2 152 190.1 154.2 189.1 156.4C188.7 157.4 188.2 158.4 188 159.5C187.8 160.6 188 161.8 188 162.9C188.1 165.4 188 167.7 188 170.3C188 171.2 188 172.2 187.8 173.1C187.7 173.5 187.6 173.8 187.4 174.2C187.3 174.4 187.3 174.6 187.4 174.8C187.5 175 187.7 175.1 187.9 175.1C188.6 175.1 189.2 175.1 189.9 175C190.4 174.9 191 174.8 191.5 174.7L192.1 176.7C189.4 177.5 186.7 178.3 184 179.1C177.3 181 170.4 182.6 163.5 183.7C158.9 184.4 154.3 184.9 149.6 185.2C145.9 185.4 142.3 185.5 138.6 185.3C135 185.2 131.3 184.9 127.8 184.3C121.3 183.3 114.9 181.6 108.6 179.8C103.1 178.2 97.7 176.6 92.3 174.8C87.8 173.4 83.3 171.9 78.9 170.3C73.7 168.5 68.5 166.6 63.4 164.4C60.9 163.3 58.5 162.2 56.1 161.2C54.6 160.6 53.1 159.9 51.7 158.9C50.8 158.2 50 157.3 49.6 156.3C49.2 155.2 49.4 153.9 49.5 152.6C49.8 150.4 50.1 148.4 50.5 146.3C51.9 140 54.7 133.8 57.4 127.7C59.5 122.8 61.6 117.9 64.4 113.4C65.9 111 67.6 108.8 69.5 106.7C71.5 104.4 73.6 102.3 75.8 100.2C76.1 99.9 76.2 99.6 76.1 99.2C76 98.8 75.7 98.5999 75.3 98.5C73.5 98.2 71.7 97.8 70 97.1C65.6 95.5 61.9 92.2 58.2 89C52 83.5 46.1 78 40.6 72C35.6 66.6 30.9 60.8999 25.2 56.2999C23.2 54.6999 21.2 53.2999 19.2 51.7999C18.1 50.9999 17.1 50.1999 16 49.4999C15.1 48.9 14 48.4 12.9 48.2C12.1 48.1 11.3 48.1999 10.7 48.4999C10.1 48.9 9.69998 49.4999 9.19998 49.9999C8.59998 50.7 7.79998 51.2 6.99998 51.6L5.79999 48.8999C6.09999 48.8999 6.39998 48.6999 6.69998 48.3999C7.19998 47.8999 6.99999 46.9999 7.29999 46.4999C7.59999 45.9999 8.19998 45.8 8.69998 45.6C10.8 44.7 12.6 43.8999 14.5 43.3999C17.4 42.5999 20.7 42.6 23.8 42.7C27.7 42.8 31.6 43.1 35.4 43.6C41.3 44.4 47.2 45.4999 53 46.9999C59.1 48.5999 65 50.4999 70.8 52.7999C76 54.7999 81.2 57.1 85.9 60.2C87.3 61.1 88.7 62.0999 90.2 62.8999C91.6 63.5999 93 64.1 94.5 64.5C94.7 64.6 94.9 64.7 94.9 65C94.9 65.2 94.9 65.5 94.7 65.6C94.3 65.9 93.9 66.3 93.5 66.6C93 66.9 92.5 67.1999 92 67.2999C91.4 67.3999 90.8 67.2 90.2 67.1C89.3 66.8 88.5 66.4999 87.5 66.2999C86.8 66.0999 85.9 66 85.1 66.1C84.3 66.1 83.5 66.2999 82.7 66.5C81.6 66.7999 80.5 67 79.6 67.5C79 67.9 78.5 68.2999 78 68.8999C77.6 69.3999 77.2 69.7999 77 70.3999C76.9 70.6999 76.9 71 76.9 71.2C77 71.8 77.9 71.8999 78.3 72.3999C78.6 72.6999 78.7 73.2 78.6 73.7C78.5 74.3 77.8 74.8 77.2 75.2C76.5 75.7 75.7 76 75 76C73.9 76 72.7 75.3999 71.7 74.8999C70.2 74.0999 68.9 73.2999 67.6 72.5C66.9 72.1 66.2 71.6 65.6 71C64.8 70.1 64.3 68.7999 64 67.5C63.6 66.1 63.3 64.7 63.1 63.2C63 62.5 62.8 61.8 62.5 61.1C62.3 60.7 62.1 60.3 61.7 60.1C61.5 60 61.2 60 61.1 60.1C60.8 60.3 60.8 60.7 60.8 61.1C60.8 62 60.8 62.8 60.9 63.6C61 64.7 61.3 65.6999 61.6 66.7999C62.2 68.6999 63 70.5999 64 72.2999C65 73.9999 66.4 75.6 67.7 77.1C69.4 79 71.1 80.9 73.1 82.5C74.4 83.5 75.8 84.4 77.4 85C78.4 85.4 79.5 85.5 80.7 85.6C82.4 85.7 84.2 85.5999 85.9 85.5C87 85.4 88 85.2 89.1 85.2C90.4 85.2 91.8 85.3 93 85.6C93.8 85.8 94.4 86.1 95.2 86.7C95.5 86.9 95.7 87.0999 95.7 87.2999C95.7 87.4999 95.4 87.6999 95.2 87.8999C94.4 88.3999 93.8 88.7 93.1 89.1C92.5 89.4 91.9 89.9 91.2 90.1C90.8 90.2 90.4 90.2999 90 90.2999C89.5 90.2999 89 90.3 88.5 90.2C87.9 90.1 87.4 90 86.9 90C85.8 90 84.7 90.3 83.8 90.6C83.4 90.7 83 90.8999 82.6 90.8999C81.9 90.8999 81 90.6 80.2 90.2C78.4 89.4 76.8 88.5 75.3 87.6C72.9 86.3 70.7 85 68.5 83.6C66.8 82.5 65.1 81.4 63.6 80.1C63 79.6 62.5 79.2 62 78.6C59.9 76.5 58.3 73.5 56.9 70.6C55.2 67.2 53.8 63.7999 52.3 60.5C51.8 59.2 51.2 58 50.5 56.7C49.9 55.5 49.1 54.4 48.3 53.2C48.1 52.9 47.9 52.5999 47.6 52.3999C47.1 51.9999 46.3 52 45.6 52C44.7 51.9 43.8 51.7 43 51.5C41.5 51.1 40 50.6999 38.5 50.2999C36.1 49.5999 33.7 48.8 31.3 47.9999C31.3 48.4 31.4 48.8 31.3 49.1C31.2 49.5 30.9 49.9999 30.6 50.2999C30.2 50.6999 29.6 50.9999 29.1 51.2999C28.8 51.4999 28.4 51.6999 28.1 51.8999C27.9 52.0999 27.7 52.3 27.7 52.5C27.7 52.7 27.7 52.9 27.8 53C28 53.3 28.3 53.4999 28.6 53.7999C30.2 54.9999 31.7 56.3 33.2 57.7C34.8 59.2 36.4 60.9 37.8 62.7C38.5 63.6 39.1 64.5 39.9 65.2C41 66.2 42.5 66.9 43.8 67.7C44.8 68.4 45.8 69.2 46.6 70.1C47.7 71.3 48.5 72.7 49.4 74.1C50.1 75.3 50.8 76.5 51.8 77.5C52.8 78.5999 54.1 79.3999 55.4 80.2999C56.5 81.0999 57.6 81.9999 58.7 82.8999C61 84.9999 63 87.3999 65.5 89.2999C67.2 90.5999 69 91.5999 71 92.3999C73.2 93.1999 75.5 93.6999 77.8 93.8999C80.7 94.1999 83.6 94.2 86.4 93.6C87.9 93.3 89.4 92.7999 90.8 92.2999C91.7 91.9999 92.6 91.6999 93.6 91.3999C94.5 91.0999 95.3 90.9 96.2 90.7C96.5 90.6 96.8 90.6999 97.1 90.7999C97.4 90.9999 97.5 91.2 97.6 91.5C97.9 93.0999 98.1 94.7999 98.5 96.3999C99 98.5999 99.9 100.8 100.4 103C100.7 104.3 101 105.6 101.3 107C101.5 108.2 101.8 109.4 102.2 110.5C102.7 111.9 103.3 113.2 104.1 114.5C104.6 115.5 105.2 116.5 106 117.1C107.3 118 109.3 117.9 111.2 117.6C115.4 117.1 118.7 116.7 122.6 115.9C125 115.4 127.6 114.8 129.8 113.8C131.8 112.9 133.4 111.6 135.1 110.3C136.4 109.4 137.7 108.6 139.1 107.7C139.9 107.2 140.7 106.7 141.4 106.4C141.8 106.2 142.3 106.1 142.8 106.1C143.1 106.1 143.3 106.1 143.5 106.3C143.8 106.6 143.5 107.2 143.3 107.7C142.8 108.7 142.3 109.3 141.5 109.9C141 110.3 140.4 110.6 139.7 110.9C139 111.3 138.3 111.6 137.6 111.9C137.2 112.1 136.8 112.4 136.6 112.7C136.3 113.1 136.3 113.7 136.2 114.2C136.1 114.7 136 115.1 135.8 115.6C135.6 116 135.4 116.4 135.1 116.6C134.7 117 134 117.2 133.4 117.4C132.2 117.8 131.1 118.1 130 118.4C129.4 118.5 128.8 118.7 128.3 118.8C127.4 119.1 126.6 119.6 125.8 120.1C124.8 120.7 123.8 121.2 122.8 121.6C121.6 122.1 120.4 122.6 119 122.9C118.3 123.1 117.6 123.2 116.8 123.2C116.3 123.2 115.8 123.2 115.3 123.3C115.1 123.3 114.9 123.4 114.7 123.4C114.5 123.5 114.3 123.6 114.3 123.8C114.2 124 114.3 124.2 114.4 124.4C114.9 125 115.4 125.6 116 126.2C117.4 127.5 119.1 128.5 120.8 129.5C121.9 130.1 122.9 130.8 123.9 131.5C124.4 131.9 124.8 132.2 125.3 132.6C125.5 132.7 125.6 132.8 125.8 132.8C126.2 132.9 126.6 132.4 127 132.1C127.8 131.3 128.6 130.8 129.5 130.4C131.5 129.3 133.8 128.4 136 127.7C137.5 127.2 139.1 126.8 140.7 126C141.2 125.8 141.7 125.5 142.1 125.3C143.2 124.6 143.7 123.7 144.5 122.9C145.1 122.2 145.9 121.4 146.8 120.8C147.5 120.3 148.2 119.9 148.9 119.6C149.4 119.4 149.9 119.3 149.9 118.9C150 118.5 149.6 118 149.3 117.5C148.7 116.7 148 116.1 147.5 115.4C147 114.7 146.6 114 146.3 113.2C146.1 112.5 145.9 111.8 146 111.1C146 110.9 146.1 110.6 146.3 110.5C146.7 110.2 147.5 110.6 148.3 111C149.9 111.9 151.1 112.6 151.9 113.2C152.7 113.7 153.3 114.2 154.4 114.7C156.7 115.7 161 116.5 164.5 116.2C166.2 116 167.7 115.6 169.2 115.1C170 114.8 170.8 114.6 171.3 114C171.7 113.6 171.8 113 172 112.5C172 112.4 172.1 112.2 172.1 112.1C172.1 111.9 172.3 111.7 172.6 111.6C173.5 111.4 174.3 111.1 175.1 110.7C176.3 110.1 177.3 109 178.1 107.8C178.7 107 179.2 106.2 180 105.6C181 104.9 182.3 104.6 183.7 104.4C184.7 104.3 185.6 104.2 186.4 103.8C187.7 103.3 188.7 102.2 189.8 101.3C191 100.2 192.3 99.3 193.4 98.2C194.4 97.2 195.3 96.0999 196 94.8999C196.4 94.2999 196.8 93.6999 197 92.8999C197.1 92.3999 197.2 91.6999 196.9 91.2999C196.6 90.7999 195.9 90.6999 195.4 90.2999C194.4 89.5999 194.3 88.3 194.6 87.1C194.7 86.8 194.7 86.4999 194.8 86.2999C195.4 84.6999 196.4 83.6 197.7 82.6C198.6 81.8 199.6 81.1 200.3 80.2C200.8 79.5 201.2 78.6999 201.4 77.8999C201.6 77.0999 201.8 76.4 201.8 75.6C201.8 75.2 201.8 74.7999 201.7 74.3999C201.7 74.1999 201.6 73.8999 201.7 73.7999C201.8 73.6999 201.9 73.7 202 73.6C202.5 73.3 202.8 72.9 203.2 72.6C203.5 72.3 203.8 72 203.9 71.7C204.1 71.4 204.1 71 204 70.6C204 70.4 203.9 70.2 203.7 70.1L206.6 69.2999C206.7 69.3999 206.7 69.6 206.8 69.7C207 70.2 207.2 70.7999 207.2 71.2999C207.3 71.8999 207.2 72.5 207.2 73.1C207.2 74.5 207.2 75.7 207.2 77.1C207.2 77.7 207.1 78.3999 207.5 78.8999C207.7 79.1999 208 79.5 208.3 79.6C208.7 79.7 209.2 79.4999 209.6 79.3999C210.8 78.8999 212 78.5 213.1 78C213.8 77.7 214.5 77.4 215.2 77C216.1 76.5999 217.1 76.1 218 75.6C220.3 74.5 222.3 73.2999 224.1 72ZM194.9 127.7C195 125.6 195 123.6 194.8 121.5C194.7 120.3 194.5 119 193.8 118.1C193.5 117.8 193.2 117.5 192.9 117.1C192.4 116.4 192.4 115.4 191.9 114.7C191.7 114.4 191.5 114.2 191.3 113.9C191.2 113.8 191.2 113.7 191.1 113.6C190.8 113 190.9 112.4 191 111.6C191 110.8 191 109.8 190.7 109.5C190.2 109.1 189.1 110.2 188.3 111.2C186.5 113.2 185.6 114.5 184.5 116.1C183.4 117.8 182 119.7 180.4 121.2C179.1 122.4 177.7 123.3 176.3 124.3C176.2 124.4 176.1 124.4 176 124.5C174.7 125.4 173.4 126.3 172.5 127.5C171.6 128.8 171.2 130.4 170.9 132C170.5 133.9 170.3 135.8 169.6 137.6C169.3 138.5 168.8 139.3 168.7 140.2C168.4 141.5 168.7 142.8 168.6 144.2C168.5 146 167.7 147.7 167 149.4C166 151.9 165.3 154.5 164.9 157.2C164.6 159.6 164.6 162 165.2 164.4C165.6 166 166.3 167.5 166.6 169C166.9 170.6 166.7 172.3 167.1 173.9C167.4 174.8 167.8 175.8 167.8 176.7C167.8 177.2 167.7 177.7 167.9 178.1C168 178.5 168.3 178.9 168.7 179.1C169.3 179.4 170.1 179.3 170.8 179.1C171.5 179 172.2 178.9 172.9 178.7C173.3 178.6 173.8 178.4 174.1 178.1C174.3 177.8 174.4 177.3 174.3 176.9C174.2 176.5 173.7 176.1 173.5 175.7C173.3 175.3 173.4 174.8 173.5 174.2C173.6 172.7 173.5 171.3 173.3 169.9C173 167.9 172.8 165.9 172.6 163.9C172.5 162.6 172.4 161.4 172.6 160.2C172.9 158.2 173.6 156.2 174.3 154.5C174.5 154.1 174.6 153.6 175.1 153.2C175.3 153 175.6 152.8 175.7 152.8H175.8C175.9 152.9 176 153.1 176.1 153.3C176.2 153.8 176.3 154.3 176.4 154.7C176.6 156.2 176.7 157.9 176.8 159.5C176.9 160.9 177.1 162.2 177.3 163.5C177.4 164.5 177.6 165.4 177.8 166.4C177.9 166.9 178.1 167.3 178.3 167.7C178.4 167.9 178.7 168 178.9 168C179.2 168 179.3 167.8 179.4 167.5C179.6 166.4 179.8 165.4 180.1 164.3C180.6 162.7 181.5 161.1 182.1 159.6C183 157.5 183.4 155.4 184.2 153.3C184.9 151.3 185.9 149.2 186.6 147.1C187.7 144 188.4 141 189.9 138.2C190.5 136.9 191.4 135.7 192.3 134.7C192.7 134.3 193.1 133.8 193.4 133.4C194.6 132 194.8 129.8 194.9 127.7ZM166.5 137.3C166.5 136.9 166.5 136.5 166.5 136C166.5 135.6 166.5 135.2 166.5 134.8C166.5 134.6 166.4 134.5 166.3 134.4C166.1 134.3 166 134.3 165.8 134.5C165.7 134.6 165.7 134.6 165.6 134.7C165.3 135 164.9 135.2 164.6 135.4C164 135.8 163.4 136.2 162.8 136.6C161.4 137.5 159.9 138.2 158.3 138.8C158.1 138.9 158 138.9 157.8 139C156 139.6 154.2 140 152.3 140.3C149.5 140.8 146.7 141.2 143.9 141.4C142.5 141.5 141.1 141.6 139.8 141.4C138.1 141.2 136.5 140.6 134.9 140C132.3 139.2 129.8 138.4 127.2 137.7C126 137.3 124.8 137 123.9 136.3C123.1 135.6 122.5 134.6 121.7 133.9C121 133.2 120 132.7 119.1 132.2C118.7 131.9 118.3 131.7 117.9 131.4C117.7 131.3 117.5 131.3 117.4 131.5C117.3 131.6 117.2 131.9 117.3 132C117.3 132.1 117.4 132.1 117.4 132.2C118 133.2 118.8 134.1 119.7 135C121.1 136.5 122.5 137.9 123.9 139.4C125.4 141.1 126.9 142.8 128.7 144.2C129.6 144.9 130.6 145.5 131.6 145.9C132.7 146.3 134 146.5 135.2 146.6C137.2 146.7 139.3 146.6 141.2 146C142.1 145.8 143 145.4 143.8 145.1C145.4 144.5 147.1 143.9 148.7 143.4C151.5 142.4 154.4 141.5 157.1 140.6C157.5 140.5 157.8 140.3 158.1 140.2C159.1 139.8 160.2 139.5 161.4 139.1C161.9 138.9 162.5 138.8 162.9 139.1C163.1 139.3 163.3 139.6 163.3 139.9C163.3 140.2 163.1 140.5 162.8 140.8C161.7 142.1 160.3 142.9 158.9 143.6C157.5 144.3 156 145 154.6 145.6C152 146.7 149.4 147.5 146.6 148.3C144.4 148.9 142.1 149.4 140 149.8C138.5 150.1 137.1 150.2 135.4 150.4C135 150.4 134.5 150.5 134.3 150.8C134.1 151 134.1 151.3 134.1 151.6C134.2 152 134.4 152.2 134.6 152.5C135.2 153.3 135.7 154 136.2 154.8C137 156 137.7 157.1 138.4 158.4C139.4 160.2 140.4 162.2 141.2 163.8C141.8 165 142.4 165.9 143.1 167.7C143.3 168.3 143.6 168.9 144 168.8C144.1 168.8 144.2 168.7 144.3 168.6C144.8 168.2 145.1 167.7 145.5 167.2C146.5 165.8 147.9 164.6 149.2 163.4C150.6 162.2 151.8 161 153.3 159.8C154.2 159.1 155.1 158.4 156.1 158.2C156.4 158.1 156.7 158.1 157 158.1C157.2 158.1 157.4 158.2 157.5 158.5C157.5 159 157.6 159.5 157.6 160C157.7 160.8 157.7 161.6 157.9 162.3C158 162.7 158.2 163.1 158.5 163.3C158.8 163.5 159.3 163.6 159.6 163.4C159.8 163.2 159.9 162.8 160 162.5C160.1 161.6 160.1 160.9 160.1 160.1C160.2 159 160.4 157.8 160.5 156.7C160.6 156 160.7 155.3 160.8 154.6C160.8 154.3 160.7 154 160.4 153.9C159.9 153.7 159.3 153.6 158.8 153.5C158 153.4 157.3 153.3 156.5 153.2C155.5 153.2 154.5 153.2 153.4 153.2C151.8 153.2 150.1 153.1 148.6 153.1C147.9 153.1 147.2 153.1 146.3 152.9C145.7 152.8 145 152.5 144.9 152.2C144.9 152 145.2 151.7 145.5 151.5C146 151.2 146.6 151.1 147.1 150.9C148 150.6 148.8 150.1 149.6 149.7C150.9 149.1 152.2 148.5 153.6 147.9C155.1 147.3 156.6 146.6 158.1 145.9C159.5 145.2 160.9 144.4 162.2 143.4C163.3 142.4 164.3 141.3 165.2 140C165.9 139.1 166.4 138.2 166.5 137.3ZM163.5 179.7C163.5 179.4 163 179.3 162.5 179.2C161.7 179.1 161.2 179 160.6 179C159.8 179 159 179 158.2 178.9C157.4 178.8 156.7 178.7 156 178.3C155.7 178.1 155.4 177.9 155.4 177.6C155.2 177.1 155.7 176.4 156.2 176C156.6 175.6 157.1 175.3 157.6 175.1C158.2 174.8 158.8 174.5 159.4 174.2C159.8 174 160.1 173.9 160.5 173.8C160.6 173.8 160.7 173.6 160.7 173.4C160.7 173.3 160.6 173.1 160.4 173.1C160 173.1 159.5 173.1 159 173.1C157.9 173.1 156.5 173.2 155.4 173.5C154.3 173.8 153.4 174.4 152.2 175.2C151.7 175.5 151.1 175.9 151.2 176.2C151.3 176.4 151.8 176.5 152.2 176.7C152.5 176.8 152.8 177 152.8 177.2C152.9 177.5 152.6 177.9 152.3 178.2C151.9 178.5 151.5 178.6 151.1 178.7C150.8 178.8 150.5 178.8 150.3 179C150 179.2 149.9 179.6 149.8 179.9C149.7 180.5 149.8 181.1 150.1 181.4C150.4 181.7 150.9 181.8 151.4 181.8C152.3 181.8 153.1 181.4 154 181.2C154.5 181.1 155.1 181.1 155.7 181.1C156.3 181.1 156.8 181.1 157.4 181C158.5 180.9 159.4 180.4 160.5 180.4C161.3 180.3 162.3 180.5 162.9 180.3C163.1 180.2 163.3 180.2 163.4 180C163.4 179.9 163.5 179.8 163.5 179.7ZM150 127C150.1 126.7 150.3 126.3 150.2 126.1C150.1 126 149.7 126 149.4 126.1C148.6 126.3 148.1 126.6 147.6 126.9C147 127.3 146.3 127.7 145.6 128.2C144.7 128.8 144 129.4 143.1 129.9C142.4 130.2 141.7 130.5 141 130.8C140.5 131 140 131.2 139.5 131.5C138.9 131.9 138.4 132.5 137.8 133C137.4 133.4 137 133.7 136.6 134C136 134.4 135.3 134.6 134.6 134.9C134 135.1 133.4 135.3 132.8 135.4C132.7 135.4 132.7 135.5 132.7 135.5C132.7 135.6 132.7 135.6 132.7 135.7C132.8 135.8 132.9 135.9 133 136C133.3 136.3 133.7 136.4 134.1 136.5C134.8 136.5 135.5 136.1 136.1 135.8C137.3 135.1 138.3 134.5 139.4 133.7C140.2 133.1 140.9 132.5 141.8 132C143.1 131.2 144.5 130.7 146 130.3C146.7 130.1 147.4 129.8 148.1 129.5C148.6 129.2 149.1 128.9 149.5 128.5C149.6 128 149.8 127.6 150 127ZM145 182.4C145.1 182.2 145.1 182 145 181.8C144.4 180.8 144 179.7 143.5 178.6C142.1 175.2 140.7 171.6 139.3 168C138.4 165.6 137.5 163.2 136.4 161C135.4 159.1 134.3 157.4 133.1 155.7C132.1 154.3 131 153 129.9 151.7C126.5 147.8 122.6 144.4 119.2 140.9C117 138.6 114.9 136.3 112.6 133.4C111.8 132.5 111 131.5 110.2 130.7C109.7 130.3 109.3 129.9 108.9 129.4C108.2 128.5 107.7 127.1 107 126C106.2 124.8 105 123.9 103.7 123.2C102.9 122.7 102.1 122.3 101.6 121.7C101 120.9 100.7 119.8 100.5 118.7C100.4 118 100.3 117.4 100.1 116.8C99.8 116.1 99.3 115.5 98.8 115C98.3 114.6 97.8 114.3 97.4 113.8C97.2 113.5 97 113 97.1 112.6C97.2 112.1 97.4 111.7 97.7 111.3C97.9 110.9 98.1 110.5 98.3 110C98.6 109.1 98.8 107.9 98.3 107.2C97.8 106.4 96.6 106 95.4 105.9C93.6 105.6 92 105.7 90.3 106C89.1 106.2 87.9 106.5 87 107.2C85.1 108.6 85 111.8 84.9 114.6C84.8 116.6 84.8 118.5 85.3 120.1C86 122.3 87.9 124.3 89.4 126.3C90.8 128.3 91.8 130.4 93 132.5C95.3 136.5 98.1 140.5 100.3 144.4C101.3 146.2 102.2 147.9 103.4 149.7C104.4 151.2 105.6 152.8 106.3 154.3C106.7 155.3 106.9 156.3 107 157.3C107 158.3 107 159.2 107 160.5C107 161.1 107 161.7 106.7 161.9C106.5 162.1 106.2 162 105.9 161.9C105.4 161.6 105.1 160.9 104.8 160.2C104.4 159.1 104 158.1 103.6 157.1C102.5 154.7 100.8 152.5 99 150.5C97 148.3 94.8 146.4 92.8 144.3C92.4 143.9 92 143.4 91.7 142.9C90.9 141.8 90.6 140.4 90.2 139C90 138.3 89.8 137.7 89.6 137.1C89.5 136.7 89.3 136.4 89 136.1C88.9 136 88.7 135.8 88.5 135.8C88.2 135.8 87.9 136.2 87.7 136.5C87.6 136.7 87.6 137 87.5 137.1C87.4 137.3 87.2 137.5 87 137.4C86.5 137.3 86.2 136.5 86 135.7C85.8 134.8 85.7 134.1 85.8 133.2C85.8 132.8 85.9 132.3 85.8 131.9C85.7 131.2 85.4 130.5 85 130C84.7 129.6 84.2 129.4 83.8 129C83.1 128.4 82.4 127.4 81.9 126.5C81.5 125.9 81.3 125.3 81.1 124.7C80.7 123.5 80.6 122 80.5 120.7C80.4 120 80.4 119.3 80.3 118.7C80.1 117.8 79.7 116.9 79.8 116C79.9 115.1 80.3 114.3 80.6 113.3C80.8 112.6 80.8 111.8 80.4 111.2C80 110.6 79.1 110.4 78.4 110.3C77.4 110.2 76.5 110.2 75.6 109.9C75.1 109.8 74.7 109.5 74.2 109.5C73.6 109.6 73.1 110.1 72.6 110.6C71 112.5 69.9 114.4 68.9 116.4C67.6 118.9 66.2 121.7 65 124.4C64.3 125.8 63.7 127.2 63 128.4C62.5 129.2 62 129.9 61.5 130.7C60.5 132.4 59.8 134.6 59.1 136.6C58.8 137.6 58.5 138.6 58.1 139.6C57.3 142.2 56.5 144.7 55.9 147.3C55.4 149.1 55 150.9 55.3 152.8C55.5 154.1 55.9 155.5 56.9 156.3C57.5 156.9 58.4 157.2 59.2 157.4C61.2 158.1 63.2 158.7 65.1 159.5C66.1 160 67.1 160.5 68.1 161.1C68.5 161.4 69 161.6 69.5 161.6C69.8 161.6 70.2 161.5 70.5 161.3C70.8 161 70.9 160.4 70.9 159.9C70.8 158.8 70.1 158.1 69.5 157.3C68.6 156 67.8 154.7 66.9 153.5C66.5 152.9 66 152.4 65.5 151.8C65.2 151.4 65 151.1 64.6 150.9C64.4 150.8 64.2 150.7 63.9 150.8C63.6 150.8 63.3 151.1 63 151.2C62.8 151.3 62.6 151.5 62.4 151.6C62.3 151.6 62.2 151.7 62.1 151.7C61.8 151.8 61.5 151.7 61.3 151.4C61 150.9 60.8 150.4 60.5 149.9C59.9 148.4 59.8 146.7 59.8 145.2C59.8 144.1 59.9 143.1 59.8 141.6C59.8 141 59.8 140.4 59.9 140C59.9 139.9 60 139.8 60.1 139.7C60.4 139.6 60.9 140.4 61.5 141.1C63.4 143.7 64.6 145.1 66 146.7C67.6 148.6 69.7 150.8 71.2 153.2C71.9 154.3 72.4 155.4 73.1 156.4C73.9 157.7 74.9 158.9 76 159.9C76.9 160.8 77.8 161.6 78.5 162.6C79 163.2 79.4 163.8 79.7 164.4C79.9 164.8 80.1 165.3 80.5 165.5C80.8 165.8 81.3 165.8 81.8 165.9C83.1 166.1 84.4 166.4 85.6 166.7C88 167.3 90.4 168.2 92.9 169.2C95.7 170.3 98.6 171.4 101 172.3C101.8 172.6 102.6 172.9 103.7 173.5C104.3 173.8 105.1 174.2 105.3 174C105.5 173.8 104.9 172.8 104.4 172.1C104 171.5 103.8 171.1 103.5 170.8C102.7 169.9 101.4 169.3 100.1 168.7C96.5 166.9 93.5 164.9 90.2 163C88 161.7 85.7 160.6 83.7 159C82 157.6 80.6 156 79.3 154.2C77.9 152.2 76.7 150 75.4 147.9C74.1 146 72.6 144.3 71.2 142.4C69.9 140.6 68.6 138.7 68.4 136.5C68.3 135.5 68.5 134.5 68.3 133.6C68.2 133.1 67.9 132.6 67.9 132C67.9 131.4 68.2 130.6 68.5 130.5C68.9 130.3 69.5 131.3 70.1 131.9C70.7 132.7 71.4 133.1 71.9 133.7C72.5 134.4 72.9 135.3 73.3 136.2C74.7 139.5 75.8 142.7 77.3 145.8C78.1 147.3 79 148.8 80 150.2C81 151.7 82.2 153.1 83.7 154C84.8 154.6 86 155 87.2 155.5C87.9 155.8 88.5 156.1 89.1 156.6C90.4 157.6 91.3 158.9 92.5 159.9C94.1 161.3 96.2 162.1 98.3 162.9C100.5 163.7 102.6 164.6 104.5 165.7C104.9 165.9 105.3 166.1 105.6 166.4C106.5 167 107.2 167.7 108 168.4C110.4 170.7 112.6 173.2 115.1 175.4C116.5 176.6 118.1 177.7 119.8 178.6C120.9 179.2 122.1 179.7 123.3 179.8C124 179.9 124.7 179.8 125.3 179.9C126.2 180 127.1 180.5 128 180.8C129.9 181.4 131.9 181.5 134 181.6C136.1 181.7 138.2 182 140.3 182.1C141.8 182.2 143.3 182.2 144.7 182.2C144.7 182.7 144.9 182.6 145 182.4Z" fill="#000"/>
<path d="M213.4 163.5C213.4 164.5 213.4 165.5 212.9 166.2C212.5 166.9 211.6 167.3 210.9 167.8C210 168.5 209.3 169.5 208.5 170.2C206.6 172 204 172.8 201.5 173.6C198.3 174.6 195.2 175.6 192.1 176.6L191.5 174.6C191.7 174.5 191.8 174.5 192 174.4C193.3 174 194.5 173.3 195.7 172.8C197.1 172.1 198.5 171.6 199.8 170.8C200.5 170.4 201.2 169.9 201.8 169.3C202.1 169 202.3 168.7 202.3 168.3C202.3 168 202.2 167.7 202 167.5C201.7 167.3 201.3 167.2 201 167.3C200.2 167.4 199.6 167.6 198.9 168C198.4 168.3 197.9 168.6 197.4 168.7C196.7 168.9 196 169 195.3 168.9C194.5 168.8 193.6 168.4 192.9 168.5C192.4 168.5 191.9 168.7 191.4 168.9C190.8 169.2 190.2 169.6 189.9 169.4C189.8 169.3 189.7 169.1 189.6 168.9C189.4 168.2 189.4 167.5 189.6 166.9C189.7 166.3 189.9 165.7 190.2 165.1C190.3 164.7 190.5 164.3 190.7 164C190.9 163.7 191.3 163.6 191.5 163.4C191.9 163.1 192.2 162.7 192.5 162.2C193.1 161.4 193.8 160.6 194.6 159.8C195.2 159.2 195.8 158.7 196.5 158.2C197.5 157.5 198.6 156.8 199.7 156.5C200.4 156.3 201.1 156.2 201.7 155.8C202.4 155.4 203 154.7 203.6 154C204.2 153.1 204.7 152.2 205.4 151.6C205.7 151.4 206 151.2 206.3 150.9C206.7 150.4 206.9 149.4 206.5 149.3C206.4 149.2 206.2 149.3 206 149.3C205.6 149.4 205.3 149.6 205 149.8C204.6 150.1 204.1 150.4 203.7 150.8C202.4 151.9 201 152.9 199.6 154C197.7 155.4 195.6 156.9 193.9 157.9C193.2 158.3 192.6 158.7 191.7 159.5C191.1 160 190.4 160.7 190.2 160.5C190.1 160.4 190.1 160.1 190.1 159.9C190.1 159.5 190.2 159.1 190.4 158.8C190.6 158.2 190.8 157.5 191 156.9C191.4 155.6 192 154.3 192.5 153.1C193 152.1 193.5 151 194 150C195.1 148 196.3 146.2 198 144.6C198.5 144.2 199 143.7 199.6 143.7C200 143.7 200.4 143.8 200.7 143.9C201 144.1 201.3 144.4 201.7 144.6C201.9 144.7 202.2 144.8 202.3 144.7C202.4 144.6 202.4 144.3 202.4 144C202.4 143.6 202.4 143.2 202.4 142.9C202.3 140.6 202.3 138.1 202.2 135.5C202.1 133.9 202.1 132.3 202 131C201.9 129.9 201.9 129 201.7 127.3C201.6 126.6 201.6 125.9 201.5 125.7L203.1 124.9C204.4 127.4 205.4 129.9 206.2 132.6C207.2 136.2 207.7 139.8 208.7 143.3C209.8 147.1 211.4 150.7 212.2 154.6C212.5 156.2 212.7 157.9 212.9 159.5C213.2 160.7 213.4 162 213.4 163.5Z" fill="#000"/>
<path d="M191.2 117.8C191.3 118.4 191.6 119.1 191.5 120C191.4 120.6 191.2 121.3 190.9 121.9C190.4 123 190 123.8 189.6 124.7C189.1 125.8 188.8 127.1 188.3 128.2C187.7 129.6 187 131 186.2 132.3C185.4 133.7 184.7 135 184.2 136.5C183.9 137.5 183.7 138.4 183.2 139.3C182.7 140.2 181.9 141 181.4 141.9C180.8 142.9 180.6 144.1 180.1 145.2C179.7 146.2 179.2 147.1 178.8 148C178.5 148.7 178.2 149.5 177.9 150.2C177.8 150.3 177.7 150.5 177.6 150.6C177.5 150.7 177.3 150.8 177.2 150.8C177.1 150.8 177.1 150.8 177.1 150.8C177 150.7 176.9 150.7 176.9 150.5C176.8 149.9 176.6 149.3 176.6 148.7C176.4 147.2 176.3 145.8 176.3 144.3C176.2 142.5 176.2 140.8 176.2 139.4C176.2 138.8 176.2 138.2 176.3 137.3C176.3 137.1 176.3 136.9 176.4 136.7C176.5 136.5 176.8 136.3 177 136.3C177.2 136.2 177.3 136.3 177.4 136.3C177.7 136.2 177.8 135.6 177.9 135.1C178.1 134.3 178.2 133.7 178.5 133.2C178.9 132.6 179.5 132 179.9 131.3C180.3 130.6 180.3 129.8 180.5 129C180.6 128.4 180.9 127.9 180.9 127.3C181 126.4 180.9 125.5 181.3 124.8C181.6 124.3 182.2 124 182.7 123.7C183.8 122.9 184.6 121.7 185.1 120.5C185.3 119.9 185.4 119.4 185.5 118.7C185.5 118.2 185.4 117.7 185.6 117.3C185.8 116.8 186.4 116.6 186.7 116.2C187.1 115.8 187.3 115.2 187.5 114.7C187.7 114.2 188 113.7 188.2 113.3C188.3 113.1 188.5 113 188.7 113C188.9 113 189.1 113.1 189.2 113.3C189.5 113.7 189.8 114.1 190.2 114.6C190.5 115 190.7 115.3 190.9 115.7C191.3 116.2 191.1 117 191.2 117.8Z" fill="#000"/>
<path d="M177.6 104.1C177.9 104.3 177.4 105.1 177.1 105.7C176.6 106.5 176.2 107 175.6 107.5C174.9 108.1 174 108.8 173 109.3C172.1 109.8 171.2 110.2 170.3 110.5C169.4 110.8 168.5 111 167.5 111.1C166 111.2 164.5 111.2 163.1 110.8C161.9 110.5 160.8 110.1 159.7 109.6C159.3 109.4 158.8 109.2 158.4 109C157.3 108.5 156.2 108 155 107.6C154.2 107.3 153.4 107.1 152.7 106.7C152.2 106.4 151.7 106.1 151.3 105.8C150.9 105.6 150.4 105.4 149.9 105.2C149.2 105 148.5 104.8 147.8 104.4C147.5 104.2 147.2 104.1 146.9 103.7C146.8 103.5 146.6 103.2 146.7 103C146.8 102.8 147 102.6 147.3 102.5C147.7 102.4 148.2 102.3 148.6 102.4C149 102.4 149.4 102.5 149.8 102.6C150.7 102.8 151.6 103.1 152.5 103.3C153.6 103.6 154.7 103.9 155.9 104.1C156.4 104.2 156.8 104.3 157.3 104.4C158.5 104.7 159.7 105.1 160.9 105.4C162.1 105.7 163.3 105.9 164.6 106C166.1 106.1 167.7 106 169.2 105.8C170.6 105.6 172 105.3 173.4 104.9C174.1 104.7 174.8 104.5 175.4 104.3C175.8 104.2 176.1 104.1 176.5 104C177.1 104.1 177.5 104 177.6 104.1Z" fill="#000"/>
<path d="M167.1 101.4L167 104C164.4 103.9 161.9 103.6 159.4 103.3C156.4 103 153.4 102.7 150.4 102.4C147.6 102.1 144.8 101.7 142 102.1C140.3 102.4 138.7 102.9 137 103.3C135.8 103.6 134.6 103.8 133.3 103.9C132.2 104 131.1 104 130.1 104.5C129.6 104.8 129.1 105.2 128.7 105.7C128.2 106.3 127.7 106.9 127 107.2C126.4 107.5 125.7 107.5 125.2 107.2C124.7 106.9 124.7 106.1 124.6 105.4C124.5 104.4 124.3 103.5 124.7 102.7C125 102.1 125.7 101.5 126.4 101.2C127.2 100.9 128 100.8 128.7 100.6C129.9 100.2 131.1 99.5999 132.3 98.9999C133.2 98.4999 134.1 98.0999 135.1 97.7999C135.3 97.6999 135.5 97.6999 135.7 97.6999C136.8 97.4999 138 97.3999 139.1 97.3999C141.3 97.4999 143.4 97.9999 145.6 98.2999C149.6 98.9999 153.7 99.4999 157.7 100.1C160.6 100.6 163.4 101.1 166.3 101.3C166.5 101.4 166.8 101.4 167.1 101.4Z" fill="#000"/>
<path d="M165.3 64.7998C165.8 64.8998 165.9 65.8998 165.8 66.5998C165.7 67.1998 165.4 67.4998 165 67.8998C164.5 68.2998 163.9 68.5998 163.3 68.8998C162.5 69.1998 161.7 69.3998 160.9 69.5998C160 69.6998 159.1 69.6998 158.2 69.5998C157.3 69.4998 156.4 69.2998 155.6 69.5998C155 69.7998 154.5 70.2998 154.1 70.7998C153.8 71.1998 153.5 71.4998 153.3 71.8998L150.5 71.3998C150.6 71.2998 150.6 71.1998 150.7 71.0998C150.8 70.8998 151 70.5998 150.9 70.3998C150.8 69.9998 150.3 69.5998 149.8 69.2998C149.4 68.9998 149 68.8998 148.6 68.7998C148.2 68.7998 147.8 68.7998 147.5 68.9998C146.8 69.3998 146.5 70.1998 146.1 70.8998C145.7 71.5998 145.3 72.1998 144.8 72.7998C144.1 73.5998 143.3 74.2998 142.4 74.7998C141.6 75.2998 140.7 75.6998 139.8 75.7998C138.6 75.9998 137.4 75.8998 136.3 75.4998C135.1 75.0998 134 74.4998 133.1 73.6998C132.4 73.0998 131.8 72.2998 131.5 71.4998C131.3 70.9998 131.1 70.3998 130.9 69.8998C130.8 69.5998 130.6 69.2998 130.4 69.1998C130 68.8998 129.3 68.9998 128.7 68.9998C128.3 68.9998 128 69.0998 127.6 69.0998C127 69.1998 126.4 69.1998 125.9 69.3998C125.4 69.4998 124.9 69.6998 124.4 69.9998C124.2 70.1998 124 70.3998 124 70.5998C123.9 70.9998 124.1 71.3998 124.4 71.7998C124.8 72.3998 125.2 72.7998 125.7 73.1998C126 73.4998 126.3 73.6998 126.7 73.9998L125.3 75.9998C124.6 75.4998 123.9 74.9998 123.2 74.4998C122.4 73.8998 121.6 73.2998 120.7 72.6998C120.2 72.2998 119.6 71.8998 119 71.7998C118.5 71.6998 118 71.7998 117.5 71.4998C117.3 71.3998 117 71.1998 117 70.9998C116.9 70.5998 117.4 70.0998 117.9 69.6998C118.7 69.0998 119.3 68.6998 120 68.2998C121.8 67.2998 123.9 66.2998 126.1 65.7998C129.1 64.9998 132.3 64.8998 135.3 64.7998C136.3 64.7998 137.3 64.6998 138.3 64.5998C139.4 64.4998 140.6 64.3998 141.7 64.3998C142.1 64.3998 142.6 64.2998 143.1 64.3998C143.4 64.3998 143.7 64.3998 143.8 64.2998C143.9 64.1998 143.9 63.8998 143.7 63.6998C143.4 63.2998 143 62.9998 142.5 62.7998C141.9 62.4998 141.3 62.2998 140.7 62.1998C140 62.0998 139.3 61.9998 138.6 61.8998C136.9 61.7998 135.3 61.8998 133.6 61.7998C131.9 61.6998 130.2 61.5998 128.5 61.6998C127.1 61.7998 125.7 62.1998 124.4 62.7998C123.1 63.3998 122 64.1998 120.8 64.9998C119.9 65.5998 119 66.0998 118.1 66.5998C117 67.1998 116 67.8998 114.9 68.4998C114 68.9998 113 69.4998 111.9 69.5998C110.9 69.6998 109.8 69.4998 108.9 68.9998C107.9 68.4998 107.1 67.5998 106.4 66.5998C106 65.9998 105.5 65.3998 105.3 64.7998C105.1 64.1998 105 63.5998 105.1 62.7998C105.2 62.3998 105.3 61.8998 105.5 61.7998C105.6 61.7998 105.6 61.7998 105.7 61.7998C106 61.7998 106.2 61.8998 106.5 62.0998C107 62.3998 107.3 62.7998 107.6 63.0998C108.2 63.5998 108.9 64.0998 109.7 64.2998C110.7 64.5998 111.9 64.3998 112.8 63.9998C114.2 63.4998 115.4 62.4998 116.7 61.6998C118.5 60.4998 120.3 59.3998 122.3 58.5998C123.9 57.9998 125.7 57.4998 127.5 57.2998C129.5 56.9998 131.6 56.9998 133.7 57.1998C134.5 57.2998 135.3 57.3998 136.1 57.2998C137.2 57.1998 138.3 56.6998 139.4 56.3998C140.7 55.9998 142.1 55.9998 143.5 56.1998C144.8 56.3998 146 56.6998 147.1 57.2998C147.9 57.7998 148.7 58.3998 149.4 59.0998C149.9 59.5998 150.4 60.0998 150.9 60.6998C151.3 61.1998 151.7 61.6998 152.2 62.1998C152.5 62.4998 152.8 62.7998 153.3 62.8998C153.7 62.9998 154.1 62.8998 154.3 62.5998C154.7 62.2998 154.5 61.5998 154.4 60.9998C154.3 60.2998 154.3 59.6998 154.1 59.0998C153.8 57.8998 152.8 56.7998 152.1 55.6998C151.7 54.9998 151.4 54.2998 151.1 53.5998C150.9 52.9998 150.6 52.3998 150.7 51.6998C150.7 51.0998 151 50.4998 151.4 50.0998C152.1 49.5998 153.2 49.7998 154 50.1998C155.3 50.7998 156.1 51.8998 156.8 53.0998C157.7 54.4998 158.6 55.8998 159.1 57.4998C159.5 58.6998 159.8 59.8998 159.8 61.0998C159.8 61.7998 159.7 62.4998 159.6 63.2998C159.6 63.7998 159.5 64.2998 159.7 64.6998C159.9 65.0998 160.3 65.4998 160.7 65.5998C161.3 65.7998 162.1 65.6998 162.8 65.5998C163.3 65.4998 163.7 65.3998 164.2 65.1998C164.6 64.8998 165 64.6998 165.3 64.7998Z" fill="#000"/>
<path d="M150.5 71.2L153.3 71.7C152.9 72.3 152.5 72.9999 152.1 73.5999C151.8 73.9999 151.4 74.4 151 74.7C150.8 74.8 150.6 75 150.4 75.2C150.2 75.5 150.1 75.7999 149.9 76.0999C149.5 76.9999 148.9 77.6999 148.3 78.3999C147.3 79.5999 146.2 80.6999 145.1 81.7999C143.8 83.0999 142.4 84.2 140.9 85.2C139.5 86 138 86.6999 136.4 86.9999C134.8 87.2999 133 87.2999 131.4 86.8999C129.4 86.4999 127.5 85.4999 125.8 84.4999C124.5 83.7999 123.3 82.9999 122.2 82.0999C121.3 81.3999 120.5 80.6999 119.8 79.7999C119.5 79.2999 119.2 78.8 118.9 78.2C118.8 78 118.9 77.8 119 77.7C119.2 77.6 119.3 77.6 119.5 77.7C119.8 77.9 120.1 78.0999 120.5 78.2999C122.1 79.2999 123.7 80.1999 125.3 81.0999C126.5 81.6999 127.7 82.3999 129 82.7999C130.2 83.1999 131.5 83.3 132.8 83.2C134.1 83.1 135.4 82.8999 136.6 82.3999C136.8 82.2999 137 82.1999 137.2 82.0999C137.4 81.9999 137.5 81.8 137.4 81.7C137.4 81.5 137.2 81.3999 137.1 81.2999C136 81.0999 134.9 80.7999 133.8 80.5999C132.4 80.1999 130.9 79.7999 129.7 78.9999C129.3 78.6999 128.9 78.3999 128.4 78.0999C127.9 77.6999 127.4 77.3999 126.9 76.9999C126.3 76.5999 125.8 76.2 125.2 75.7L126.6 73.7C127.6 74.4 128.8 75.1 129.9 75.7C130.7 76.1 131.4 76.4999 132.2 76.7999C133.5 77.2999 134.8 77.6 136.3 77.7C137.9 77.9 139.8 77.9 140.8 77.7C141.7 77.5 142.1 77.2 142.8 76.7C143.7 76.1 145.1 75.3 146.6 74.2C147.7 73.4 148.8 72.5 149.6 71.7C150 71.7 150.3 71.5 150.5 71.2Z" fill="#000"/>
<path d="M150.2 44.9998C150.9 45.7998 151.5 46.8998 151.2 47.4998C151 47.8998 150.4 47.9998 149.7 47.9998C149.1 47.9998 148.4 47.8998 147.8 47.8998C144.7 47.5998 142.7 47.4998 140.4 47.0998C138.2 46.6998 135.7 46.1998 133.2 46.1998C131.3 46.1998 129.4 46.6998 127.6 47.0998C125.2 47.6998 122.7 48.3998 120.6 49.6998C118.9 50.6998 117.5 52.0998 116.1 53.5998C115.5 54.1998 114.9 54.8998 114.3 55.3998C113.4 56.1998 112.5 56.9998 111.7 57.7998C110.9 58.4998 110.3 59.2998 109.1 59.4998C108.5 59.5998 107.7 59.4998 107.2 59.0998C107.1 59.0998 107.1 58.9998 107 58.9998C106.5 58.5998 106.4 57.8998 106.5 57.1998C106.6 56.4998 106.9 55.8998 107.2 55.3998C108 54.1998 108.9 53.0998 110 52.1998C111.2 50.9998 112.5 49.8998 113.9 48.7998C115.5 47.4998 117 46.0998 118.7 45.0998C120.2 44.1998 121.8 43.5998 123.5 42.9998C125 42.4998 126.5 41.9998 128 41.7998C129.8 41.5998 131.5 41.6998 133.3 41.7998C134 41.7998 134.7 41.8998 135.4 41.8998C136.8 41.9998 138.2 42.0998 139.6 42.2998C140.1 42.3998 140.7 42.3998 141.2 42.4998C142.4 42.6998 143.6 42.8998 144.9 42.9998C145.9 43.0998 146.9 43.0998 147.8 43.3998C148.3 43.5998 148.8 43.8998 149.3 44.1998C149.7 44.3998 150 44.6998 150.2 44.9998Z" fill="#000"/>
<path d="M143 38.4998C143.1 38.8998 143 39.3998 142.8 39.5998C142.6 39.8998 142.1 39.8997 141.7 39.7997C141.6 39.7997 141.4 39.7997 141.3 39.7997C140 39.5997 138.9 39.3998 137.8 39.1998C136.2 38.8998 134.4 38.7998 132.6 38.5998C130.2 38.2998 127.8 37.9998 125.5 38.1998C124.1 38.2998 122.7 38.5998 121.3 39.0998C120.3 39.3998 119.4 39.8997 118.5 40.2997C118 40.4997 117.5 40.6998 117 40.9998C116.1 41.3998 115.1 41.7998 114.2 42.0998C113.6 42.2998 113 42.4998 112.4 42.5998C111.8 42.6998 111.3 42.5997 110.7 42.3997C109.9 41.9997 109.3 41.0997 109.4 40.2997C109.5 39.6997 110 39.1997 110.5 38.8997C111.3 38.3997 112.2 38.2998 113.1 37.9998C113.8 37.7998 114.4 37.3998 115 37.0998C115.7 36.6998 116.4 36.1997 117.4 35.7997C118.7 35.2997 120.5 34.8998 122 34.5998C124.8 34.0998 126.5 34.0998 128 33.9998C129 33.9998 129.9 33.8997 130.9 33.7997C131.8 33.6997 132.8 33.5998 133.9 33.4998C135 33.3998 136.2 33.1998 137.4 33.4998C138 33.6998 138.7 33.9997 139.3 34.3997C139.8 34.6997 140.3 35.0997 140.8 35.3997C141.3 35.7997 141.7 36.1998 142.1 36.6998C142.5 36.9998 142.9 37.6998 143 38.4998Z" fill="#000"/>
<path d="M128.5 27.9999C128.9 28.3999 129.4 28.9999 129.3 29.1999C129.2 29.3999 128.4 29.2999 127.8 29.2999C127.1 29.1999 126.6 29.1999 126 29.1999C125 29.1999 123.8 29.1999 122.6 29.0999C121.9 29.0999 121.2 28.9999 120.5 28.8999C119.2 28.7999 117.9 28.6999 116.6 28.8999C115.6 29.0999 114.6 29.3999 113.7 29.6999C113.2 29.8999 112.8 30.0999 112.3 30.2999C111.3 30.6999 110.3 31.0999 109.4 31.7999C109.2 31.8999 109 32.0999 108.8 32.0999C108.6 32.0999 108.4 31.9999 108.2 31.8999C107.8 31.4999 107.9 30.8999 108.1 30.2999C108.2 29.7999 108.4 29.3999 108.7 28.9999C109.2 27.9999 110 27.0999 110.9 26.3999C111.8 25.6999 112.7 25.1999 113.6 24.6999C114.8 24.1999 116.1 23.7999 117.5 23.6999C118.8 23.5999 120.1 23.5999 121.3 23.8999C122.5 24.1999 123.7 24.6999 124.7 25.1999C126.1 25.8999 127.2 26.5999 128.5 27.9999Z" fill="#000"/>
<path d="M124.5 168.9C124.6 169.2 124.8 169.5 124.7 169.7C124.6 169.9 124.4 169.9 124.2 169.8C123.9 169.7 123.6 169.2 123.4 168.8C122.9 167.9 122.5 167.1 122.2 166.3C121.8 165.2 121.6 164 121.1 162.8C120.8 161.8 120.3 160.8 119.8 160.2C119.5 159.8 119.1 159.5 118.8 159.1C118.2 158.5 117.5 157.9 116.6 157.2C116.1 156.8 115.6 156.4 115 156.1C114.5 155.8 114.1 155.5 113.5 155.4C113.2 155.4 112.9 155.4 112.6 155.5C112.1 155.7 111.8 156.2 111.6 156.6C111.5 156.8 111.4 157 111.2 157.3C111 157.6 110.7 158 110.5 157.9C110.3 157.9 110.4 157.3 110.5 156.8C110.7 155.4 110.8 154.5 110.9 153.6C111 152.2 111.1 150.4 111 148.9C111 148 110.9 147.2 111.1 146.1C111.2 145.6 111.3 145.1 111.5 145C111.9 144.8 112.5 145.8 112.9 146.6C113.5 147.7 113.7 148.5 114 149.4C114.1 149.9 114.2 150.4 114.4 150.8C114.6 151.2 114.8 151.8 115 152.2C115 152.2 115 152.2 115 152.3C115.1 152.4 115.2 152.5 115.3 152.4C115.4 152.4 115.5 152.3 115.6 152.1C115.6 151.9 115.7 151.8 115.7 151.6C115.8 151.4 115.9 151.2 116.1 151C116.2 150.9 116.3 150.9 116.4 150.9C116.5 150.9 116.7 151 116.7 151.1C117.2 151.8 117.7 152.5 118.2 153.1C119.1 154.2 120.1 155.3 120.9 156.5C121.4 157.1 121.8 157.8 122 158.5C122.3 159.2 122.4 160 122.4 160.8C122.5 161.4 122.5 162 122.5 162.6C122.6 163.5 122.8 164.3 123.1 165.1C123.4 165.9 123.7 166.6 123.9 167.4C124.2 167.9 124.3 168.3 124.5 168.9Z" fill="#000"/>
<path d="M121.8 103.3C121.8 103.6 121.8 103.9 121.7 104.1C121.5 104.3 121.1 104.1 120.7 103.9C120.1 103.6 119.6 103.5 119.1 103.3C118.9 103.2 118.7 103.2 118.5 103.1C118.1 103 117.8 102.8 117.4 102.6C117.2 102.5 116.9 102.3 116.8 102.1C116.5 101.7 116.6 101.2 116.5 100.7C116.4 100.2 116.3 99.7999 116 99.3999C115.7 98.9999 115.2 98.6999 114.7 98.4999C113.2 97.6999 111.9 96.9999 110.6 96.0999C109.5 95.3999 108.4 94.5999 107.4 93.7999C106.1 92.6999 104.9 91.3999 104 89.9999C103.3 88.8999 102.8 87.6999 102.4 86.4999C102.1 85.5999 101.8 84.5999 101.7 83.6999C101.7 83.4999 101.7 83.2999 101.6 83.0999C101.6 82.7999 101.7 82.5999 102 82.4999C102.3 82.3999 102.5 82.4999 102.7 82.6999C103.4 83.5999 104.2 84.3999 105 85.2999C107 87.4999 109 89.6999 111.5 91.2999C112.7 92.0999 114.1 92.5999 115.4 93.1999C116.2 93.4999 116.9 93.7999 117.8 93.8999C118.2 93.8999 118.7 93.8999 118.9 94.1999C119.1 94.3999 119.2 94.6999 119.3 94.9999C119.8 96.3999 120.3 97.5999 120.7 98.8999C121 99.9999 121.3 101.2 121.6 102.2C121.6 102.3 121.7 102.7 121.8 103.3Z" fill="#000"/>
</svg>
